<svg width="370" height="425" viewBox="0 0 370 425" fill="none" xmlns="http://www.w3.org/2000/svg">
<rect width="370" height="425" fill="#EAE4DC"/>
<path d="M77.288 164.672C75.0107 164.672 72.8267 164.317 70.736 163.608C68.6453 162.861 66.928 161.704 65.584 160.136C64.2773 158.531 63.6053 156.459 63.568 153.92H68.272C68.272 154.069 68.328 154.499 68.44 155.208C68.5893 155.88 68.944 156.627 69.504 157.448C70.1013 158.232 71.0347 158.923 72.304 159.52C73.5733 160.117 75.3467 160.416 77.624 160.416C79.4533 160.416 80.8907 160.155 81.936 159.632C83.0187 159.109 83.7653 158.493 84.176 157.784C84.624 157.075 84.8667 156.44 84.904 155.88C84.904 154.723 84.5307 153.789 83.784 153.08C83.0747 152.371 82.104 151.811 80.872 151.4C79.64 150.952 78.2773 150.56 76.784 150.224C75.328 149.851 73.872 149.459 72.416 149.048C70.96 148.6 69.616 148.021 68.384 147.312C67.1893 146.603 66.2373 145.688 65.528 144.568C64.856 143.411 64.576 141.936 64.688 140.144C64.8 137.568 66.0133 135.552 68.328 134.096C70.68 132.64 73.704 131.912 77.4 131.912C79.5653 131.912 81.5813 132.304 83.448 133.088C85.3147 133.872 86.808 135.048 87.928 136.616C89.048 138.184 89.608 140.144 89.608 142.496H85.072C85.072 141.189 84.792 140.144 84.232 139.36C83.672 138.539 82.9627 137.904 82.104 137.456C81.2453 137.008 80.3493 136.709 79.416 136.56C78.4827 136.373 77.6427 136.28 76.896 136.28C74.768 136.28 73.0133 136.672 71.632 137.456C70.288 138.24 69.616 139.304 69.616 140.648C69.5787 141.843 69.9333 142.795 70.68 143.504C71.4267 144.213 72.416 144.773 73.648 145.184C74.88 145.595 76.224 145.968 77.68 146.304C79.1733 146.64 80.648 147.013 82.104 147.424C83.5973 147.835 84.9413 148.395 86.136 149.104C87.368 149.776 88.32 150.709 88.992 151.904C89.7013 153.061 90.0187 154.536 89.944 156.328C89.832 158.083 89.216 159.595 88.096 160.864C87.0133 162.096 85.5387 163.048 83.672 163.72C81.8053 164.355 79.6773 164.672 77.288 164.672ZM103.834 164.56C100.026 164.56 97.1889 163.459 95.3222 161.256C93.4555 159.053 92.5222 156.253 92.5222 152.856C92.4849 149.421 93.4182 146.603 95.3222 144.4C97.2262 142.197 100.064 141.077 103.834 141.04C107.493 141.04 110.274 142.123 112.178 144.288C114.082 146.453 115.034 149.309 115.034 152.856C115.034 155.059 114.624 157.056 113.802 158.848C113.018 160.603 111.786 162.003 110.106 163.048C108.464 164.056 106.373 164.56 103.834 164.56ZM103.834 160.584C105.626 160.584 106.989 160.192 107.922 159.408C108.893 158.624 109.565 157.635 109.938 156.44C110.312 155.208 110.498 153.957 110.498 152.688C110.498 151.419 110.312 150.187 109.938 148.992C109.565 147.76 108.893 146.752 107.922 145.968C106.989 145.147 105.626 144.736 103.834 144.736C102.005 144.736 100.605 145.147 99.6342 145.968C98.6635 146.752 97.9915 147.76 97.6182 148.992C97.2449 150.187 97.0582 151.419 97.0582 152.688C97.0582 153.957 97.2449 155.208 97.6182 156.44C97.9915 157.635 98.6635 158.624 99.6342 159.408C100.605 160.192 102.005 160.584 103.834 160.584ZM128.913 164.56C126.748 164.56 124.807 164.112 123.089 163.216C121.372 162.32 120.009 161.013 119.001 159.296C118.031 157.579 117.545 155.488 117.545 153.024C117.583 150.597 118.105 148.488 119.113 146.696C120.121 144.904 121.465 143.523 123.145 142.552C124.863 141.544 126.823 141.04 129.025 141.04C131.191 141.04 133.039 141.451 134.569 142.272C136.137 143.093 137.369 144.176 138.265 145.52C139.161 146.827 139.703 148.227 139.889 149.72H135.577C135.279 148.264 134.569 147.125 133.449 146.304C132.329 145.483 130.911 145.072 129.193 145.072C126.953 145.072 125.199 145.781 123.929 147.2C122.697 148.619 122.081 150.448 122.081 152.688C122.081 155.077 122.679 156.981 123.873 158.4C125.105 159.781 126.86 160.472 129.137 160.472C130.743 160.472 132.143 160.061 133.337 159.24C134.532 158.419 135.279 157.224 135.577 155.656H139.889C139.703 157.224 139.143 158.699 138.209 160.08C137.313 161.424 136.081 162.507 134.513 163.328C132.945 164.149 131.079 164.56 128.913 164.56ZM146.158 138.576C145.15 138.613 144.478 138.371 144.142 137.848C143.806 137.325 143.638 136.672 143.638 135.888C143.638 135.216 143.806 134.619 144.142 134.096C144.478 133.573 145.15 133.312 146.158 133.312C147.129 133.312 147.782 133.573 148.118 134.096C148.491 134.619 148.678 135.216 148.678 135.888C148.678 136.672 148.491 137.325 148.118 137.848C147.782 138.333 147.129 138.576 146.158 138.576ZM143.806 164V141.096H148.454V164H143.806ZM160.459 164.504C158.331 164.504 156.614 164.019 155.307 163.048C154.001 162.04 153.03 160.659 152.395 158.904C151.798 157.112 151.499 155.077 151.499 152.8C151.499 149.328 152.209 146.491 153.627 144.288C155.046 142.048 157.323 140.928 160.459 140.928C162.139 140.928 163.502 141.227 164.547 141.824C165.593 142.421 166.395 143.093 166.955 143.84C167.553 144.587 167.963 145.24 168.187 145.8H168.299V141.096H173.059V164H169.083L168.299 159.912H168.187C167.963 160.472 167.553 161.125 166.955 161.872C166.358 162.581 165.537 163.197 164.491 163.72C163.446 164.243 162.102 164.504 160.459 164.504ZM162.307 160.528C164.51 160.528 166.041 159.819 166.899 158.4C167.795 156.981 168.243 155.133 168.243 152.856C168.243 150.467 167.777 148.581 166.843 147.2C165.947 145.819 164.435 145.128 162.307 145.128C160.739 145.128 159.507 145.483 158.611 146.192C157.715 146.864 157.062 147.779 156.651 148.936C156.278 150.093 156.091 151.381 156.091 152.8C156.091 155.003 156.558 156.851 157.491 158.344C158.425 159.8 160.03 160.528 162.307 160.528ZM176.723 164V132.472H181.315V164H176.723ZM72.08 208.504C69.952 208.504 68.2347 208.019 66.928 207.048C65.6213 206.04 64.6507 204.659 64.016 202.904C63.4187 201.112 63.12 199.077 63.12 196.8C63.12 193.328 63.8293 190.491 65.248 188.288C66.6667 186.048 68.944 184.928 72.08 184.928C73.76 184.928 75.1227 185.227 76.168 185.824C77.2133 186.421 78.016 187.093 78.576 187.84C79.1733 188.587 79.584 189.24 79.808 189.8H79.92V185.096H84.68V208H80.704L79.92 203.912H79.808C79.584 204.472 79.1733 205.125 78.576 205.872C77.9787 206.581 77.1573 207.197 76.112 207.72C75.0667 208.243 73.7227 208.504 72.08 208.504ZM73.928 204.528C76.1307 204.528 77.6613 203.819 78.52 202.4C79.416 200.981 79.864 199.133 79.864 196.856C79.864 194.467 79.3973 192.581 78.464 191.2C77.568 189.819 76.056 189.128 73.928 189.128C72.36 189.128 71.128 189.483 70.232 190.192C69.336 190.864 68.6827 191.779 68.272 192.936C67.8987 194.093 67.712 195.381 67.712 196.8C67.712 199.003 68.1787 200.851 69.112 202.344C70.0453 203.8 71.6507 204.528 73.928 204.528ZM97.7521 208.56C94.3921 208.56 91.9281 207.477 90.3601 205.312C88.7921 203.109 88.0081 200.309 88.0081 196.912C88.0081 193.403 88.7921 190.565 90.3601 188.4C91.9654 186.197 94.4294 185.096 97.7521 185.096C99.2454 185.096 100.496 185.339 101.504 185.824C102.512 186.309 103.315 186.888 103.912 187.56C104.547 188.232 104.995 188.848 105.256 189.408C105.555 189.968 105.723 190.323 105.76 190.472H105.872L105.928 176.472H110.688V208H106.656L105.928 203.408H105.816C105.741 203.557 105.536 203.912 105.2 204.472C104.901 204.995 104.435 205.573 103.8 206.208C103.203 206.843 102.4 207.403 101.392 207.888C100.384 208.336 99.1707 208.56 97.7521 208.56ZM99.0961 204.528C101.261 204.528 102.923 203.837 104.08 202.456C105.237 201.037 105.816 199.171 105.816 196.856C105.816 194.616 105.256 192.805 104.136 191.424C103.053 190.005 101.448 189.296 99.3201 189.296C97.6774 189.296 96.3521 189.669 95.3441 190.416C94.3734 191.125 93.6641 192.059 93.2161 193.216C92.8054 194.373 92.6001 195.587 92.6001 196.856C92.6001 198.163 92.7867 199.413 93.1601 200.608C93.5707 201.765 94.2427 202.717 95.1761 203.464C96.1467 204.173 97.4534 204.528 99.0961 204.528ZM131.226 185.096H135.818V185.936L127.586 208H121.034L112.746 185.992V185.096H117.282L124.338 204.136H124.45L131.226 185.096ZM147.968 208.56C145.392 208.56 143.283 208 141.64 206.88C139.997 205.723 138.784 204.248 138 202.456C137.216 200.664 136.824 198.779 136.824 196.8C136.787 194.597 137.197 192.6 138.056 190.808C138.952 189.016 140.221 187.597 141.864 186.552C143.544 185.507 145.541 184.984 147.856 184.984C149.835 184.984 151.608 185.432 153.176 186.328C154.781 187.187 156.051 188.419 156.984 190.024C157.917 191.592 158.421 193.459 158.496 195.624C158.496 195.736 158.496 195.96 158.496 196.296C158.533 196.595 158.552 196.856 158.552 197.08H141.248C141.248 199.469 141.827 201.336 142.984 202.68C144.179 203.987 145.821 204.64 147.912 204.64C149.48 204.64 150.805 204.248 151.888 203.464C153.008 202.643 153.699 201.56 153.96 200.216H158.496C158.16 202.605 157.077 204.603 155.248 206.208C153.419 207.776 150.992 208.56 147.968 208.56ZM141.416 194.784H153.848C153.811 194.373 153.699 193.832 153.512 193.16C153.325 192.488 153.008 191.835 152.56 191.2C152.149 190.528 151.552 189.968 150.768 189.52C149.984 189.072 148.976 188.848 147.744 188.848C146.213 188.848 145 189.184 144.104 189.856C143.245 190.491 142.592 191.275 142.144 192.208C141.733 193.104 141.491 193.963 141.416 194.784ZM162.306 208V185.096H166.618L167.01 191.312C167.234 190.304 167.663 189.333 168.298 188.4C168.97 187.429 169.884 186.645 171.042 186.048C172.236 185.413 173.748 185.096 175.578 185.096H176.53V190.248H175.522C173.244 190.248 171.49 190.547 170.258 191.144C169.026 191.704 168.167 192.544 167.682 193.664C167.196 194.747 166.954 196.091 166.954 197.696V208H162.306ZM186.433 208C184.828 208 183.652 207.589 182.905 206.768C182.196 205.947 181.841 204.696 181.841 203.016V188.456H178.313V185.096C179.47 185.096 180.329 185.003 180.889 184.816C181.486 184.592 181.878 184.069 182.065 183.248C182.289 182.389 182.401 181.045 182.401 179.216H186.265V185.096H191.529V188.456H186.265V204.304H191.585V208H186.433ZM198.306 182.576C197.298 182.613 196.626 182.371 196.29 181.848C195.954 181.325 195.786 180.672 195.786 179.888C195.786 179.216 195.954 178.619 196.29 178.096C196.626 177.573 197.298 177.312 198.306 177.312C199.276 177.312 199.93 177.573 200.266 178.096C200.639 178.619 200.826 179.216 200.826 179.888C200.826 180.672 200.639 181.325 200.266 181.848C199.93 182.333 199.276 182.576 198.306 182.576ZM195.954 208V185.096H200.602V208H195.954ZM214.007 208.56C212.29 208.56 210.666 208.187 209.135 207.44C207.642 206.693 206.429 205.704 205.495 204.472C204.599 203.203 204.151 201.84 204.151 200.384H208.519C208.519 200.459 208.538 200.739 208.575 201.224C208.613 201.709 208.781 202.251 209.079 202.848C209.378 203.445 209.901 203.968 210.647 204.416C211.431 204.864 212.533 205.088 213.951 205.088C215.519 205.088 216.789 204.808 217.759 204.248C218.73 203.688 219.215 202.904 219.215 201.896C219.215 200.963 218.861 200.235 218.151 199.712C217.442 199.189 216.527 198.779 215.407 198.48C214.287 198.144 213.093 197.827 211.823 197.528C210.591 197.229 209.415 196.837 208.295 196.352C207.213 195.829 206.317 195.139 205.607 194.28C204.935 193.384 204.618 192.189 204.655 190.696C204.655 188.68 205.495 187.131 207.175 186.048C208.893 184.928 211.058 184.368 213.671 184.368C215.351 184.368 216.957 184.648 218.487 185.208C220.018 185.731 221.269 186.589 222.239 187.784C223.247 188.979 223.733 190.584 223.695 192.6H219.383C219.421 191.331 219.122 190.379 218.487 189.744C217.89 189.072 217.143 188.624 216.247 188.4C215.351 188.139 214.511 188.008 213.727 188.008C212.234 188.008 211.058 188.288 210.199 188.848C209.341 189.371 208.911 190.08 208.911 190.976C208.911 191.947 209.266 192.693 209.975 193.216C210.685 193.701 211.599 194.112 212.719 194.448C213.839 194.747 215.015 195.045 216.247 195.344C217.517 195.643 218.711 196.035 219.831 196.52C220.951 197.005 221.866 197.696 222.575 198.592C223.322 199.488 223.695 200.683 223.695 202.176C223.695 204.379 222.781 206.003 220.951 207.048C219.122 208.056 216.807 208.56 214.007 208.56ZM229.753 182.576C228.745 182.613 228.073 182.371 227.737 181.848C227.401 181.325 227.233 180.672 227.233 179.888C227.233 179.216 227.401 178.619 227.737 178.096C228.073 177.573 228.745 177.312 229.753 177.312C230.724 177.312 231.377 177.573 231.713 178.096C232.087 178.619 232.273 179.216 232.273 179.888C232.273 180.672 232.087 181.325 231.713 181.848C231.377 182.333 230.724 182.576 229.753 182.576ZM227.401 208V185.096H232.049V208H227.401ZM236.103 208V185.152H240.079L240.863 190.416H240.975C241.012 190.267 241.161 189.912 241.423 189.352C241.684 188.792 242.113 188.195 242.711 187.56C243.308 186.888 244.111 186.309 245.119 185.824C246.127 185.339 247.396 185.096 248.927 185.096C250.943 185.096 252.511 185.488 253.631 186.272C254.751 187.019 255.572 188.008 256.095 189.24C256.617 190.435 256.935 191.704 257.047 193.048C257.196 194.392 257.271 195.643 257.271 196.8V208H252.735V196.744C252.735 195.325 252.585 194.056 252.287 192.936C251.988 191.779 251.428 190.883 250.607 190.248C249.823 189.576 248.665 189.24 247.135 189.24C245.567 189.24 244.316 189.613 243.383 190.36C242.449 191.107 241.796 192.077 241.423 193.272C241.049 194.467 240.863 195.736 240.863 197.08V208H236.103ZM266.514 217.8V213.432H277.266V203.408H277.154C277.079 203.557 276.892 203.912 276.594 204.472C276.295 204.995 275.828 205.573 275.194 206.208C274.596 206.843 273.794 207.403 272.786 207.888C271.778 208.336 270.564 208.56 269.146 208.56C265.786 208.56 263.322 207.477 261.754 205.312C260.186 203.109 259.402 200.291 259.402 196.856C259.402 193.347 260.204 190.509 261.81 188.344C263.415 186.179 265.879 185.096 269.202 185.096C270.695 185.096 271.927 185.339 272.898 185.824C273.906 186.309 274.708 186.888 275.306 187.56C275.903 188.232 276.332 188.848 276.594 189.408C276.892 189.968 277.06 190.323 277.098 190.472H277.21L277.266 185.096H282.026V210.912C282.026 213.376 281.559 215.131 280.626 216.176C279.692 217.259 278.143 217.8 275.978 217.8H266.514ZM270.434 204.528C272.599 204.528 274.26 203.837 275.418 202.456C276.575 201.037 277.154 199.171 277.154 196.856C277.154 194.616 276.594 192.805 275.474 191.424C274.391 190.005 272.786 189.296 270.658 189.296C269.015 189.296 267.69 189.669 266.682 190.416C265.711 191.125 265.002 192.059 264.554 193.216C264.143 194.373 263.938 195.587 263.938 196.856C263.938 198.163 264.124 199.413 264.498 200.608C264.908 201.765 265.58 202.717 266.514 203.464C267.484 204.173 268.791 204.528 270.434 204.528Z" fill="#181817"/>
<path d="M63.474 257V244.614H64.882V255.768H71.746V257H63.474ZM77.175 257.22C75.7377 257.22 74.6597 256.795 73.941 255.944C73.237 255.079 72.885 253.979 72.885 252.644C72.8703 251.295 73.2223 250.195 73.941 249.344C74.6743 248.479 75.7523 248.039 77.175 248.024C78.583 248.024 79.6463 248.449 80.365 249.3C81.0983 250.136 81.465 251.251 81.465 252.644C81.465 253.509 81.311 254.287 81.003 254.976C80.695 255.665 80.2257 256.215 79.595 256.626C78.9643 257.022 78.1577 257.22 77.175 257.22ZM77.175 255.988C77.9377 255.988 78.5243 255.819 78.935 255.482C79.3603 255.145 79.6537 254.719 79.815 254.206C79.991 253.678 80.079 253.143 80.079 252.6C80.079 252.057 79.991 251.522 79.815 250.994C79.6537 250.466 79.3603 250.033 78.935 249.696C78.5243 249.359 77.9377 249.19 77.175 249.19C76.4123 249.19 75.8183 249.359 75.393 249.696C74.9823 250.033 74.689 250.466 74.513 250.994C74.3517 251.522 74.271 252.057 74.271 252.6C74.271 253.143 74.3517 253.678 74.513 254.206C74.689 254.719 74.9823 255.145 75.393 255.482C75.8183 255.819 76.4123 255.988 77.175 255.988ZM83.4017 257V248.046H84.6777L84.8317 250.4C84.9197 250.004 85.0957 249.623 85.3597 249.256C85.6237 248.889 85.983 248.596 86.4377 248.376C86.907 248.141 87.4864 248.031 88.1757 248.046H88.5937V249.608H88.1537C87.215 249.608 86.5037 249.747 86.0197 250.026C85.5504 250.29 85.2277 250.664 85.0517 251.148C84.8904 251.632 84.8097 252.189 84.8097 252.82V257H83.4017ZM93.74 257.22C92.7573 257.22 91.9433 257 91.298 256.56C90.6673 256.105 90.198 255.526 89.89 254.822C89.5967 254.103 89.45 253.363 89.45 252.6C89.45 251.764 89.6113 251.001 89.934 250.312C90.2713 249.608 90.7553 249.051 91.386 248.64C92.0313 248.229 92.8013 248.024 93.696 248.024C94.84 248.024 95.7933 248.398 96.556 249.146C97.3187 249.879 97.7293 250.869 97.788 252.116C97.8027 252.175 97.81 252.263 97.81 252.38C97.81 252.483 97.81 252.578 97.81 252.666H90.814C90.814 253.707 91.0633 254.529 91.562 255.13C92.0753 255.717 92.794 256.01 93.718 256.01C94.4073 256.01 94.994 255.834 95.478 255.482C95.9767 255.13 96.2847 254.653 96.402 254.052H97.788C97.6413 254.961 97.2087 255.717 96.49 256.318C95.7713 256.919 94.8547 257.22 93.74 257.22ZM90.858 251.896H96.358C96.358 251.588 96.27 251.221 96.094 250.796C95.9327 250.371 95.654 250.004 95.258 249.696C94.8767 249.373 94.3487 249.212 93.674 249.212C93.058 249.212 92.552 249.344 92.156 249.608C91.76 249.872 91.4593 250.209 91.254 250.62C91.0487 251.031 90.9167 251.456 90.858 251.896ZM99.5958 257V248.046H100.806L100.894 250.268H100.938C100.967 250.165 101.033 249.997 101.136 249.762C101.238 249.513 101.4 249.256 101.62 248.992C101.84 248.728 102.126 248.508 102.478 248.332C102.83 248.141 103.277 248.046 103.82 248.046C104.641 248.046 105.242 248.273 105.624 248.728C106.02 249.183 106.284 249.696 106.416 250.268H106.46C106.504 250.165 106.584 249.997 106.702 249.762C106.819 249.513 106.995 249.256 107.23 248.992C107.464 248.728 107.765 248.508 108.132 248.332C108.513 248.141 108.975 248.046 109.518 248.046C110.09 248.046 110.559 248.163 110.926 248.398C111.292 248.618 111.571 248.919 111.762 249.3C111.967 249.667 112.114 250.055 112.202 250.466C112.29 250.877 112.341 251.273 112.356 251.654C112.37 252.035 112.378 252.343 112.378 252.578V257H111.146V252.578C111.146 252.343 111.131 252.043 111.102 251.676C111.072 251.309 110.999 250.95 110.882 250.598C110.764 250.231 110.559 249.931 110.266 249.696C109.987 249.447 109.584 249.322 109.056 249.322C108.469 249.322 108 249.483 107.648 249.806C107.296 250.129 107.039 250.554 106.878 251.082C106.716 251.595 106.636 252.153 106.636 252.754V257H105.404V252.578C105.404 252.343 105.389 252.043 105.36 251.676C105.33 251.309 105.257 250.95 105.14 250.598C105.022 250.231 104.817 249.931 104.524 249.696C104.245 249.447 103.842 249.322 103.314 249.322C102.727 249.322 102.258 249.483 101.906 249.806C101.554 250.129 101.297 250.554 101.136 251.082C100.974 251.595 100.894 252.153 100.894 252.754V257H99.5958ZM120.462 247.078C120.139 247.078 119.919 246.997 119.802 246.836C119.699 246.66 119.648 246.44 119.648 246.176C119.648 245.956 119.699 245.765 119.802 245.604C119.919 245.428 120.139 245.34 120.462 245.34C120.785 245.34 120.997 245.428 121.1 245.604C121.217 245.765 121.276 245.956 121.276 246.176C121.276 246.44 121.217 246.66 121.1 246.836C120.997 246.997 120.785 247.078 120.462 247.078ZM119.758 257V248.046H121.166V257H119.758ZM128.223 257.22C127.651 257.22 127.159 257.125 126.749 256.934C126.353 256.729 126.03 256.494 125.781 256.23C125.531 255.966 125.341 255.717 125.209 255.482C125.091 255.247 125.018 255.093 124.989 255.02H124.945V260.696H123.493V248.046H124.703L124.945 250.29H124.989C125.018 250.217 125.091 250.063 125.209 249.828C125.326 249.593 125.502 249.337 125.737 249.058C125.986 248.779 126.309 248.545 126.705 248.354C127.115 248.149 127.621 248.046 128.223 248.046C129.088 248.046 129.807 248.244 130.379 248.64C130.965 249.036 131.405 249.586 131.699 250.29C132.007 250.979 132.161 251.771 132.161 252.666C132.161 254.001 131.823 255.093 131.149 255.944C130.474 256.795 129.499 257.22 128.223 257.22ZM127.937 255.966C128.626 255.966 129.176 255.805 129.587 255.482C130.012 255.159 130.313 254.749 130.489 254.25C130.679 253.737 130.775 253.201 130.775 252.644C130.775 252.072 130.672 251.537 130.467 251.038C130.261 250.539 129.939 250.136 129.499 249.828C129.073 249.505 128.509 249.344 127.805 249.344C126.954 249.344 126.272 249.645 125.759 250.246C125.245 250.833 124.989 251.632 124.989 252.644C124.989 253.671 125.26 254.485 125.803 255.086C126.345 255.673 127.057 255.966 127.937 255.966ZM137.234 257.22C136.383 257.22 135.679 257.044 135.122 256.692C134.579 256.325 134.169 255.9 133.89 255.416C133.626 254.932 133.494 254.499 133.494 254.118H134.858C134.858 254.133 134.865 254.243 134.88 254.448C134.909 254.653 134.99 254.888 135.122 255.152C135.254 255.416 135.481 255.651 135.804 255.856C136.127 256.047 136.596 256.142 137.212 256.142C137.872 256.142 138.437 256.025 138.906 255.79C139.39 255.555 139.625 255.189 139.61 254.69C139.61 254.265 139.463 253.942 139.17 253.722C138.891 253.487 138.525 253.311 138.07 253.194C137.615 253.062 137.139 252.937 136.64 252.82C136.141 252.703 135.665 252.556 135.21 252.38C134.77 252.189 134.411 251.925 134.132 251.588C133.853 251.251 133.714 250.781 133.714 250.18C133.714 249.447 134.044 248.867 134.704 248.442C135.364 248.002 136.207 247.782 137.234 247.782C137.806 247.782 138.385 247.877 138.972 248.068C139.559 248.244 140.043 248.559 140.424 249.014C140.805 249.454 140.981 250.077 140.952 250.884H139.632C139.661 250.327 139.537 249.909 139.258 249.63C138.979 249.351 138.642 249.168 138.246 249.08C137.865 248.977 137.513 248.926 137.19 248.926C136.559 248.926 136.039 249.043 135.628 249.278C135.232 249.513 135.034 249.843 135.034 250.268C135.034 250.679 135.173 250.994 135.452 251.214C135.745 251.419 136.112 251.588 136.552 251.72C137.007 251.837 137.483 251.955 137.982 252.072C138.495 252.175 138.979 252.321 139.434 252.512C139.889 252.703 140.255 252.974 140.534 253.326C140.827 253.678 140.974 254.162 140.974 254.778C140.974 255.629 140.615 256.252 139.896 256.648C139.177 257.029 138.29 257.22 137.234 257.22ZM145.844 257.22C145.11 257.22 144.516 257.088 144.062 256.824C143.622 256.56 143.284 256.208 143.05 255.768C142.815 255.313 142.654 254.822 142.566 254.294C142.492 253.751 142.456 253.209 142.456 252.666V248.046H143.864V252.688C143.864 253.275 143.922 253.817 144.04 254.316C144.157 254.815 144.392 255.211 144.744 255.504C145.11 255.797 145.638 255.944 146.328 255.944C146.988 255.944 147.501 255.797 147.868 255.504C148.249 255.196 148.528 254.8 148.704 254.316C148.88 253.832 148.982 253.326 149.012 252.798V248.046H150.464V257H149.254L149.012 254.998H148.968C148.894 255.247 148.74 255.548 148.506 255.9C148.271 256.252 147.934 256.56 147.494 256.824C147.068 257.088 146.518 257.22 145.844 257.22ZM152.318 257V248.046H153.528L153.616 250.268H153.66C153.69 250.165 153.756 249.997 153.858 249.762C153.961 249.513 154.122 249.256 154.342 248.992C154.562 248.728 154.848 248.508 155.2 248.332C155.552 248.141 156 248.046 156.542 248.046C157.364 248.046 157.965 248.273 158.346 248.728C158.742 249.183 159.006 249.696 159.138 250.268H159.182C159.226 250.165 159.307 249.997 159.424 249.762C159.542 249.513 159.718 249.256 159.952 248.992C160.187 248.728 160.488 248.508 160.854 248.332C161.236 248.141 161.698 248.046 162.24 248.046C162.812 248.046 163.282 248.163 163.648 248.398C164.015 248.618 164.294 248.919 164.484 249.3C164.69 249.667 164.836 250.055 164.924 250.466C165.012 250.877 165.064 251.273 165.078 251.654C165.093 252.035 165.1 252.343 165.1 252.578V257H163.868V252.578C163.868 252.343 163.854 252.043 163.824 251.676C163.795 251.309 163.722 250.95 163.604 250.598C163.487 250.231 163.282 249.931 162.988 249.696C162.71 249.447 162.306 249.322 161.778 249.322C161.192 249.322 160.722 249.483 160.37 249.806C160.018 250.129 159.762 250.554 159.6 251.082C159.439 251.595 159.358 252.153 159.358 252.754V257H158.126V252.578C158.126 252.343 158.112 252.043 158.082 251.676C158.053 251.309 157.98 250.95 157.862 250.598C157.745 250.231 157.54 249.931 157.246 249.696C156.968 249.447 156.564 249.322 156.036 249.322C155.45 249.322 154.98 249.483 154.628 249.806C154.276 250.129 154.02 250.554 153.858 251.082C153.697 251.595 153.616 252.153 153.616 252.754V257H152.318ZM176.133 257.22C175.267 257.22 174.541 257.022 173.955 256.626C173.383 256.23 172.95 255.687 172.657 254.998C172.378 254.294 172.239 253.509 172.239 252.644C172.239 251.309 172.569 250.209 173.229 249.344C173.889 248.479 174.864 248.046 176.155 248.046C176.756 248.046 177.255 248.149 177.651 248.354C178.061 248.545 178.391 248.779 178.641 249.058C178.89 249.337 179.073 249.593 179.191 249.828C179.308 250.063 179.381 250.217 179.411 250.29H179.455L179.477 244.614H180.929V257H179.697L179.477 255.02H179.433C179.403 255.093 179.323 255.247 179.191 255.482C179.059 255.717 178.861 255.966 178.597 256.23C178.347 256.494 178.017 256.729 177.607 256.934C177.211 257.125 176.719 257.22 176.133 257.22ZM176.485 255.966C177.35 255.966 178.054 255.673 178.597 255.086C179.154 254.485 179.433 253.671 179.433 252.644C179.433 251.632 179.176 250.833 178.663 250.246C178.149 249.645 177.46 249.344 176.595 249.344C175.905 249.344 175.341 249.505 174.901 249.828C174.461 250.136 174.138 250.539 173.933 251.038C173.727 251.537 173.625 252.072 173.625 252.644C173.625 253.201 173.72 253.737 173.911 254.25C174.101 254.749 174.402 255.159 174.813 255.482C175.223 255.805 175.781 255.966 176.485 255.966ZM186.831 257.22C185.394 257.22 184.316 256.795 183.597 255.944C182.893 255.079 182.541 253.979 182.541 252.644C182.527 251.295 182.879 250.195 183.597 249.344C184.331 248.479 185.409 248.039 186.831 248.024C188.239 248.024 189.303 248.449 190.021 249.3C190.755 250.136 191.121 251.251 191.121 252.644C191.121 253.509 190.967 254.287 190.659 254.976C190.351 255.665 189.882 256.215 189.251 256.626C188.621 257.022 187.814 257.22 186.831 257.22ZM186.831 255.988C187.594 255.988 188.181 255.819 188.591 255.482C189.017 255.145 189.31 254.719 189.471 254.206C189.647 253.678 189.735 253.143 189.735 252.6C189.735 252.057 189.647 251.522 189.471 250.994C189.31 250.466 189.017 250.033 188.591 249.696C188.181 249.359 187.594 249.19 186.831 249.19C186.069 249.19 185.475 249.359 185.049 249.696C184.639 250.033 184.345 250.466 184.169 250.994C184.008 251.522 183.927 252.057 183.927 252.6C183.927 253.143 184.008 253.678 184.169 254.206C184.345 254.719 184.639 255.145 185.049 255.482C185.475 255.819 186.069 255.988 186.831 255.988ZM193.146 257V244.614H194.532V257H193.146ZM200.56 257.22C199.122 257.22 198.044 256.795 197.326 255.944C196.622 255.079 196.27 253.979 196.27 252.644C196.255 251.295 196.607 250.195 197.326 249.344C198.059 248.479 199.137 248.039 200.56 248.024C201.968 248.024 203.031 248.449 203.75 249.3C204.483 250.136 204.85 251.251 204.85 252.644C204.85 253.509 204.696 254.287 204.388 254.976C204.08 255.665 203.61 256.215 202.98 256.626C202.349 257.022 201.542 257.22 200.56 257.22ZM200.56 255.988C201.322 255.988 201.909 255.819 202.32 255.482C202.745 255.145 203.038 254.719 203.2 254.206C203.376 253.678 203.464 253.143 203.464 252.6C203.464 252.057 203.376 251.522 203.2 250.994C203.038 250.466 202.745 250.033 202.32 249.696C201.909 249.359 201.322 249.19 200.56 249.19C199.797 249.19 199.203 249.359 198.778 249.696C198.367 250.033 198.074 250.466 197.898 250.994C197.736 251.522 197.656 252.057 197.656 252.6C197.656 253.143 197.736 253.678 197.898 254.206C198.074 254.719 198.367 255.145 198.778 255.482C199.203 255.819 199.797 255.988 200.56 255.988ZM206.786 257V248.046H208.062L208.216 250.4C208.304 250.004 208.48 249.623 208.744 249.256C209.008 248.889 209.368 248.596 209.822 248.376C210.292 248.141 210.871 248.031 211.56 248.046H211.978V249.608H211.538C210.6 249.608 209.888 249.747 209.404 250.026C208.935 250.29 208.612 250.664 208.436 251.148C208.275 251.632 208.194 252.189 208.194 252.82V257H206.786ZM221.99 257.22C221.139 257.22 220.435 257.044 219.878 256.692C219.335 256.325 218.925 255.9 218.646 255.416C218.382 254.932 218.25 254.499 218.25 254.118H219.614C219.614 254.133 219.621 254.243 219.636 254.448C219.665 254.653 219.746 254.888 219.878 255.152C220.01 255.416 220.237 255.651 220.56 255.856C220.883 256.047 221.352 256.142 221.968 256.142C222.628 256.142 223.193 256.025 223.662 255.79C224.146 255.555 224.381 255.189 224.366 254.69C224.366 254.265 224.219 253.942 223.926 253.722C223.647 253.487 223.281 253.311 222.826 253.194C222.371 253.062 221.895 252.937 221.396 252.82C220.897 252.703 220.421 252.556 219.966 252.38C219.526 252.189 219.167 251.925 218.888 251.588C218.609 251.251 218.47 250.781 218.47 250.18C218.47 249.447 218.8 248.867 219.46 248.442C220.12 248.002 220.963 247.782 221.99 247.782C222.562 247.782 223.141 247.877 223.728 248.068C224.315 248.244 224.799 248.559 225.18 249.014C225.561 249.454 225.737 250.077 225.708 250.884H224.388C224.417 250.327 224.293 249.909 224.014 249.63C223.735 249.351 223.398 249.168 223.002 249.08C222.621 248.977 222.269 248.926 221.946 248.926C221.315 248.926 220.795 249.043 220.384 249.278C219.988 249.513 219.79 249.843 219.79 250.268C219.79 250.679 219.929 250.994 220.208 251.214C220.501 251.419 220.868 251.588 221.308 251.72C221.763 251.837 222.239 251.955 222.738 252.072C223.251 252.175 223.735 252.321 224.19 252.512C224.645 252.703 225.011 252.974 225.29 253.326C225.583 253.678 225.73 254.162 225.73 254.778C225.73 255.629 225.371 256.252 224.652 256.648C223.933 257.029 223.046 257.22 221.99 257.22ZM228.399 247.078C228.077 247.078 227.857 246.997 227.739 246.836C227.637 246.66 227.585 246.44 227.585 246.176C227.585 245.956 227.637 245.765 227.739 245.604C227.857 245.428 228.077 245.34 228.399 245.34C228.722 245.34 228.935 245.428 229.037 245.604C229.155 245.765 229.213 245.956 229.213 246.176C229.213 246.44 229.155 246.66 229.037 246.836C228.935 246.997 228.722 247.078 228.399 247.078ZM227.695 257V248.046H229.103V257H227.695ZM233.625 257C233.082 257 232.701 256.853 232.481 256.56C232.276 256.267 232.173 255.863 232.173 255.35V249.102H230.765V248.046C231.234 248.046 231.579 248.009 231.799 247.936C232.034 247.848 232.18 247.643 232.239 247.32C232.298 246.997 232.327 246.469 232.327 245.736H233.537V248.046H235.605V249.102H233.537V255.856H235.627V257H233.625ZM245.828 257.198C245.006 257.198 244.332 257 243.804 256.604C243.276 256.193 242.88 255.643 242.616 254.954C242.366 254.265 242.242 253.48 242.242 252.6C242.242 251.251 242.535 250.143 243.122 249.278C243.723 248.398 244.625 247.958 245.828 247.958C246.444 247.958 246.957 248.068 247.368 248.288C247.793 248.493 248.13 248.75 248.38 249.058C248.644 249.366 248.834 249.659 248.952 249.938H248.974V248.046H250.426V257H249.216L248.996 255.262H248.952C248.82 255.555 248.629 255.856 248.38 256.164C248.13 256.457 247.793 256.707 247.368 256.912C246.957 257.103 246.444 257.198 245.828 257.198ZM246.378 255.944C247.287 255.944 247.94 255.643 248.336 255.042C248.746 254.441 248.952 253.634 248.952 252.622C248.952 251.537 248.739 250.708 248.314 250.136C247.903 249.564 247.258 249.278 246.378 249.278C245.41 249.278 244.713 249.601 244.288 250.246C243.877 250.877 243.672 251.661 243.672 252.6C243.672 253.583 243.884 254.389 244.31 255.02C244.735 255.636 245.424 255.944 246.378 255.944ZM252.07 257V248.046H253.28L253.368 250.268H253.412C253.442 250.165 253.508 249.997 253.61 249.762C253.713 249.513 253.874 249.256 254.094 248.992C254.314 248.728 254.6 248.508 254.952 248.332C255.304 248.141 255.752 248.046 256.294 248.046C257.116 248.046 257.717 248.273 258.098 248.728C258.494 249.183 258.758 249.696 258.89 250.268H258.934C258.978 250.165 259.059 249.997 259.176 249.762C259.294 249.513 259.47 249.256 259.704 248.992C259.939 248.728 260.24 248.508 260.606 248.332C260.988 248.141 261.45 248.046 261.992 248.046C262.564 248.046 263.034 248.163 263.4 248.398C263.767 248.618 264.046 248.919 264.236 249.3C264.442 249.667 264.588 250.055 264.676 250.466C264.764 250.877 264.816 251.273 264.83 251.654C264.845 252.035 264.852 252.343 264.852 252.578V257H263.62V252.578C263.62 252.343 263.606 252.043 263.576 251.676C263.547 251.309 263.474 250.95 263.356 250.598C263.239 250.231 263.034 249.931 262.74 249.696C262.462 249.447 262.058 249.322 261.53 249.322C260.944 249.322 260.474 249.483 260.122 249.806C259.77 250.129 259.514 250.554 259.352 251.082C259.191 251.595 259.11 252.153 259.11 252.754V257H257.878V252.578C257.878 252.343 257.864 252.043 257.834 251.676C257.805 251.309 257.732 250.95 257.614 250.598C257.497 250.231 257.292 249.931 256.998 249.696C256.72 249.447 256.316 249.322 255.788 249.322C255.202 249.322 254.732 249.483 254.38 249.806C254.028 250.129 253.772 250.554 253.61 251.082C253.449 251.595 253.368 252.153 253.368 252.754V257H252.07ZM270.664 257.22C269.681 257.22 268.867 257 268.222 256.56C267.591 256.105 267.122 255.526 266.814 254.822C266.52 254.103 266.374 253.363 266.374 252.6C266.374 251.764 266.535 251.001 266.858 250.312C267.195 249.608 267.679 249.051 268.31 248.64C268.955 248.229 269.725 248.024 270.62 248.024C271.764 248.024 272.717 248.398 273.48 249.146C274.242 249.879 274.653 250.869 274.712 252.116C274.726 252.175 274.734 252.263 274.734 252.38C274.734 252.483 274.734 252.578 274.734 252.666H267.738C267.738 253.707 267.987 254.529 268.486 255.13C268.999 255.717 269.718 256.01 270.642 256.01C271.331 256.01 271.918 255.834 272.402 255.482C272.9 255.13 273.208 254.653 273.326 254.052H274.712C274.565 254.961 274.132 255.717 273.414 256.318C272.695 256.919 271.778 257.22 270.664 257.22ZM267.782 251.896H273.282C273.282 251.588 273.194 251.221 273.018 250.796C272.856 250.371 272.578 250.004 272.182 249.696C271.8 249.373 271.272 249.212 270.598 249.212C269.982 249.212 269.476 249.344 269.08 249.608C268.684 249.872 268.383 250.209 268.178 250.62C267.972 251.031 267.84 251.456 267.782 251.896ZM278.764 257C278.221 257 277.84 256.853 277.62 256.56C277.414 256.267 277.312 255.863 277.312 255.35V249.102H275.904V248.046C276.373 248.046 276.718 248.009 276.938 247.936C277.172 247.848 277.319 247.643 277.378 247.32C277.436 246.997 277.466 246.469 277.466 245.736H278.676V248.046H280.744V249.102H278.676V255.856H280.766V257H278.764ZM282.864 258.936V257.88H283.26C283.612 257.88 283.832 257.799 283.92 257.638C284.022 257.477 284.074 257.271 284.074 257.022C283.678 257.051 283.392 256.978 283.216 256.802C283.04 256.626 282.952 256.377 282.952 256.054C282.952 255.79 283.018 255.57 283.15 255.394C283.282 255.218 283.524 255.13 283.876 255.13C284.184 255.13 284.411 255.225 284.558 255.416C284.704 255.592 284.778 255.922 284.778 256.406C284.778 257.154 284.668 257.763 284.448 258.232C284.228 258.701 283.846 258.936 283.304 258.936H282.864ZM66.95 287.22C66.114 287.22 65.366 287.044 64.706 286.692C64.046 286.34 63.5253 285.827 63.144 285.152C62.7627 284.477 62.572 283.663 62.572 282.71C62.6013 281.771 62.7993 280.95 63.166 280.246C63.5473 279.542 64.068 278.999 64.728 278.618C65.388 278.222 66.1433 278.024 66.994 278.024C67.786 278.024 68.4753 278.171 69.062 278.464C69.6487 278.757 70.118 279.153 70.47 279.652C70.822 280.151 71.042 280.701 71.13 281.302H69.832C69.6853 280.657 69.3627 280.158 68.864 279.806C68.38 279.454 67.7713 279.278 67.038 279.278C66.0993 279.278 65.3513 279.593 64.794 280.224C64.2513 280.84 63.9727 281.647 63.958 282.644C63.958 283.656 64.222 284.463 64.75 285.064C65.2927 285.651 66.048 285.944 67.016 285.944C67.72 285.944 68.3287 285.768 68.842 285.416C69.3553 285.064 69.6853 284.558 69.832 283.898H71.13C71.042 284.514 70.8147 285.071 70.448 285.57C70.096 286.069 69.6193 286.472 69.018 286.78C68.4313 287.073 67.742 287.22 66.95 287.22ZM76.8313 287.22C75.3939 287.22 74.3159 286.795 73.5973 285.944C72.8933 285.079 72.5413 283.979 72.5413 282.644C72.5266 281.295 72.8786 280.195 73.5973 279.344C74.3306 278.479 75.4086 278.039 76.8313 278.024C78.2393 278.024 79.3026 278.449 80.0213 279.3C80.7546 280.136 81.1213 281.251 81.1213 282.644C81.1213 283.509 80.9673 284.287 80.6593 284.976C80.3513 285.665 79.8819 286.215 79.2513 286.626C78.6206 287.022 77.8139 287.22 76.8313 287.22ZM76.8313 285.988C77.5939 285.988 78.1806 285.819 78.5913 285.482C79.0166 285.145 79.3099 284.719 79.4713 284.206C79.6473 283.678 79.7353 283.143 79.7353 282.6C79.7353 282.057 79.6473 281.522 79.4713 280.994C79.3099 280.466 79.0166 280.033 78.5913 279.696C78.1806 279.359 77.5939 279.19 76.8313 279.19C76.0686 279.19 75.4746 279.359 75.0493 279.696C74.6386 280.033 74.3453 280.466 74.1693 280.994C74.0079 281.522 73.9273 282.057 73.9273 282.6C73.9273 283.143 74.0079 283.678 74.1693 284.206C74.3453 284.719 74.6386 285.145 75.0493 285.482C75.4746 285.819 76.0686 285.988 76.8313 285.988ZM82.838 287V278.046H84.048L84.29 280.268H84.334C84.3486 280.195 84.4146 280.041 84.532 279.806C84.6493 279.571 84.8253 279.322 85.06 279.058C85.3093 278.779 85.632 278.545 86.028 278.354C86.424 278.149 86.93 278.046 87.546 278.046C88.3233 278.046 88.932 278.185 89.372 278.464C89.8266 278.743 90.164 279.117 90.384 279.586C90.604 280.041 90.7433 280.532 90.802 281.06C90.8606 281.588 90.89 282.094 90.89 282.578V287H89.526V282.578C89.526 281.61 89.3573 280.825 89.02 280.224C88.6973 279.623 88.052 279.322 87.084 279.322C86.424 279.322 85.8813 279.483 85.456 279.806C85.0453 280.114 84.7446 280.532 84.554 281.06C84.378 281.573 84.29 282.138 84.29 282.754V287H82.838ZM96.2203 287.22C95.3696 287.22 94.6656 287.044 94.1083 286.692C93.5656 286.325 93.155 285.9 92.8763 285.416C92.6123 284.932 92.4803 284.499 92.4803 284.118H93.8443C93.8443 284.133 93.8516 284.243 93.8663 284.448C93.8956 284.653 93.9763 284.888 94.1083 285.152C94.2403 285.416 94.4676 285.651 94.7903 285.856C95.113 286.047 95.5823 286.142 96.1983 286.142C96.8583 286.142 97.423 286.025 97.8923 285.79C98.3763 285.555 98.611 285.189 98.5963 284.69C98.5963 284.265 98.4496 283.942 98.1563 283.722C97.8776 283.487 97.511 283.311 97.0563 283.194C96.6016 283.062 96.125 282.937 95.6263 282.82C95.1276 282.703 94.651 282.556 94.1963 282.38C93.7563 282.189 93.397 281.925 93.1183 281.588C92.8396 281.251 92.7003 280.781 92.7003 280.18C92.7003 279.447 93.0303 278.867 93.6903 278.442C94.3503 278.002 95.1936 277.782 96.2203 277.782C96.7923 277.782 97.3716 277.877 97.9583 278.068C98.545 278.244 99.029 278.559 99.4103 279.014C99.7916 279.454 99.9676 280.077 99.9383 280.884H98.6183C98.6476 280.327 98.523 279.909 98.2443 279.63C97.9656 279.351 97.6283 279.168 97.2323 279.08C96.851 278.977 96.499 278.926 96.1763 278.926C95.5456 278.926 95.025 279.043 94.6143 279.278C94.2183 279.513 94.0203 279.843 94.0203 280.268C94.0203 280.679 94.1596 280.994 94.4383 281.214C94.7316 281.419 95.0983 281.588 95.5383 281.72C95.993 281.837 96.4696 281.955 96.9683 282.072C97.4816 282.175 97.9656 282.321 98.4203 282.512C98.875 282.703 99.2416 282.974 99.5203 283.326C99.8136 283.678 99.9603 284.162 99.9603 284.778C99.9603 285.629 99.601 286.252 98.8823 286.648C98.1636 287.029 97.2763 287.22 96.2203 287.22ZM105.578 287.22C104.595 287.22 103.781 287 103.136 286.56C102.505 286.105 102.036 285.526 101.728 284.822C101.435 284.103 101.288 283.363 101.288 282.6C101.288 281.764 101.449 281.001 101.772 280.312C102.109 279.608 102.593 279.051 103.224 278.64C103.869 278.229 104.639 278.024 105.534 278.024C106.678 278.024 107.631 278.398 108.394 279.146C109.157 279.879 109.567 280.869 109.626 282.116C109.641 282.175 109.648 282.263 109.648 282.38C109.648 282.483 109.648 282.578 109.648 282.666H102.652C102.652 283.707 102.901 284.529 103.4 285.13C103.913 285.717 104.632 286.01 105.556 286.01C106.245 286.01 106.832 285.834 107.316 285.482C107.815 285.13 108.123 284.653 108.24 284.052H109.626C109.479 284.961 109.047 285.717 108.328 286.318C107.609 286.919 106.693 287.22 105.578 287.22ZM102.696 281.896H108.196C108.196 281.588 108.108 281.221 107.932 280.796C107.771 280.371 107.492 280.004 107.096 279.696C106.715 279.373 106.187 279.212 105.512 279.212C104.896 279.212 104.39 279.344 103.994 279.608C103.598 279.872 103.297 280.209 103.092 280.62C102.887 281.031 102.755 281.456 102.696 281.896ZM115.548 287.22C114.712 287.22 113.964 287.044 113.304 286.692C112.644 286.34 112.123 285.827 111.742 285.152C111.36 284.477 111.17 283.663 111.17 282.71C111.199 281.771 111.397 280.95 111.764 280.246C112.145 279.542 112.666 278.999 113.326 278.618C113.986 278.222 114.741 278.024 115.592 278.024C116.384 278.024 117.073 278.171 117.66 278.464C118.246 278.757 118.716 279.153 119.068 279.652C119.42 280.151 119.64 280.701 119.728 281.302H118.43C118.283 280.657 117.96 280.158 117.462 279.806C116.978 279.454 116.369 279.278 115.636 279.278C114.697 279.278 113.949 279.593 113.392 280.224C112.849 280.84 112.57 281.647 112.556 282.644C112.556 283.656 112.82 284.463 113.348 285.064C113.89 285.651 114.646 285.944 115.614 285.944C116.318 285.944 116.926 285.768 117.44 285.416C117.953 285.064 118.283 284.558 118.43 283.898H119.728C119.64 284.514 119.412 285.071 119.046 285.57C118.694 286.069 118.217 286.472 117.616 286.78C117.029 287.073 116.34 287.22 115.548 287.22ZM123.625 287C123.082 287 122.701 286.853 122.481 286.56C122.276 286.267 122.173 285.863 122.173 285.35V279.102H120.765V278.046C121.234 278.046 121.579 278.009 121.799 277.936C122.034 277.848 122.18 277.643 122.239 277.32C122.298 276.997 122.327 276.469 122.327 275.736H123.537V278.046H125.605V279.102H123.537V285.856H125.627V287H123.625ZM131.252 287.22C130.269 287.22 129.455 287 128.81 286.56C128.179 286.105 127.71 285.526 127.402 284.822C127.108 284.103 126.962 283.363 126.962 282.6C126.962 281.764 127.123 281.001 127.446 280.312C127.783 279.608 128.267 279.051 128.898 278.64C129.543 278.229 130.313 278.024 131.208 278.024C132.352 278.024 133.305 278.398 134.068 279.146C134.83 279.879 135.241 280.869 135.3 282.116C135.314 282.175 135.322 282.263 135.322 282.38C135.322 282.483 135.322 282.578 135.322 282.666H128.326C128.326 283.707 128.575 284.529 129.074 285.13C129.587 285.717 130.306 286.01 131.23 286.01C131.919 286.01 132.506 285.834 132.99 285.482C133.488 285.13 133.796 284.653 133.914 284.052H135.3C135.153 284.961 134.72 285.717 134.002 286.318C133.283 286.919 132.366 287.22 131.252 287.22ZM128.37 281.896H133.87C133.87 281.588 133.782 281.221 133.606 280.796C133.444 280.371 133.166 280.004 132.77 279.696C132.388 279.373 131.86 279.212 131.186 279.212C130.57 279.212 130.064 279.344 129.668 279.608C129.272 279.872 128.971 280.209 128.766 280.62C128.56 281.031 128.428 281.456 128.37 281.896ZM139.351 287C138.809 287 138.427 286.853 138.207 286.56C138.002 286.267 137.899 285.863 137.899 285.35V279.102H136.491V278.046C136.961 278.046 137.305 278.009 137.525 277.936C137.76 277.848 137.907 277.643 137.965 277.32C138.024 276.997 138.053 276.469 138.053 275.736H139.263V278.046H141.331V279.102H139.263V285.856H141.353V287H139.351ZM146.51 287.22C145.776 287.22 145.182 287.088 144.728 286.824C144.288 286.56 143.95 286.208 143.716 285.768C143.481 285.313 143.32 284.822 143.232 284.294C143.158 283.751 143.122 283.209 143.122 282.666V278.046H144.53V282.688C144.53 283.275 144.588 283.817 144.706 284.316C144.823 284.815 145.058 285.211 145.41 285.504C145.776 285.797 146.304 285.944 146.994 285.944C147.654 285.944 148.167 285.797 148.534 285.504C148.915 285.196 149.194 284.8 149.37 284.316C149.546 283.832 149.648 283.326 149.678 282.798V278.046H151.13V287H149.92L149.678 284.998H149.634C149.56 285.247 149.406 285.548 149.172 285.9C148.937 286.252 148.6 286.56 148.16 286.824C147.734 287.088 147.184 287.22 146.51 287.22ZM153.204 287V278.046H154.48L154.634 280.4C154.722 280.004 154.898 279.623 155.162 279.256C155.426 278.889 155.786 278.596 156.24 278.376C156.71 278.141 157.289 278.031 157.978 278.046H158.396V279.608H157.956C157.018 279.608 156.306 279.747 155.822 280.026C155.353 280.29 155.03 280.664 154.854 281.148C154.693 281.632 154.612 282.189 154.612 282.82V287H153.204ZM167.99 287.198C167.168 287.198 166.494 287 165.966 286.604C165.438 286.193 165.042 285.643 164.778 284.954C164.528 284.265 164.404 283.48 164.404 282.6C164.404 281.251 164.697 280.143 165.284 279.278C165.885 278.398 166.787 277.958 167.99 277.958C168.606 277.958 169.119 278.068 169.53 278.288C169.955 278.493 170.292 278.75 170.542 279.058C170.806 279.366 170.996 279.659 171.114 279.938H171.136V278.046H172.588V287H171.378L171.158 285.262H171.114C170.982 285.555 170.791 285.856 170.542 286.164C170.292 286.457 169.955 286.707 169.53 286.912C169.119 287.103 168.606 287.198 167.99 287.198ZM168.54 285.944C169.449 285.944 170.102 285.643 170.498 285.042C170.908 284.441 171.114 283.634 171.114 282.622C171.114 281.537 170.901 280.708 170.476 280.136C170.065 279.564 169.42 279.278 168.54 279.278C167.572 279.278 166.875 279.601 166.45 280.246C166.039 280.877 165.834 281.661 165.834 282.6C165.834 283.583 166.046 284.389 166.472 285.02C166.897 285.636 167.586 285.944 168.54 285.944ZM178.302 287.22C177.437 287.22 176.711 287.022 176.124 286.626C175.552 286.23 175.12 285.687 174.826 284.998C174.548 284.294 174.408 283.509 174.408 282.644C174.408 281.309 174.738 280.209 175.398 279.344C176.058 278.479 177.034 278.046 178.324 278.046C178.926 278.046 179.424 278.149 179.82 278.354C180.231 278.545 180.561 278.779 180.81 279.058C181.06 279.337 181.243 279.593 181.36 279.828C181.478 280.063 181.551 280.217 181.58 280.29H181.624L181.646 274.614H183.098V287H181.866L181.646 285.02H181.602C181.573 285.093 181.492 285.247 181.36 285.482C181.228 285.717 181.03 285.966 180.766 286.23C180.517 286.494 180.187 286.729 179.776 286.934C179.38 287.125 178.889 287.22 178.302 287.22ZM178.654 285.966C179.52 285.966 180.224 285.673 180.766 285.086C181.324 284.485 181.602 283.671 181.602 282.644C181.602 281.632 181.346 280.833 180.832 280.246C180.319 279.645 179.63 279.344 178.764 279.344C178.075 279.344 177.51 279.505 177.07 279.828C176.63 280.136 176.308 280.539 176.102 281.038C175.897 281.537 175.794 282.072 175.794 282.644C175.794 283.201 175.89 283.737 176.08 284.25C176.271 284.749 176.572 285.159 176.982 285.482C177.393 285.805 177.95 285.966 178.654 285.966ZM186.075 277.078C185.753 277.078 185.533 276.997 185.415 276.836C185.313 276.66 185.261 276.44 185.261 276.176C185.261 275.956 185.313 275.765 185.415 275.604C185.533 275.428 185.753 275.34 186.075 275.34C186.398 275.34 186.611 275.428 186.713 275.604C186.831 275.765 186.889 275.956 186.889 276.176C186.889 276.44 186.831 276.66 186.713 276.836C186.611 276.997 186.398 277.078 186.075 277.078ZM185.371 287V278.046H186.779V287H185.371ZM193.836 287.22C193.264 287.22 192.773 287.125 192.362 286.934C191.966 286.729 191.643 286.494 191.394 286.23C191.145 285.966 190.954 285.717 190.822 285.482C190.705 285.247 190.631 285.093 190.602 285.02H190.558V290.696H189.106V278.046H190.316L190.558 280.29H190.602C190.631 280.217 190.705 280.063 190.822 279.828C190.939 279.593 191.115 279.337 191.35 279.058C191.599 278.779 191.922 278.545 192.318 278.354C192.729 278.149 193.235 278.046 193.836 278.046C194.701 278.046 195.42 278.244 195.992 278.64C196.579 279.036 197.019 279.586 197.312 280.29C197.62 280.979 197.774 281.771 197.774 282.666C197.774 284.001 197.437 285.093 196.762 285.944C196.087 286.795 195.112 287.22 193.836 287.22ZM193.55 285.966C194.239 285.966 194.789 285.805 195.2 285.482C195.625 285.159 195.926 284.749 196.102 284.25C196.293 283.737 196.388 283.201 196.388 282.644C196.388 282.072 196.285 281.537 196.08 281.038C195.875 280.539 195.552 280.136 195.112 279.828C194.687 279.505 194.122 279.344 193.418 279.344C192.567 279.344 191.885 279.645 191.372 280.246C190.859 280.833 190.602 281.632 190.602 282.644C190.602 283.671 190.873 284.485 191.416 285.086C191.959 285.673 192.67 285.966 193.55 285.966ZM200.405 277.078C200.083 277.078 199.863 276.997 199.745 276.836C199.643 276.66 199.591 276.44 199.591 276.176C199.591 275.956 199.643 275.765 199.745 275.604C199.863 275.428 200.083 275.34 200.405 275.34C200.728 275.34 200.941 275.428 201.043 275.604C201.161 275.765 201.219 275.956 201.219 276.176C201.219 276.44 201.161 276.66 201.043 276.836C200.941 276.997 200.728 277.078 200.405 277.078ZM199.701 287V278.046H201.109V287H199.701ZM206.736 287.22C205.885 287.22 205.181 287.044 204.624 286.692C204.081 286.325 203.671 285.9 203.392 285.416C203.128 284.932 202.996 284.499 202.996 284.118H204.36C204.36 284.133 204.367 284.243 204.382 284.448C204.411 284.653 204.492 284.888 204.624 285.152C204.756 285.416 204.983 285.651 205.306 285.856C205.629 286.047 206.098 286.142 206.714 286.142C207.374 286.142 207.939 286.025 208.408 285.79C208.892 285.555 209.127 285.189 209.112 284.69C209.112 284.265 208.965 283.942 208.672 283.722C208.393 283.487 208.027 283.311 207.572 283.194C207.117 283.062 206.641 282.937 206.142 282.82C205.643 282.703 205.167 282.556 204.712 282.38C204.272 282.189 203.913 281.925 203.634 281.588C203.355 281.251 203.216 280.781 203.216 280.18C203.216 279.447 203.546 278.867 204.206 278.442C204.866 278.002 205.709 277.782 206.736 277.782C207.308 277.782 207.887 277.877 208.474 278.068C209.061 278.244 209.545 278.559 209.926 279.014C210.307 279.454 210.483 280.077 210.454 280.884H209.134C209.163 280.327 209.039 279.909 208.76 279.63C208.481 279.351 208.144 279.168 207.748 279.08C207.367 278.977 207.015 278.926 206.692 278.926C206.061 278.926 205.541 279.043 205.13 279.278C204.734 279.513 204.536 279.843 204.536 280.268C204.536 280.679 204.675 280.994 204.954 281.214C205.247 281.419 205.614 281.588 206.054 281.72C206.509 281.837 206.985 281.955 207.484 282.072C207.997 282.175 208.481 282.321 208.936 282.512C209.391 282.703 209.757 282.974 210.036 283.326C210.329 283.678 210.476 284.162 210.476 284.778C210.476 285.629 210.117 286.252 209.398 286.648C208.679 287.029 207.792 287.22 206.736 287.22ZM216.138 287.22C215.302 287.22 214.554 287.044 213.894 286.692C213.234 286.34 212.713 285.827 212.332 285.152C211.95 284.477 211.76 283.663 211.76 282.71C211.789 281.771 211.987 280.95 212.354 280.246C212.735 279.542 213.256 278.999 213.916 278.618C214.576 278.222 215.331 278.024 216.182 278.024C216.974 278.024 217.663 278.171 218.25 278.464C218.836 278.757 219.306 279.153 219.658 279.652C220.01 280.151 220.23 280.701 220.318 281.302H219.02C218.873 280.657 218.55 280.158 218.052 279.806C217.568 279.454 216.959 279.278 216.226 279.278C215.287 279.278 214.539 279.593 213.982 280.224C213.439 280.84 213.16 281.647 213.146 282.644C213.146 283.656 213.41 284.463 213.938 285.064C214.48 285.651 215.236 285.944 216.204 285.944C216.908 285.944 217.516 285.768 218.03 285.416C218.543 285.064 218.873 284.558 219.02 283.898H220.318C220.23 284.514 220.002 285.071 219.636 285.57C219.284 286.069 218.807 286.472 218.206 286.78C217.619 287.073 216.93 287.22 216.138 287.22ZM223.093 277.078C222.77 277.078 222.55 276.997 222.433 276.836C222.33 276.66 222.279 276.44 222.279 276.176C222.279 275.956 222.33 275.765 222.433 275.604C222.55 275.428 222.77 275.34 223.093 275.34C223.415 275.34 223.628 275.428 223.731 275.604C223.848 275.765 223.907 275.956 223.907 276.176C223.907 276.44 223.848 276.66 223.731 276.836C223.628 276.997 223.415 277.078 223.093 277.078ZM222.389 287V278.046H223.797V287H222.389ZM225.859 287V278.046H227.069L227.311 280.268H227.355C227.37 280.195 227.436 280.041 227.553 279.806C227.671 279.571 227.847 279.322 228.081 279.058C228.331 278.779 228.653 278.545 229.049 278.354C229.445 278.149 229.951 278.046 230.567 278.046C231.345 278.046 231.953 278.185 232.393 278.464C232.848 278.743 233.185 279.117 233.405 279.586C233.625 280.041 233.765 280.532 233.823 281.06C233.882 281.588 233.911 282.094 233.911 282.578V287H232.547V282.578C232.547 281.61 232.379 280.825 232.041 280.224C231.719 279.623 231.073 279.322 230.105 279.322C229.445 279.322 228.903 279.483 228.477 279.806C228.067 280.114 227.766 280.532 227.575 281.06C227.399 281.573 227.311 282.138 227.311 282.754V287H225.859ZM237.878 290.696V289.354H242.344V285.02H242.3C242.27 285.093 242.19 285.247 242.058 285.482C241.94 285.717 241.75 285.966 241.486 286.23C241.236 286.494 240.906 286.729 240.496 286.934C240.1 287.125 239.616 287.22 239.044 287.22C238.178 287.22 237.452 287.022 236.866 286.626C236.294 286.215 235.861 285.665 235.568 284.976C235.274 284.287 235.128 283.509 235.128 282.644C235.128 281.295 235.458 280.195 236.118 279.344C236.792 278.479 237.775 278.046 239.066 278.046C239.667 278.046 240.166 278.149 240.562 278.354C240.972 278.545 241.295 278.779 241.53 279.058C241.779 279.337 241.962 279.593 242.08 279.828C242.197 280.063 242.27 280.217 242.3 280.29H242.344V278.046H243.796V288.54C243.796 289.244 243.664 289.779 243.4 290.146C243.136 290.513 242.659 290.696 241.97 290.696H237.878ZM239.352 285.966C240.232 285.966 240.943 285.673 241.486 285.086C242.028 284.485 242.3 283.671 242.3 282.644C242.3 281.632 242.043 280.833 241.53 280.246C241.016 279.645 240.334 279.344 239.484 279.344C238.78 279.344 238.208 279.505 237.768 279.828C237.342 280.136 237.027 280.539 236.822 281.038C236.616 281.537 236.514 282.072 236.514 282.644C236.514 283.201 236.602 283.737 236.778 284.25C236.968 284.749 237.269 285.159 237.68 285.482C238.105 285.805 238.662 285.966 239.352 285.966ZM254.959 287.22C253.976 287.22 253.162 287 252.517 286.56C251.886 286.105 251.417 285.526 251.109 284.822C250.815 284.103 250.669 283.363 250.669 282.6C250.669 281.764 250.83 281.001 251.153 280.312C251.49 279.608 251.974 279.051 252.605 278.64C253.25 278.229 254.02 278.024 254.915 278.024C256.059 278.024 257.012 278.398 257.775 279.146C258.537 279.879 258.948 280.869 259.007 282.116C259.021 282.175 259.029 282.263 259.029 282.38C259.029 282.483 259.029 282.578 259.029 282.666H252.033C252.033 283.707 252.282 284.529 252.781 285.13C253.294 285.717 254.013 286.01 254.937 286.01C255.626 286.01 256.213 285.834 256.697 285.482C257.195 285.13 257.503 284.653 257.621 284.052H259.007C258.86 284.961 258.427 285.717 257.709 286.318C256.99 286.919 256.073 287.22 254.959 287.22ZM252.077 281.896H257.577C257.577 281.588 257.489 281.221 257.313 280.796C257.151 280.371 256.873 280.004 256.477 279.696C256.095 279.373 255.567 279.212 254.893 279.212C254.277 279.212 253.771 279.344 253.375 279.608C252.979 279.872 252.678 280.209 252.473 280.62C252.267 281.031 252.135 281.456 252.077 281.896ZM261.123 287V274.614H262.509V287H261.123ZM265.61 277.078C265.288 277.078 265.068 276.997 264.95 276.836C264.848 276.66 264.796 276.44 264.796 276.176C264.796 275.956 264.848 275.765 264.95 275.604C265.068 275.428 265.288 275.34 265.61 275.34C265.933 275.34 266.146 275.428 266.248 275.604C266.366 275.765 266.424 275.956 266.424 276.176C266.424 276.44 266.366 276.66 266.248 276.836C266.146 276.997 265.933 277.078 265.61 277.078ZM264.906 287V278.046H266.314V287H264.906ZM270.836 287C270.293 287 269.912 286.853 269.692 286.56C269.487 286.267 269.384 285.863 269.384 285.35V279.102H267.976V278.046C268.445 278.046 268.79 278.009 269.01 277.936C269.245 277.848 269.391 277.643 269.45 277.32C269.509 276.997 269.538 276.469 269.538 275.736H270.748V278.046H272.816V279.102H270.748V285.856H272.838V287H270.836ZM275.53 287C275.163 287 274.914 286.905 274.782 286.714C274.665 286.509 274.606 286.274 274.606 286.01C274.606 285.731 274.665 285.497 274.782 285.306C274.914 285.115 275.163 285.02 275.53 285.02C275.897 285.02 276.139 285.115 276.256 285.306C276.388 285.497 276.454 285.731 276.454 286.01C276.454 286.289 276.388 286.523 276.256 286.714C276.139 286.905 275.897 287 275.53 287ZM288.953 285.768V287H284.157V285.768H285.851V275.846H284.157V274.614H288.953V275.846H287.259V285.768H288.953ZM291.236 287V278.046H292.446L292.688 280.268H292.732C292.747 280.195 292.813 280.041 292.93 279.806C293.048 279.571 293.224 279.322 293.458 279.058C293.708 278.779 294.03 278.545 294.426 278.354C294.822 278.149 295.328 278.046 295.944 278.046C296.722 278.046 297.33 278.185 297.77 278.464C298.225 278.743 298.562 279.117 298.782 279.586C299.002 280.041 299.142 280.532 299.2 281.06C299.259 281.588 299.288 282.094 299.288 282.578V287H297.924V282.578C297.924 281.61 297.756 280.825 297.418 280.224C297.096 279.623 296.45 279.322 295.482 279.322C294.822 279.322 294.28 279.483 293.854 279.806C293.444 280.114 293.143 280.532 292.952 281.06C292.776 281.573 292.688 282.138 292.688 282.754V287H291.236ZM66.158 317.22C65.4247 317.22 64.8307 317.088 64.376 316.824C63.936 316.56 63.5987 316.208 63.364 315.768C63.1293 315.313 62.968 314.822 62.88 314.294C62.8067 313.751 62.77 313.209 62.77 312.666V308.046H64.178V312.688C64.178 313.275 64.2367 313.817 64.354 314.316C64.4713 314.815 64.706 315.211 65.058 315.504C65.4247 315.797 65.9527 315.944 66.642 315.944C67.302 315.944 67.8153 315.797 68.182 315.504C68.5633 315.196 68.842 314.8 69.018 314.316C69.194 313.832 69.2967 313.326 69.326 312.798V308.046H70.778V317H69.568L69.326 314.998H69.282C69.2087 315.247 69.0547 315.548 68.82 315.9C68.5853 316.252 68.248 316.56 67.808 316.824C67.3827 317.088 66.8327 317.22 66.158 317.22ZM72.8529 317V308.046H74.1289L74.2829 310.4C74.3709 310.004 74.5469 309.623 74.8109 309.256C75.0749 308.889 75.4342 308.596 75.8889 308.376C76.3582 308.141 76.9375 308.031 77.6269 308.046H78.0449V309.608H77.6049C76.6662 309.608 75.9549 309.747 75.4709 310.026C75.0015 310.29 74.6789 310.664 74.5029 311.148C74.3415 311.632 74.2609 312.189 74.2609 312.82V317H72.8529ZM79.2715 317V308.046H80.4815L80.7235 310.268H80.7675C80.7822 310.195 80.8482 310.041 80.9655 309.806C81.0829 309.571 81.2589 309.322 81.4935 309.058C81.7429 308.779 82.0655 308.545 82.4615 308.354C82.8575 308.149 83.3635 308.046 83.9795 308.046C84.7569 308.046 85.3655 308.185 85.8055 308.464C86.2602 308.743 86.5975 309.117 86.8175 309.586C87.0375 310.041 87.1769 310.532 87.2355 311.06C87.2942 311.588 87.3235 312.094 87.3235 312.578V317H85.9595V312.578C85.9595 311.61 85.7909 310.825 85.4535 310.224C85.1309 309.623 84.4855 309.322 83.5175 309.322C82.8575 309.322 82.3149 309.483 81.8895 309.806C81.4789 310.114 81.1782 310.532 80.9875 311.06C80.8115 311.573 80.7235 312.138 80.7235 312.754V317H79.2715ZM92.2359 317.198C91.4146 317.198 90.7399 317 90.2119 316.604C89.6839 316.193 89.2879 315.643 89.0239 314.954C88.7746 314.265 88.6499 313.48 88.6499 312.6C88.6499 311.251 88.9432 310.143 89.5299 309.278C90.1312 308.398 91.0332 307.958 92.2359 307.958C92.8519 307.958 93.3652 308.068 93.7759 308.288C94.2012 308.493 94.5386 308.75 94.7879 309.058C95.0519 309.366 95.2426 309.659 95.3599 309.938H95.3819V308.046H96.8339V317H95.6239L95.4039 315.262H95.3599C95.2279 315.555 95.0372 315.856 94.7879 316.164C94.5386 316.457 94.2012 316.707 93.7759 316.912C93.3652 317.103 92.8519 317.198 92.2359 317.198ZM92.7859 315.944C93.6952 315.944 94.3479 315.643 94.7439 315.042C95.1546 314.441 95.3599 313.634 95.3599 312.622C95.3599 311.537 95.1472 310.708 94.7219 310.136C94.3112 309.564 93.6659 309.278 92.7859 309.278C91.8179 309.278 91.1212 309.601 90.6959 310.246C90.2852 310.877 90.0799 311.661 90.0799 312.6C90.0799 313.583 90.2926 314.389 90.7179 315.02C91.1432 315.636 91.8326 315.944 92.7859 315.944ZM98.7426 318.936V317.88H99.1386C99.4906 317.88 99.7106 317.799 99.7986 317.638C99.9012 317.477 99.9526 317.271 99.9526 317.022C99.5566 317.051 99.2706 316.978 99.0946 316.802C98.9186 316.626 98.8306 316.377 98.8306 316.054C98.8306 315.79 98.8966 315.57 99.0286 315.394C99.1606 315.218 99.4026 315.13 99.7546 315.13C100.063 315.13 100.29 315.225 100.437 315.416C100.583 315.592 100.657 315.922 100.657 316.406C100.657 317.154 100.547 317.763 100.327 318.232C100.107 318.701 99.7252 318.936 99.1826 318.936H98.7426ZM107.803 317V308.046H109.013L109.255 310.268H109.299C109.313 310.195 109.379 310.041 109.497 309.806C109.614 309.571 109.79 309.322 110.025 309.058C110.274 308.779 110.597 308.545 110.993 308.354C111.389 308.149 111.895 308.046 112.511 308.046C113.288 308.046 113.897 308.185 114.337 308.464C114.791 308.743 115.129 309.117 115.349 309.586C115.569 310.041 115.708 310.532 115.767 311.06C115.825 311.588 115.855 312.094 115.855 312.578V317H114.491V312.578C114.491 311.61 114.322 310.825 113.985 310.224C113.662 309.623 113.017 309.322 112.049 309.322C111.389 309.322 110.846 309.483 110.421 309.806C110.01 310.114 109.709 310.532 109.519 311.06C109.343 311.573 109.255 312.138 109.255 312.754V317H107.803ZM121.669 317.22C120.232 317.22 119.154 316.795 118.435 315.944C117.731 315.079 117.379 313.979 117.379 312.644C117.364 311.295 117.716 310.195 118.435 309.344C119.168 308.479 120.246 308.039 121.669 308.024C123.077 308.024 124.14 308.449 124.859 309.3C125.592 310.136 125.959 311.251 125.959 312.644C125.959 313.509 125.805 314.287 125.497 314.976C125.189 315.665 124.72 316.215 124.089 316.626C123.458 317.022 122.652 317.22 121.669 317.22ZM121.669 315.988C122.432 315.988 123.018 315.819 123.429 315.482C123.854 315.145 124.148 314.719 124.309 314.206C124.485 313.678 124.573 313.143 124.573 312.6C124.573 312.057 124.485 311.522 124.309 310.994C124.148 310.466 123.854 310.033 123.429 309.696C123.018 309.359 122.432 309.19 121.669 309.19C120.906 309.19 120.312 309.359 119.887 309.696C119.476 310.033 119.183 310.466 119.007 310.994C118.846 311.522 118.765 312.057 118.765 312.6C118.765 313.143 118.846 313.678 119.007 314.206C119.183 314.719 119.476 315.145 119.887 315.482C120.312 315.819 120.906 315.988 121.669 315.988ZM127.676 317V308.046H128.886L129.128 310.268H129.172C129.187 310.195 129.253 310.041 129.37 309.806C129.487 309.571 129.663 309.322 129.898 309.058C130.147 308.779 130.47 308.545 130.866 308.354C131.262 308.149 131.768 308.046 132.384 308.046C133.161 308.046 133.77 308.185 134.21 308.464C134.665 308.743 135.002 309.117 135.222 309.586C135.442 310.041 135.581 310.532 135.64 311.06C135.699 311.588 135.728 312.094 135.728 312.578V317H134.364V312.578C134.364 311.61 134.195 310.825 133.858 310.224C133.535 309.623 132.89 309.322 131.922 309.322C131.262 309.322 130.719 309.483 130.294 309.806C129.883 310.114 129.583 310.532 129.392 311.06C129.216 311.573 129.128 312.138 129.128 312.754V317H127.676ZM142.715 317V308.046H143.925L144.167 310.268H144.211C144.226 310.195 144.292 310.041 144.409 309.806C144.526 309.571 144.702 309.322 144.937 309.058C145.186 308.779 145.509 308.545 145.905 308.354C146.301 308.149 146.807 308.046 147.423 308.046C148.2 308.046 148.809 308.185 149.249 308.464C149.704 308.743 150.041 309.117 150.261 309.586C150.481 310.041 150.62 310.532 150.679 311.06C150.738 311.588 150.767 312.094 150.767 312.578V317H149.403V312.578C149.403 311.61 149.234 310.825 148.897 310.224C148.574 309.623 147.929 309.322 146.961 309.322C146.301 309.322 145.758 309.483 145.333 309.806C144.922 310.114 144.622 310.532 144.431 311.06C144.255 311.573 144.167 312.138 144.167 312.754V317H142.715ZM153.655 307.078C153.333 307.078 153.113 306.997 152.995 306.836C152.893 306.66 152.841 306.44 152.841 306.176C152.841 305.956 152.893 305.765 152.995 305.604C153.113 305.428 153.333 305.34 153.655 305.34C153.978 305.34 154.191 305.428 154.293 305.604C154.411 305.765 154.469 305.956 154.469 306.176C154.469 306.44 154.411 306.66 154.293 306.836C154.191 306.997 153.978 307.078 153.655 307.078ZM152.951 317V308.046H154.359V317H152.951ZM159.986 317.22C159.135 317.22 158.431 317.044 157.874 316.692C157.331 316.325 156.921 315.9 156.642 315.416C156.378 314.932 156.246 314.499 156.246 314.118H157.61C157.61 314.133 157.617 314.243 157.632 314.448C157.661 314.653 157.742 314.888 157.874 315.152C158.006 315.416 158.233 315.651 158.556 315.856C158.879 316.047 159.348 316.142 159.964 316.142C160.624 316.142 161.189 316.025 161.658 315.79C162.142 315.555 162.377 315.189 162.362 314.69C162.362 314.265 162.215 313.942 161.922 313.722C161.643 313.487 161.277 313.311 160.822 313.194C160.367 313.062 159.891 312.937 159.392 312.82C158.893 312.703 158.417 312.556 157.962 312.38C157.522 312.189 157.163 311.925 156.884 311.588C156.605 311.251 156.466 310.781 156.466 310.18C156.466 309.447 156.796 308.867 157.456 308.442C158.116 308.002 158.959 307.782 159.986 307.782C160.558 307.782 161.137 307.877 161.724 308.068C162.311 308.244 162.795 308.559 163.176 309.014C163.557 309.454 163.733 310.077 163.704 310.884H162.384C162.413 310.327 162.289 309.909 162.01 309.63C161.731 309.351 161.394 309.168 160.998 309.08C160.617 308.977 160.265 308.926 159.942 308.926C159.311 308.926 158.791 309.043 158.38 309.278C157.984 309.513 157.786 309.843 157.786 310.268C157.786 310.679 157.925 310.994 158.204 311.214C158.497 311.419 158.864 311.588 159.304 311.72C159.759 311.837 160.235 311.955 160.734 312.072C161.247 312.175 161.731 312.321 162.186 312.512C162.641 312.703 163.007 312.974 163.286 313.326C163.579 313.678 163.726 314.162 163.726 314.778C163.726 315.629 163.367 316.252 162.648 316.648C161.929 317.029 161.042 317.22 159.986 317.22ZM165.582 317V304.614H166.968V317H165.582ZM176.412 317C175.869 317 175.488 316.853 175.268 316.56C175.063 316.267 174.96 315.863 174.96 315.35V309.102H173.552V308.046C174.021 308.046 174.366 308.009 174.586 307.936C174.821 307.848 174.967 307.643 175.026 307.32C175.085 306.997 175.114 306.469 175.114 305.736H176.324V308.046H178.392V309.102H176.324V315.856H178.414V317H176.412ZM181.37 307.078C181.047 307.078 180.827 306.997 180.71 306.836C180.607 306.66 180.556 306.44 180.556 306.176C180.556 305.956 180.607 305.765 180.71 305.604C180.827 305.428 181.047 305.34 181.37 305.34C181.693 305.34 181.905 305.428 182.008 305.604C182.125 305.765 182.184 305.956 182.184 306.176C182.184 306.44 182.125 306.66 182.008 306.836C181.905 306.997 181.693 307.078 181.37 307.078ZM180.666 317V308.046H182.074V317H180.666ZM184.137 317V308.046H185.347L185.589 310.268H185.633C185.647 310.195 185.713 310.041 185.831 309.806C185.948 309.571 186.124 309.322 186.359 309.058C186.608 308.779 186.931 308.545 187.327 308.354C187.723 308.149 188.229 308.046 188.845 308.046C189.622 308.046 190.231 308.185 190.671 308.464C191.125 308.743 191.463 309.117 191.683 309.586C191.903 310.041 192.042 310.532 192.101 311.06C192.159 311.588 192.189 312.094 192.189 312.578V317H190.825V312.578C190.825 311.61 190.656 310.825 190.319 310.224C189.996 309.623 189.351 309.322 188.383 309.322C187.723 309.322 187.18 309.483 186.755 309.806C186.344 310.114 186.043 310.532 185.853 311.06C185.677 311.573 185.589 312.138 185.589 312.754V317H184.137ZM198.069 317.22C197.233 317.22 196.485 317.044 195.825 316.692C195.165 316.34 194.644 315.827 194.263 315.152C193.882 314.477 193.691 313.663 193.691 312.71C193.72 311.771 193.918 310.95 194.285 310.246C194.666 309.542 195.187 308.999 195.847 308.618C196.507 308.222 197.262 308.024 198.113 308.024C198.905 308.024 199.594 308.171 200.181 308.464C200.768 308.757 201.237 309.153 201.589 309.652C201.941 310.151 202.161 310.701 202.249 311.302H200.951C200.804 310.657 200.482 310.158 199.983 309.806C199.499 309.454 198.89 309.278 198.157 309.278C197.218 309.278 196.47 309.593 195.913 310.224C195.37 310.84 195.092 311.647 195.077 312.644C195.077 313.656 195.341 314.463 195.869 315.064C196.412 315.651 197.167 315.944 198.135 315.944C198.839 315.944 199.448 315.768 199.961 315.416C200.474 315.064 200.804 314.558 200.951 313.898H202.249C202.161 314.514 201.934 315.071 201.567 315.57C201.215 316.069 200.738 316.472 200.137 316.78C199.55 317.073 198.861 317.22 198.069 317.22ZM205.024 307.078C204.702 307.078 204.482 306.997 204.364 306.836C204.262 306.66 204.21 306.44 204.21 306.176C204.21 305.956 204.262 305.765 204.364 305.604C204.482 305.428 204.702 305.34 205.024 305.34C205.347 305.34 205.56 305.428 205.662 305.604C205.78 305.765 205.838 305.956 205.838 306.176C205.838 306.44 205.78 306.66 205.662 306.836C205.56 306.997 205.347 307.078 205.024 307.078ZM204.32 317V308.046H205.728V317H204.32ZM211.861 317.22C210.996 317.22 210.27 317.022 209.683 316.626C209.111 316.23 208.678 315.687 208.385 314.998C208.106 314.294 207.967 313.509 207.967 312.644C207.967 311.309 208.297 310.209 208.957 309.344C209.617 308.479 210.592 308.046 211.883 308.046C212.484 308.046 212.983 308.149 213.379 308.354C213.79 308.545 214.12 308.779 214.369 309.058C214.618 309.337 214.802 309.593 214.919 309.828C215.036 310.063 215.11 310.217 215.139 310.29H215.183L215.205 304.614H216.657V317H215.425L215.205 315.02H215.161C215.132 315.093 215.051 315.247 214.919 315.482C214.787 315.717 214.589 315.966 214.325 316.23C214.076 316.494 213.746 316.729 213.335 316.934C212.939 317.125 212.448 317.22 211.861 317.22ZM212.213 315.966C213.078 315.966 213.782 315.673 214.325 315.086C214.882 314.485 215.161 313.671 215.161 312.644C215.161 311.632 214.904 310.833 214.391 310.246C213.878 309.645 213.188 309.344 212.323 309.344C211.634 309.344 211.069 309.505 210.629 309.828C210.189 310.136 209.866 310.539 209.661 311.038C209.456 311.537 209.353 312.072 209.353 312.644C209.353 313.201 209.448 313.737 209.639 314.25C209.83 314.749 210.13 315.159 210.541 315.482C210.952 315.805 211.509 315.966 212.213 315.966ZM221.834 317.22C221.1 317.22 220.506 317.088 220.052 316.824C219.612 316.56 219.274 316.208 219.04 315.768C218.805 315.313 218.644 314.822 218.556 314.294C218.482 313.751 218.446 313.209 218.446 312.666V308.046H219.854V312.688C219.854 313.275 219.912 313.817 220.03 314.316C220.147 314.815 220.382 315.211 220.734 315.504C221.1 315.797 221.628 315.944 222.318 315.944C222.978 315.944 223.491 315.797 223.858 315.504C224.239 315.196 224.518 314.8 224.694 314.316C224.87 313.832 224.972 313.326 225.002 312.798V308.046H226.454V317H225.244L225.002 314.998H224.958C224.884 315.247 224.73 315.548 224.496 315.9C224.261 316.252 223.924 316.56 223.484 316.824C223.058 317.088 222.508 317.22 221.834 317.22ZM228.309 317V308.046H229.519L229.761 310.268H229.805C229.819 310.195 229.885 310.041 230.003 309.806C230.12 309.571 230.296 309.322 230.531 309.058C230.78 308.779 231.103 308.545 231.499 308.354C231.895 308.149 232.401 308.046 233.017 308.046C233.794 308.046 234.403 308.185 234.843 308.464C235.297 308.743 235.635 309.117 235.855 309.586C236.075 310.041 236.214 310.532 236.273 311.06C236.331 311.588 236.361 312.094 236.361 312.578V317H234.997V312.578C234.997 311.61 234.828 310.825 234.491 310.224C234.168 309.623 233.523 309.322 232.555 309.322C231.895 309.322 231.352 309.483 230.927 309.806C230.516 310.114 230.215 310.532 230.025 311.06C229.849 311.573 229.761 312.138 229.761 312.754V317H228.309ZM240.371 317C239.828 317 239.447 316.853 239.227 316.56C239.022 316.267 238.919 315.863 238.919 315.35V309.102H237.511V308.046C237.98 308.046 238.325 308.009 238.545 307.936C238.78 307.848 238.926 307.643 238.985 307.32C239.044 306.997 239.073 306.469 239.073 305.736H240.283V308.046H242.351V309.102H240.283V315.856H242.373V317H240.371ZM245.065 317C244.698 317 244.449 316.905 244.317 316.714C244.2 316.509 244.141 316.274 244.141 316.01C244.141 315.731 244.2 315.497 244.317 315.306C244.449 315.115 244.698 315.02 245.065 315.02C245.432 315.02 245.674 315.115 245.791 315.306C245.923 315.497 245.989 315.731 245.989 316.01C245.989 316.289 245.923 316.523 245.791 316.714C245.674 316.905 245.432 317 245.065 317Z" fill="#6E6E6E"/>
<rect x="70.4563" y="53.7874" width="38.6565" height="38.6565" fill="#F6D88C"/>
<rect x="75.9" y="59.0454" width="28.0545" height="28.0545" stroke="#181817"/>
<rect x="66.5" y="50.5" width="46" height="46" stroke="#181817"/>
<path d="M63.449 372V359.051H65.795V369.999H72.189V372H63.449ZM76.3457 370.114H83.4987V372H74.0227V359.051H83.2687V361.075H76.3457V364.479H81.6587V366.411H76.3457V370.114ZM84.7632 372L88.9032 359.051H92.7442L96.9992 372H94.4922L93.3882 368.343H88.3512L87.2472 372H84.7632ZM90.8582 360.04L88.9032 366.526H92.8362L90.8582 360.04ZM98.6415 372V359.051H103.403C105.074 359.051 106.377 359.335 107.313 359.902C108.248 360.454 108.716 361.435 108.716 362.846C108.716 363.904 108.463 364.763 107.957 365.422C107.451 366.066 106.722 366.388 105.772 366.388C106.308 366.388 106.707 366.511 106.968 366.756C107.244 366.986 107.435 367.277 107.543 367.63C107.65 367.983 107.727 368.351 107.773 368.734C107.819 369.117 107.872 369.462 107.934 369.769C108.01 370.06 108.148 370.267 108.348 370.39C108.562 370.513 108.892 370.49 109.337 370.321V371.678C109.045 371.923 108.7 372.084 108.302 372.161C107.903 372.253 107.512 372.23 107.129 372.092C106.745 371.954 106.423 371.686 106.163 371.287C105.902 370.873 105.772 370.298 105.772 369.562C105.772 368.887 105.733 368.351 105.657 367.952C105.58 367.538 105.388 367.231 105.082 367.032C104.775 366.817 104.3 366.687 103.656 366.641C103.012 366.58 102.122 366.58 100.988 366.641V372H98.6415ZM100.988 364.939H103.311C104.062 364.939 104.683 364.908 105.174 364.847C105.664 364.77 106.025 364.602 106.255 364.341C106.5 364.065 106.623 363.628 106.623 363.03C106.623 362.371 106.477 361.895 106.186 361.604C105.894 361.313 105.465 361.136 104.898 361.075C104.346 360.998 103.663 360.96 102.851 360.96H100.988V364.939ZM120.3 359.051H122.738V372H118.276L113.837 360.086H113.791V372H111.376V359.051H115.516L120.254 370.965H120.3V359.051ZM130.402 372V359.051H134.496L137.532 370.988H137.578L140.591 359.051H144.662V372H142.224L142.385 360.109H142.362L139.257 372H135.807L132.748 360.109H132.702L132.84 372H130.402ZM152.813 372.322C150.728 372.322 149.133 371.716 148.029 370.505C146.925 369.278 146.373 367.63 146.373 365.56C146.373 364.195 146.611 363.015 147.086 362.018C147.561 361.006 148.274 360.224 149.225 359.672C150.191 359.105 151.387 358.821 152.813 358.821C154.929 358.821 156.531 359.434 157.62 360.661C158.709 361.872 159.253 363.505 159.253 365.56C159.253 366.894 159.008 368.075 158.517 369.102C158.026 370.114 157.306 370.904 156.355 371.471C155.404 372.038 154.224 372.322 152.813 372.322ZM152.79 370.068C154.17 370.068 155.205 369.639 155.895 368.78C156.6 367.921 156.953 366.848 156.953 365.56C156.953 364.686 156.8 363.912 156.493 363.237C156.186 362.547 155.726 362.01 155.113 361.627C154.5 361.228 153.725 361.029 152.79 361.029C151.441 361.029 150.413 361.443 149.708 362.271C149.003 363.099 148.65 364.195 148.65 365.56C148.65 366.403 148.796 367.17 149.087 367.86C149.394 368.535 149.854 369.071 150.467 369.47C151.08 369.869 151.855 370.068 152.79 370.068ZM161.33 372V359.051H166.091C167.762 359.051 169.066 359.335 170.001 359.902C170.936 360.454 171.404 361.435 171.404 362.846C171.404 363.904 171.151 364.763 170.645 365.422C170.139 366.066 169.411 366.388 168.46 366.388C168.997 366.388 169.395 366.511 169.656 366.756C169.932 366.986 170.124 367.277 170.231 367.63C170.338 367.983 170.415 368.351 170.461 368.734C170.507 369.117 170.561 369.462 170.622 369.769C170.699 370.06 170.837 370.267 171.036 370.39C171.251 370.513 171.58 370.49 172.025 370.321V371.678C171.734 371.923 171.389 372.084 170.99 372.161C170.591 372.253 170.2 372.23 169.817 372.092C169.434 371.954 169.112 371.686 168.851 371.287C168.59 370.873 168.46 370.298 168.46 369.562C168.46 368.887 168.422 368.351 168.345 367.952C168.268 367.538 168.077 367.231 167.77 367.032C167.463 366.817 166.988 366.687 166.344 366.641C165.7 366.58 164.811 366.58 163.676 366.641V372H161.33ZM163.676 364.939H165.999C166.75 364.939 167.371 364.908 167.862 364.847C168.353 364.77 168.713 364.602 168.943 364.341C169.188 364.065 169.311 363.628 169.311 363.03C169.311 362.371 169.165 361.895 168.874 361.604C168.583 361.313 168.153 361.136 167.586 361.075C167.034 360.998 166.352 360.96 165.539 360.96H163.676V364.939ZM176.342 370.114H183.495V372H174.019V359.051H183.265V361.075H176.342V364.479H181.655V366.411H176.342V370.114Z" fill="#181817"/>
<path d="M62 374.875H184.323V376.025H62V374.875Z" fill="#181817"/>
</svg>
