<svg width="370" height="425" viewBox="0 0 370 425" fill="none" xmlns="http://www.w3.org/2000/svg">
<rect width="370" height="425" fill="#EAE4DC"/>
<path d="M60.008 164H55.36V132.472H67.68C71.152 132.472 73.84 133.331 75.744 135.048C77.648 136.765 78.6 139.341 78.6 142.776C78.6 145.875 77.6107 148.283 75.632 150C73.6907 151.717 71.04 152.576 67.68 152.576H60.008V164ZM67.12 136.336H60.008V149.048H67.12C69.36 149.048 71.1147 148.525 72.384 147.48C73.6907 146.435 74.344 144.848 74.344 142.72C74.344 140.517 73.7093 138.912 72.44 137.904C71.1707 136.859 69.3973 136.336 67.12 136.336ZM88.6319 164.504C86.5039 164.504 84.7865 164.019 83.4799 163.048C82.1732 162.04 81.2025 160.659 80.5679 158.904C79.9705 157.112 79.6719 155.077 79.6719 152.8C79.6719 149.328 80.3812 146.491 81.7999 144.288C83.2185 142.048 85.4959 140.928 88.6319 140.928C90.3119 140.928 91.6745 141.227 92.7199 141.824C93.7652 142.421 94.5679 143.093 95.1279 143.84C95.7252 144.587 96.1359 145.24 96.3599 145.8H96.4719V141.096H101.232V164H97.2559L96.4719 159.912H96.3599C96.1359 160.472 95.7252 161.125 95.1279 161.872C94.5305 162.581 93.7092 163.197 92.6639 163.72C91.6185 164.243 90.2745 164.504 88.6319 164.504ZM90.4799 160.528C92.6825 160.528 94.2132 159.819 95.0719 158.4C95.9679 156.981 96.4159 155.133 96.4159 152.856C96.4159 150.467 95.9492 148.581 95.0159 147.2C94.1199 145.819 92.6079 145.128 90.4799 145.128C88.9119 145.128 87.6799 145.483 86.7839 146.192C85.8879 146.864 85.2345 147.779 84.8239 148.936C84.4505 150.093 84.2639 151.381 84.2639 152.8C84.2639 155.003 84.7305 156.851 85.6639 158.344C86.5972 159.8 88.2025 160.528 90.4799 160.528ZM104.616 164V141.096H108.928L109.32 147.312C109.544 146.304 109.973 145.333 110.608 144.4C111.28 143.429 112.195 142.645 113.352 142.048C114.547 141.413 116.059 141.096 117.888 141.096H118.84V146.248H117.832C115.555 146.248 113.8 146.547 112.568 147.144C111.336 147.704 110.477 148.544 109.992 149.664C109.507 150.747 109.264 152.091 109.264 153.696V164H104.616ZM128.743 164C127.138 164 125.962 163.589 125.215 162.768C124.506 161.947 124.151 160.696 124.151 159.016V144.456H120.623V141.096C121.781 141.096 122.639 141.003 123.199 140.816C123.797 140.592 124.189 140.069 124.375 139.248C124.599 138.389 124.711 137.045 124.711 135.216H128.575V141.096H133.839V144.456H128.575V160.304H133.895V164H128.743ZM137.312 164V141.152H141.288L142.072 146.416H142.184C142.221 146.267 142.371 145.912 142.632 145.352C142.893 144.792 143.323 144.195 143.92 143.56C144.517 142.888 145.32 142.309 146.328 141.824C147.336 141.339 148.605 141.096 150.136 141.096C152.152 141.096 153.72 141.488 154.84 142.272C155.96 143.019 156.781 144.008 157.304 145.24C157.827 146.435 158.144 147.704 158.256 149.048C158.405 150.392 158.48 151.643 158.48 152.8V164H153.944V152.744C153.944 151.325 153.795 150.056 153.496 148.936C153.197 147.779 152.637 146.883 151.816 146.248C151.032 145.576 149.875 145.24 148.344 145.24C146.776 145.24 145.525 145.613 144.592 146.36C143.659 147.107 143.005 148.077 142.632 149.272C142.259 150.467 142.072 151.736 142.072 153.08V164H137.312ZM172.259 164.56C169.683 164.56 167.574 164 165.931 162.88C164.288 161.723 163.075 160.248 162.291 158.456C161.507 156.664 161.115 154.779 161.115 152.8C161.078 150.597 161.488 148.6 162.347 146.808C163.243 145.016 164.512 143.597 166.155 142.552C167.835 141.507 169.832 140.984 172.147 140.984C174.126 140.984 175.899 141.432 177.467 142.328C179.072 143.187 180.342 144.419 181.275 146.024C182.208 147.592 182.712 149.459 182.787 151.624C182.787 151.736 182.787 151.96 182.787 152.296C182.824 152.595 182.843 152.856 182.843 153.08H165.539C165.539 155.469 166.118 157.336 167.275 158.68C168.47 159.987 170.112 160.64 172.203 160.64C173.771 160.64 175.096 160.248 176.179 159.464C177.299 158.643 177.99 157.56 178.251 156.216H182.787C182.451 158.605 181.368 160.603 179.539 162.208C177.71 163.776 175.283 164.56 172.259 164.56ZM165.707 150.784H178.139C178.102 150.373 177.99 149.832 177.803 149.16C177.616 148.488 177.299 147.835 176.851 147.2C176.44 146.528 175.843 145.968 175.059 145.52C174.275 145.072 173.267 144.848 172.035 144.848C170.504 144.848 169.291 145.184 168.395 145.856C167.536 146.491 166.883 147.275 166.435 148.208C166.024 149.104 165.782 149.963 165.707 150.784ZM186.597 164V141.096H190.909L191.301 147.312C191.525 146.304 191.954 145.333 192.589 144.4C193.261 143.429 194.176 142.645 195.333 142.048C196.528 141.413 198.04 141.096 199.869 141.096H200.821V146.248H199.813C197.536 146.248 195.781 146.547 194.549 147.144C193.317 147.704 192.458 148.544 191.973 149.664C191.488 150.747 191.245 152.091 191.245 153.696V164H186.597ZM212.374 164.56C210.657 164.56 209.033 164.187 207.502 163.44C206.009 162.693 204.796 161.704 203.862 160.472C202.966 159.203 202.518 157.84 202.518 156.384H206.886C206.886 156.459 206.905 156.739 206.942 157.224C206.98 157.709 207.148 158.251 207.446 158.848C207.745 159.445 208.268 159.968 209.014 160.416C209.798 160.864 210.9 161.088 212.318 161.088C213.886 161.088 215.156 160.808 216.126 160.248C217.097 159.688 217.582 158.904 217.582 157.896C217.582 156.963 217.228 156.235 216.518 155.712C215.809 155.189 214.894 154.779 213.774 154.48C212.654 154.144 211.46 153.827 210.19 153.528C208.958 153.229 207.782 152.837 206.662 152.352C205.58 151.829 204.684 151.139 203.974 150.28C203.302 149.384 202.985 148.189 203.022 146.696C203.022 144.68 203.862 143.131 205.542 142.048C207.26 140.928 209.425 140.368 212.038 140.368C213.718 140.368 215.324 140.648 216.854 141.208C218.385 141.731 219.636 142.589 220.606 143.784C221.614 144.979 222.1 146.584 222.062 148.6H217.75C217.788 147.331 217.489 146.379 216.854 145.744C216.257 145.072 215.51 144.624 214.614 144.4C213.718 144.139 212.878 144.008 212.094 144.008C210.601 144.008 209.425 144.288 208.566 144.848C207.708 145.371 207.278 146.08 207.278 146.976C207.278 147.947 207.633 148.693 208.342 149.216C209.052 149.701 209.966 150.112 211.086 150.448C212.206 150.747 213.382 151.045 214.614 151.344C215.884 151.643 217.078 152.035 218.198 152.52C219.318 153.005 220.233 153.696 220.942 154.592C221.689 155.488 222.062 156.683 222.062 158.176C222.062 160.379 221.148 162.003 219.318 163.048C217.489 164.056 215.174 164.56 212.374 164.56ZM225.096 164V132.472H229.856V146.416H229.968C230.006 146.267 230.155 145.912 230.416 145.352C230.678 144.792 231.088 144.195 231.648 143.56C232.246 142.888 233.03 142.309 234 141.824C234.971 141.339 236.203 141.096 237.696 141.096C239.675 141.096 241.243 141.488 242.4 142.272C243.558 143.056 244.416 144.064 244.976 145.296C245.536 146.528 245.891 147.816 246.04 149.16C246.19 150.467 246.264 151.68 246.264 152.8V164H241.728V152.744C241.728 151.325 241.579 150.056 241.28 148.936C240.982 147.779 240.422 146.883 239.6 146.248C238.816 145.576 237.659 145.24 236.128 145.24C234.56 145.24 233.31 145.613 232.376 146.36C231.443 147.107 230.79 148.077 230.416 149.272C230.043 150.467 229.856 151.736 229.856 153.08V164H225.096ZM253.086 138.576C252.078 138.613 251.406 138.371 251.07 137.848C250.734 137.325 250.566 136.672 250.566 135.888C250.566 135.216 250.734 134.619 251.07 134.096C251.406 133.573 252.078 133.312 253.086 133.312C254.057 133.312 254.71 133.573 255.046 134.096C255.42 134.619 255.606 135.216 255.606 135.888C255.606 136.672 255.42 137.325 255.046 137.848C254.71 138.333 254.057 138.576 253.086 138.576ZM250.734 164V141.096H255.382V164H250.734ZM272.932 164.56C271.476 164.56 270.244 164.336 269.236 163.888C268.265 163.403 267.462 162.843 266.828 162.208C266.23 161.573 265.782 160.995 265.484 160.472C265.222 159.912 265.054 159.557 264.98 159.408H264.868V173.8H260.108V141.096H264.14L264.924 146.472H265.036C265.073 146.323 265.222 145.968 265.484 145.408C265.745 144.848 266.174 144.232 266.772 143.56C267.369 142.888 268.153 142.309 269.124 141.824C270.132 141.339 271.382 141.096 272.876 141.096C276.236 141.096 278.718 142.197 280.324 144.4C281.929 146.603 282.732 149.44 282.732 152.912C282.732 156.384 281.91 159.203 280.268 161.368C278.662 163.496 276.217 164.56 272.932 164.56ZM271.7 160.528C273.342 160.528 274.63 160.173 275.564 159.464C276.534 158.717 277.206 157.765 277.58 156.608C277.99 155.413 278.196 154.163 278.196 152.856C278.196 151.587 277.972 150.373 277.524 149.216C277.113 148.059 276.404 147.125 275.396 146.416C274.425 145.669 273.118 145.296 271.476 145.296C269.31 145.296 267.686 146.005 266.604 147.424C265.521 148.805 264.98 150.616 264.98 152.856C264.98 155.171 265.54 157.037 266.66 158.456C267.817 159.837 269.497 160.528 271.7 160.528ZM55.248 208V176.472H63.312L72.16 205.928H72.272L80.952 176.472H89.016V208H84.256L84.536 178.656H84.424L75.576 208H68.688L59.896 178.656H59.784L60.008 208H55.248ZM101.21 208.504C99.082 208.504 97.3647 208.019 96.058 207.048C94.7513 206.04 93.7807 204.659 93.146 202.904C92.5487 201.112 92.25 199.077 92.25 196.8C92.25 193.328 92.9593 190.491 94.378 188.288C95.7967 186.048 98.074 184.928 101.21 184.928C102.89 184.928 104.253 185.227 105.298 185.824C106.343 186.421 107.146 187.093 107.706 187.84C108.303 188.587 108.714 189.24 108.938 189.8H109.05V185.096H113.81V208H109.834L109.05 203.912H108.938C108.714 204.472 108.303 205.125 107.706 205.872C107.109 206.581 106.287 207.197 105.242 207.72C104.197 208.243 102.853 208.504 101.21 208.504ZM103.058 204.528C105.261 204.528 106.791 203.819 107.65 202.4C108.546 200.981 108.994 199.133 108.994 196.856C108.994 194.467 108.527 192.581 107.594 191.2C106.698 189.819 105.186 189.128 103.058 189.128C101.49 189.128 100.258 189.483 99.362 190.192C98.466 190.864 97.8127 191.779 97.402 192.936C97.0287 194.093 96.842 195.381 96.842 196.8C96.842 199.003 97.3087 200.851 98.242 202.344C99.1753 203.8 100.781 204.528 103.058 204.528ZM116.802 208V185.152H120.778L121.562 190.416H121.674C121.711 190.267 121.861 189.912 122.122 189.352C122.383 188.792 122.813 188.195 123.41 187.56C124.007 186.888 124.81 186.309 125.818 185.824C126.826 185.339 128.095 185.096 129.626 185.096C131.642 185.096 133.21 185.488 134.33 186.272C135.45 187.019 136.271 188.008 136.794 189.24C137.317 190.435 137.634 191.704 137.746 193.048C137.895 194.392 137.97 195.643 137.97 196.8V208H133.434V196.744C133.434 195.325 133.285 194.056 132.986 192.936C132.687 191.779 132.127 190.883 131.306 190.248C130.522 189.576 129.365 189.24 127.834 189.24C126.266 189.24 125.015 189.613 124.082 190.36C123.149 191.107 122.495 192.077 122.122 193.272C121.749 194.467 121.562 195.736 121.562 197.08V208H116.802ZM149.173 208.504C147.045 208.504 145.328 208.019 144.021 207.048C142.714 206.04 141.744 204.659 141.109 202.904C140.512 201.112 140.213 199.077 140.213 196.8C140.213 193.328 140.922 190.491 142.341 188.288C143.76 186.048 146.037 184.928 149.173 184.928C150.853 184.928 152.216 185.227 153.261 185.824C154.306 186.421 155.109 187.093 155.669 187.84C156.266 188.587 156.677 189.24 156.901 189.8H157.013V185.096H161.773V208H157.797L157.013 203.912H156.901C156.677 204.472 156.266 205.125 155.669 205.872C155.072 206.581 154.25 207.197 153.205 207.72C152.16 208.243 150.816 208.504 149.173 208.504ZM151.021 204.528C153.224 204.528 154.754 203.819 155.613 202.4C156.509 200.981 156.957 199.133 156.957 196.856C156.957 194.467 156.49 192.581 155.557 191.2C154.661 189.819 153.149 189.128 151.021 189.128C149.453 189.128 148.221 189.483 147.325 190.192C146.429 190.864 145.776 191.779 145.365 192.936C144.992 194.093 144.805 195.381 144.805 196.8C144.805 199.003 145.272 200.851 146.205 202.344C147.138 203.8 148.744 204.528 151.021 204.528ZM170.757 217.8V213.432H181.509V203.408H181.397C181.323 203.557 181.136 203.912 180.837 204.472C180.539 204.995 180.072 205.573 179.437 206.208C178.84 206.843 178.037 207.403 177.029 207.888C176.021 208.336 174.808 208.56 173.389 208.56C170.029 208.56 167.565 207.477 165.997 205.312C164.429 203.109 163.645 200.291 163.645 196.856C163.645 193.347 164.448 190.509 166.053 188.344C167.659 186.179 170.123 185.096 173.445 185.096C174.939 185.096 176.171 185.339 177.141 185.824C178.149 186.309 178.952 186.888 179.549 187.56C180.147 188.232 180.576 188.848 180.837 189.408C181.136 189.968 181.304 190.323 181.341 190.472H181.453L181.509 185.096H186.269V210.912C186.269 213.376 185.803 215.131 184.869 216.176C183.936 217.259 182.387 217.8 180.221 217.8H170.757ZM174.677 204.528C176.843 204.528 178.504 203.837 179.661 202.456C180.819 201.037 181.397 199.171 181.397 196.856C181.397 194.616 180.837 192.805 179.717 191.424C178.635 190.005 177.029 189.296 174.901 189.296C173.259 189.296 171.933 189.669 170.925 190.416C169.955 191.125 169.245 192.059 168.797 193.216C168.387 194.373 168.181 195.587 168.181 196.856C168.181 198.163 168.368 199.413 168.741 200.608C169.152 201.765 169.824 202.717 170.757 203.464C171.728 204.173 173.035 204.528 174.677 204.528ZM200.204 208.56C197.628 208.56 195.519 208 193.876 206.88C192.234 205.723 191.02 204.248 190.236 202.456C189.452 200.664 189.06 198.779 189.06 196.8C189.023 194.597 189.434 192.6 190.292 190.808C191.188 189.016 192.458 187.597 194.1 186.552C195.78 185.507 197.778 184.984 200.092 184.984C202.071 184.984 203.844 185.432 205.412 186.328C207.018 187.187 208.287 188.419 209.22 190.024C210.154 191.592 210.658 193.459 210.732 195.624C210.732 195.736 210.732 195.96 210.732 196.296C210.77 196.595 210.788 196.856 210.788 197.08H193.484C193.484 199.469 194.063 201.336 195.22 202.68C196.415 203.987 198.058 204.64 200.148 204.64C201.716 204.64 203.042 204.248 204.124 203.464C205.244 202.643 205.935 201.56 206.196 200.216H210.732C210.396 202.605 209.314 204.603 207.484 206.208C205.655 207.776 203.228 208.56 200.204 208.56ZM193.652 194.784H206.084C206.047 194.373 205.935 193.832 205.748 193.16C205.562 192.488 205.244 191.835 204.796 191.2C204.386 190.528 203.788 189.968 203.004 189.52C202.22 189.072 201.212 188.848 199.98 188.848C198.45 188.848 197.236 189.184 196.34 189.856C195.482 190.491 194.828 191.275 194.38 192.208C193.97 193.104 193.727 193.963 193.652 194.784ZM214.15 208V185.096H218.182L218.294 190.416H218.406C218.481 190.229 218.63 189.856 218.854 189.296C219.116 188.736 219.508 188.139 220.03 187.504C220.59 186.832 221.318 186.272 222.214 185.824C223.11 185.339 224.212 185.096 225.518 185.096C227.497 185.096 228.953 185.637 229.886 186.72C230.857 187.765 231.548 188.997 231.958 190.416H232.07C232.108 190.229 232.276 189.856 232.574 189.296C232.873 188.736 233.302 188.139 233.862 187.504C234.46 186.832 235.225 186.272 236.158 185.824C237.092 185.339 238.23 185.096 239.574 185.096C241.03 185.096 242.206 185.395 243.102 185.992C244.036 186.589 244.745 187.373 245.23 188.344C245.753 189.277 246.108 190.285 246.294 191.368C246.518 192.413 246.649 193.421 246.686 194.392C246.724 195.363 246.742 196.165 246.742 196.8V208H242.766V196.744C242.766 196.184 242.729 195.493 242.654 194.672C242.617 193.813 242.449 192.973 242.15 192.152C241.889 191.293 241.422 190.603 240.75 190.08C240.116 189.52 239.201 189.24 238.006 189.24C236.588 189.24 235.486 189.613 234.702 190.36C233.918 191.107 233.358 192.096 233.022 193.328C232.686 194.523 232.518 195.773 232.518 197.08V208H228.542V196.744C228.542 196.184 228.505 195.493 228.43 194.672C228.393 193.813 228.225 192.973 227.926 192.152C227.665 191.293 227.198 190.603 226.526 190.08C225.892 189.52 224.977 189.24 223.782 189.24C222.364 189.24 221.262 189.613 220.478 190.36C219.694 191.107 219.134 192.096 218.798 193.328C218.462 194.523 218.294 195.773 218.294 197.08V208H214.15ZM260.527 208.56C257.951 208.56 255.842 208 254.199 206.88C252.556 205.723 251.343 204.248 250.559 202.456C249.775 200.664 249.383 198.779 249.383 196.8C249.346 194.597 249.756 192.6 250.615 190.808C251.511 189.016 252.78 187.597 254.423 186.552C256.103 185.507 258.1 184.984 260.415 184.984C262.394 184.984 264.167 185.432 265.735 186.328C267.34 187.187 268.61 188.419 269.543 190.024C270.476 191.592 270.98 193.459 271.055 195.624C271.055 195.736 271.055 195.96 271.055 196.296C271.092 196.595 271.111 196.856 271.111 197.08H253.807C253.807 199.469 254.386 201.336 255.543 202.68C256.738 203.987 258.38 204.64 260.471 204.64C262.039 204.64 263.364 204.248 264.447 203.464C265.567 202.643 266.258 201.56 266.519 200.216H271.055C270.719 202.605 269.636 204.603 267.807 206.208C265.978 207.776 263.551 208.56 260.527 208.56ZM253.975 194.784H266.407C266.37 194.373 266.258 193.832 266.071 193.16C265.884 192.488 265.567 191.835 265.119 191.2C264.708 190.528 264.111 189.968 263.327 189.52C262.543 189.072 261.535 188.848 260.303 188.848C258.772 188.848 257.559 189.184 256.663 189.856C255.804 190.491 255.151 191.275 254.703 192.208C254.292 193.104 254.05 193.963 253.975 194.784ZM274.473 208V185.152H278.449L279.233 190.416H279.345C279.382 190.267 279.531 189.912 279.793 189.352C280.054 188.792 280.483 188.195 281.081 187.56C281.678 186.888 282.481 186.309 283.489 185.824C284.497 185.339 285.766 185.096 287.297 185.096C289.313 185.096 290.881 185.488 292.001 186.272C293.121 187.019 293.942 188.008 294.465 189.24C294.987 190.435 295.305 191.704 295.417 193.048C295.566 194.392 295.641 195.643 295.641 196.8V208H291.105V196.744C291.105 195.325 290.955 194.056 290.657 192.936C290.358 191.779 289.798 190.883 288.977 190.248C288.193 189.576 287.035 189.24 285.505 189.24C283.937 189.24 282.686 189.613 281.753 190.36C280.819 191.107 280.166 192.077 279.793 193.272C279.419 194.467 279.233 195.736 279.233 197.08V208H274.473ZM305.5 208C303.894 208 302.718 207.589 301.972 206.768C301.262 205.947 300.908 204.696 300.908 203.016V188.456H297.38V185.096C298.537 185.096 299.396 185.003 299.956 184.816C300.553 184.592 300.945 184.069 301.132 183.248C301.356 182.389 301.468 181.045 301.468 179.216H305.332V185.096H310.596V188.456H305.332V204.304H310.652V208H305.5Z" fill="#181817"/>
<path d="M53.474 257.25V244.864H54.882V256.018H61.746V257.25H53.474ZM67.175 257.47C65.7377 257.47 64.6597 257.045 63.941 256.194C63.237 255.329 62.885 254.229 62.885 252.894C62.8703 251.545 63.2223 250.445 63.941 249.594C64.6743 248.729 65.7523 248.289 67.175 248.274C68.583 248.274 69.6463 248.7 70.365 249.55C71.0983 250.386 71.465 251.501 71.465 252.894C71.465 253.76 71.311 254.537 71.003 255.226C70.695 255.916 70.2257 256.466 69.595 256.876C68.9643 257.272 68.1577 257.47 67.175 257.47ZM67.175 256.238C67.9377 256.238 68.5243 256.07 68.935 255.732C69.3603 255.395 69.6537 254.97 69.815 254.456C69.991 253.928 70.079 253.393 70.079 252.85C70.079 252.308 69.991 251.772 69.815 251.244C69.6537 250.716 69.3603 250.284 68.935 249.946C68.5243 249.609 67.9377 249.44 67.175 249.44C66.4123 249.44 65.8183 249.609 65.393 249.946C64.9823 250.284 64.689 250.716 64.513 251.244C64.3517 251.772 64.271 252.308 64.271 252.85C64.271 253.393 64.3517 253.928 64.513 254.456C64.689 254.97 64.9823 255.395 65.393 255.732C65.8183 256.07 66.4123 256.238 67.175 256.238ZM73.4017 257.25V248.296H74.6777L74.8317 250.65C74.9197 250.254 75.0957 249.873 75.3597 249.506C75.6237 249.14 75.983 248.846 76.4377 248.626C76.907 248.392 77.4864 248.282 78.1757 248.296H78.5937V249.858H78.1537C77.215 249.858 76.5037 249.998 76.0197 250.276C75.5504 250.54 75.2277 250.914 75.0517 251.398C74.8904 251.882 74.8097 252.44 74.8097 253.07V257.25H73.4017ZM83.74 257.47C82.7573 257.47 81.9433 257.25 81.298 256.81C80.6673 256.356 80.198 255.776 79.89 255.072C79.5967 254.354 79.45 253.613 79.45 252.85C79.45 252.014 79.6113 251.252 79.934 250.562C80.2713 249.858 80.7553 249.301 81.386 248.89C82.0313 248.48 82.8013 248.274 83.696 248.274C84.84 248.274 85.7933 248.648 86.556 249.396C87.3187 250.13 87.7293 251.12 87.788 252.366C87.8027 252.425 87.81 252.513 87.81 252.63C87.81 252.733 87.81 252.828 87.81 252.916H80.814C80.814 253.958 81.0633 254.779 81.562 255.38C82.0753 255.967 82.794 256.26 83.718 256.26C84.4073 256.26 84.994 256.084 85.478 255.732C85.9767 255.38 86.2847 254.904 86.402 254.302H87.788C87.6413 255.212 87.2087 255.967 86.49 256.568C85.7713 257.17 84.8547 257.47 83.74 257.47ZM80.858 252.146H86.358C86.358 251.838 86.27 251.472 86.094 251.046C85.9327 250.621 85.654 250.254 85.258 249.946C84.8767 249.624 84.3487 249.462 83.674 249.462C83.058 249.462 82.552 249.594 82.156 249.858C81.76 250.122 81.4593 250.46 81.254 250.87C81.0487 251.281 80.9167 251.706 80.858 252.146ZM89.5958 257.25V248.296H90.8058L90.8938 250.518H90.9378C90.9671 250.416 91.0331 250.247 91.1358 250.012C91.2384 249.763 91.3998 249.506 91.6198 249.242C91.8398 248.978 92.1258 248.758 92.4778 248.582C92.8298 248.392 93.2771 248.296 93.8198 248.296C94.6411 248.296 95.2424 248.524 95.6238 248.978C96.0198 249.433 96.2838 249.946 96.4158 250.518H96.4598C96.5038 250.416 96.5844 250.247 96.7018 250.012C96.8191 249.763 96.9951 249.506 97.2298 249.242C97.4644 248.978 97.7651 248.758 98.1318 248.582C98.5131 248.392 98.9751 248.296 99.5178 248.296C100.09 248.296 100.559 248.414 100.926 248.648C101.292 248.868 101.571 249.169 101.762 249.55C101.967 249.917 102.114 250.306 102.202 250.716C102.29 251.127 102.341 251.523 102.356 251.904C102.37 252.286 102.378 252.594 102.378 252.828V257.25H101.146V252.828C101.146 252.594 101.131 252.293 101.102 251.926C101.072 251.56 100.999 251.2 100.882 250.848C100.764 250.482 100.559 250.181 100.266 249.946C99.9871 249.697 99.5838 249.572 99.0558 249.572C98.4691 249.572 97.9998 249.734 97.6478 250.056C97.2958 250.379 97.0391 250.804 96.8778 251.332C96.7164 251.846 96.6358 252.403 96.6358 253.004V257.25H95.4038V252.828C95.4038 252.594 95.3891 252.293 95.3598 251.926C95.3304 251.56 95.2571 251.2 95.1398 250.848C95.0224 250.482 94.8171 250.181 94.5238 249.946C94.2451 249.697 93.8418 249.572 93.3138 249.572C92.7271 249.572 92.2578 249.734 91.9058 250.056C91.5538 250.379 91.2971 250.804 91.1358 251.332C90.9744 251.846 90.8938 252.403 90.8938 253.004V257.25H89.5958ZM110.462 247.328C110.139 247.328 109.919 247.248 109.802 247.086C109.699 246.91 109.648 246.69 109.648 246.426C109.648 246.206 109.699 246.016 109.802 245.854C109.919 245.678 110.139 245.59 110.462 245.59C110.785 245.59 110.997 245.678 111.1 245.854C111.217 246.016 111.276 246.206 111.276 246.426C111.276 246.69 111.217 246.91 111.1 247.086C110.997 247.248 110.785 247.328 110.462 247.328ZM109.758 257.25V248.296H111.166V257.25H109.758ZM118.223 257.47C117.651 257.47 117.159 257.375 116.749 257.184C116.353 256.979 116.03 256.744 115.781 256.48C115.531 256.216 115.341 255.967 115.209 255.732C115.091 255.498 115.018 255.344 114.989 255.27H114.945V260.946H113.493V248.296H114.703L114.945 250.54H114.989C115.018 250.467 115.091 250.313 115.209 250.078C115.326 249.844 115.502 249.587 115.737 249.308C115.986 249.03 116.309 248.795 116.705 248.604C117.115 248.399 117.621 248.296 118.223 248.296C119.088 248.296 119.807 248.494 120.379 248.89C120.965 249.286 121.405 249.836 121.699 250.54C122.007 251.23 122.161 252.022 122.161 252.916C122.161 254.251 121.823 255.344 121.149 256.194C120.474 257.045 119.499 257.47 118.223 257.47ZM117.937 256.216C118.626 256.216 119.176 256.055 119.587 255.732C120.012 255.41 120.313 254.999 120.489 254.5C120.679 253.987 120.775 253.452 120.775 252.894C120.775 252.322 120.672 251.787 120.467 251.288C120.261 250.79 119.939 250.386 119.499 250.078C119.073 249.756 118.509 249.594 117.805 249.594C116.954 249.594 116.272 249.895 115.759 250.496C115.245 251.083 114.989 251.882 114.989 252.894C114.989 253.921 115.26 254.735 115.803 255.336C116.345 255.923 117.057 256.216 117.937 256.216ZM127.234 257.47C126.383 257.47 125.679 257.294 125.122 256.942C124.579 256.576 124.169 256.15 123.89 255.666C123.626 255.182 123.494 254.75 123.494 254.368H124.858C124.858 254.383 124.865 254.493 124.88 254.698C124.909 254.904 124.99 255.138 125.122 255.402C125.254 255.666 125.481 255.901 125.804 256.106C126.127 256.297 126.596 256.392 127.212 256.392C127.872 256.392 128.437 256.275 128.906 256.04C129.39 255.806 129.625 255.439 129.61 254.94C129.61 254.515 129.463 254.192 129.17 253.972C128.891 253.738 128.525 253.562 128.07 253.444C127.615 253.312 127.139 253.188 126.64 253.07C126.141 252.953 125.665 252.806 125.21 252.63C124.77 252.44 124.411 252.176 124.132 251.838C123.853 251.501 123.714 251.032 123.714 250.43C123.714 249.697 124.044 249.118 124.704 248.692C125.364 248.252 126.207 248.032 127.234 248.032C127.806 248.032 128.385 248.128 128.972 248.318C129.559 248.494 130.043 248.81 130.424 249.264C130.805 249.704 130.981 250.328 130.952 251.134H129.632C129.661 250.577 129.537 250.159 129.258 249.88C128.979 249.602 128.642 249.418 128.246 249.33C127.865 249.228 127.513 249.176 127.19 249.176C126.559 249.176 126.039 249.294 125.628 249.528C125.232 249.763 125.034 250.093 125.034 250.518C125.034 250.929 125.173 251.244 125.452 251.464C125.745 251.67 126.112 251.838 126.552 251.97C127.007 252.088 127.483 252.205 127.982 252.322C128.495 252.425 128.979 252.572 129.434 252.762C129.889 252.953 130.255 253.224 130.534 253.576C130.827 253.928 130.974 254.412 130.974 255.028C130.974 255.879 130.615 256.502 129.896 256.898C129.177 257.28 128.29 257.47 127.234 257.47ZM135.844 257.47C135.11 257.47 134.516 257.338 134.062 257.074C133.622 256.81 133.284 256.458 133.05 256.018C132.815 255.564 132.654 255.072 132.566 254.544C132.492 254.002 132.456 253.459 132.456 252.916V248.296H133.864V252.938C133.864 253.525 133.922 254.068 134.04 254.566C134.157 255.065 134.392 255.461 134.744 255.754C135.11 256.048 135.638 256.194 136.328 256.194C136.988 256.194 137.501 256.048 137.868 255.754C138.249 255.446 138.528 255.05 138.704 254.566C138.88 254.082 138.982 253.576 139.012 253.048V248.296H140.464V257.25H139.254L139.012 255.248H138.968C138.894 255.498 138.74 255.798 138.506 256.15C138.271 256.502 137.934 256.81 137.494 257.074C137.068 257.338 136.518 257.47 135.844 257.47ZM142.318 257.25V248.296H143.528L143.616 250.518H143.66C143.69 250.416 143.756 250.247 143.858 250.012C143.961 249.763 144.122 249.506 144.342 249.242C144.562 248.978 144.848 248.758 145.2 248.582C145.552 248.392 146 248.296 146.542 248.296C147.364 248.296 147.965 248.524 148.346 248.978C148.742 249.433 149.006 249.946 149.138 250.518H149.182C149.226 250.416 149.307 250.247 149.424 250.012C149.542 249.763 149.718 249.506 149.952 249.242C150.187 248.978 150.488 248.758 150.854 248.582C151.236 248.392 151.698 248.296 152.24 248.296C152.812 248.296 153.282 248.414 153.648 248.648C154.015 248.868 154.294 249.169 154.484 249.55C154.69 249.917 154.836 250.306 154.924 250.716C155.012 251.127 155.064 251.523 155.078 251.904C155.093 252.286 155.1 252.594 155.1 252.828V257.25H153.868V252.828C153.868 252.594 153.854 252.293 153.824 251.926C153.795 251.56 153.722 251.2 153.604 250.848C153.487 250.482 153.282 250.181 152.988 249.946C152.71 249.697 152.306 249.572 151.778 249.572C151.192 249.572 150.722 249.734 150.37 250.056C150.018 250.379 149.762 250.804 149.6 251.332C149.439 251.846 149.358 252.403 149.358 253.004V257.25H148.126V252.828C148.126 252.594 148.112 252.293 148.082 251.926C148.053 251.56 147.98 251.2 147.862 250.848C147.745 250.482 147.54 250.181 147.246 249.946C146.968 249.697 146.564 249.572 146.036 249.572C145.45 249.572 144.98 249.734 144.628 250.056C144.276 250.379 144.02 250.804 143.858 251.332C143.697 251.846 143.616 252.403 143.616 253.004V257.25H142.318ZM166.133 257.47C165.267 257.47 164.541 257.272 163.955 256.876C163.383 256.48 162.95 255.938 162.657 255.248C162.378 254.544 162.239 253.76 162.239 252.894C162.239 251.56 162.569 250.46 163.229 249.594C163.889 248.729 164.864 248.296 166.155 248.296C166.756 248.296 167.255 248.399 167.651 248.604C168.061 248.795 168.391 249.03 168.641 249.308C168.89 249.587 169.073 249.844 169.191 250.078C169.308 250.313 169.381 250.467 169.411 250.54H169.455L169.477 244.864H170.929V257.25H169.697L169.477 255.27H169.433C169.403 255.344 169.323 255.498 169.191 255.732C169.059 255.967 168.861 256.216 168.597 256.48C168.347 256.744 168.017 256.979 167.607 257.184C167.211 257.375 166.719 257.47 166.133 257.47ZM166.485 256.216C167.35 256.216 168.054 255.923 168.597 255.336C169.154 254.735 169.433 253.921 169.433 252.894C169.433 251.882 169.176 251.083 168.663 250.496C168.149 249.895 167.46 249.594 166.595 249.594C165.905 249.594 165.341 249.756 164.901 250.078C164.461 250.386 164.138 250.79 163.933 251.288C163.727 251.787 163.625 252.322 163.625 252.894C163.625 253.452 163.72 253.987 163.911 254.5C164.101 254.999 164.402 255.41 164.813 255.732C165.223 256.055 165.781 256.216 166.485 256.216ZM176.831 257.47C175.394 257.47 174.316 257.045 173.597 256.194C172.893 255.329 172.541 254.229 172.541 252.894C172.527 251.545 172.879 250.445 173.597 249.594C174.331 248.729 175.409 248.289 176.831 248.274C178.239 248.274 179.303 248.7 180.021 249.55C180.755 250.386 181.121 251.501 181.121 252.894C181.121 253.76 180.967 254.537 180.659 255.226C180.351 255.916 179.882 256.466 179.251 256.876C178.621 257.272 177.814 257.47 176.831 257.47ZM176.831 256.238C177.594 256.238 178.181 256.07 178.591 255.732C179.017 255.395 179.31 254.97 179.471 254.456C179.647 253.928 179.735 253.393 179.735 252.85C179.735 252.308 179.647 251.772 179.471 251.244C179.31 250.716 179.017 250.284 178.591 249.946C178.181 249.609 177.594 249.44 176.831 249.44C176.069 249.44 175.475 249.609 175.049 249.946C174.639 250.284 174.345 250.716 174.169 251.244C174.008 251.772 173.927 252.308 173.927 252.85C173.927 253.393 174.008 253.928 174.169 254.456C174.345 254.97 174.639 255.395 175.049 255.732C175.475 256.07 176.069 256.238 176.831 256.238ZM183.146 257.25V244.864H184.532V257.25H183.146ZM190.56 257.47C189.122 257.47 188.044 257.045 187.326 256.194C186.622 255.329 186.27 254.229 186.27 252.894C186.255 251.545 186.607 250.445 187.326 249.594C188.059 248.729 189.137 248.289 190.56 248.274C191.968 248.274 193.031 248.7 193.75 249.55C194.483 250.386 194.85 251.501 194.85 252.894C194.85 253.76 194.696 254.537 194.388 255.226C194.08 255.916 193.61 256.466 192.98 256.876C192.349 257.272 191.542 257.47 190.56 257.47ZM190.56 256.238C191.322 256.238 191.909 256.07 192.32 255.732C192.745 255.395 193.038 254.97 193.2 254.456C193.376 253.928 193.464 253.393 193.464 252.85C193.464 252.308 193.376 251.772 193.2 251.244C193.038 250.716 192.745 250.284 192.32 249.946C191.909 249.609 191.322 249.44 190.56 249.44C189.797 249.44 189.203 249.609 188.778 249.946C188.367 250.284 188.074 250.716 187.898 251.244C187.736 251.772 187.656 252.308 187.656 252.85C187.656 253.393 187.736 253.928 187.898 254.456C188.074 254.97 188.367 255.395 188.778 255.732C189.203 256.07 189.797 256.238 190.56 256.238ZM196.786 257.25V248.296H198.062L198.216 250.65C198.304 250.254 198.48 249.873 198.744 249.506C199.008 249.14 199.368 248.846 199.822 248.626C200.292 248.392 200.871 248.282 201.56 248.296H201.978V249.858H201.538C200.6 249.858 199.888 249.998 199.404 250.276C198.935 250.54 198.612 250.914 198.436 251.398C198.275 251.882 198.194 252.44 198.194 253.07V257.25H196.786ZM211.99 257.47C211.139 257.47 210.435 257.294 209.878 256.942C209.335 256.576 208.925 256.15 208.646 255.666C208.382 255.182 208.25 254.75 208.25 254.368H209.614C209.614 254.383 209.621 254.493 209.636 254.698C209.665 254.904 209.746 255.138 209.878 255.402C210.01 255.666 210.237 255.901 210.56 256.106C210.883 256.297 211.352 256.392 211.968 256.392C212.628 256.392 213.193 256.275 213.662 256.04C214.146 255.806 214.381 255.439 214.366 254.94C214.366 254.515 214.219 254.192 213.926 253.972C213.647 253.738 213.281 253.562 212.826 253.444C212.371 253.312 211.895 253.188 211.396 253.07C210.897 252.953 210.421 252.806 209.966 252.63C209.526 252.44 209.167 252.176 208.888 251.838C208.609 251.501 208.47 251.032 208.47 250.43C208.47 249.697 208.8 249.118 209.46 248.692C210.12 248.252 210.963 248.032 211.99 248.032C212.562 248.032 213.141 248.128 213.728 248.318C214.315 248.494 214.799 248.81 215.18 249.264C215.561 249.704 215.737 250.328 215.708 251.134H214.388C214.417 250.577 214.293 250.159 214.014 249.88C213.735 249.602 213.398 249.418 213.002 249.33C212.621 249.228 212.269 249.176 211.946 249.176C211.315 249.176 210.795 249.294 210.384 249.528C209.988 249.763 209.79 250.093 209.79 250.518C209.79 250.929 209.929 251.244 210.208 251.464C210.501 251.67 210.868 251.838 211.308 251.97C211.763 252.088 212.239 252.205 212.738 252.322C213.251 252.425 213.735 252.572 214.19 252.762C214.645 252.953 215.011 253.224 215.29 253.576C215.583 253.928 215.73 254.412 215.73 255.028C215.73 255.879 215.371 256.502 214.652 256.898C213.933 257.28 213.046 257.47 211.99 257.47ZM218.399 247.328C218.077 247.328 217.857 247.248 217.739 247.086C217.637 246.91 217.585 246.69 217.585 246.426C217.585 246.206 217.637 246.016 217.739 245.854C217.857 245.678 218.077 245.59 218.399 245.59C218.722 245.59 218.935 245.678 219.037 245.854C219.155 246.016 219.213 246.206 219.213 246.426C219.213 246.69 219.155 246.91 219.037 247.086C218.935 247.248 218.722 247.328 218.399 247.328ZM217.695 257.25V248.296H219.103V257.25H217.695ZM223.625 257.25C223.082 257.25 222.701 257.104 222.481 256.81C222.276 256.517 222.173 256.114 222.173 255.6V249.352H220.765V248.296C221.234 248.296 221.579 248.26 221.799 248.186C222.034 248.098 222.18 247.893 222.239 247.57C222.298 247.248 222.327 246.72 222.327 245.986H223.537V248.296H225.605V249.352H223.537V256.106H225.627V257.25H223.625ZM235.828 257.448C235.006 257.448 234.332 257.25 233.804 256.854C233.276 256.444 232.88 255.894 232.616 255.204C232.366 254.515 232.242 253.73 232.242 252.85C232.242 251.501 232.535 250.394 233.122 249.528C233.723 248.648 234.625 248.208 235.828 248.208C236.444 248.208 236.957 248.318 237.368 248.538C237.793 248.744 238.13 249 238.38 249.308C238.644 249.616 238.834 249.91 238.952 250.188H238.974V248.296H240.426V257.25H239.216L238.996 255.512H238.952C238.82 255.806 238.629 256.106 238.38 256.414C238.13 256.708 237.793 256.957 237.368 257.162C236.957 257.353 236.444 257.448 235.828 257.448ZM236.378 256.194C237.287 256.194 237.94 255.894 238.336 255.292C238.746 254.691 238.952 253.884 238.952 252.872C238.952 251.787 238.739 250.958 238.314 250.386C237.903 249.814 237.258 249.528 236.378 249.528C235.41 249.528 234.713 249.851 234.288 250.496C233.877 251.127 233.672 251.912 233.672 252.85C233.672 253.833 233.884 254.64 234.31 255.27C234.735 255.886 235.424 256.194 236.378 256.194ZM242.07 257.25V248.296H243.28L243.368 250.518H243.412C243.442 250.416 243.508 250.247 243.61 250.012C243.713 249.763 243.874 249.506 244.094 249.242C244.314 248.978 244.6 248.758 244.952 248.582C245.304 248.392 245.752 248.296 246.294 248.296C247.116 248.296 247.717 248.524 248.098 248.978C248.494 249.433 248.758 249.946 248.89 250.518H248.934C248.978 250.416 249.059 250.247 249.176 250.012C249.294 249.763 249.47 249.506 249.704 249.242C249.939 248.978 250.24 248.758 250.606 248.582C250.988 248.392 251.45 248.296 251.992 248.296C252.564 248.296 253.034 248.414 253.4 248.648C253.767 248.868 254.046 249.169 254.236 249.55C254.442 249.917 254.588 250.306 254.676 250.716C254.764 251.127 254.816 251.523 254.83 251.904C254.845 252.286 254.852 252.594 254.852 252.828V257.25H253.62V252.828C253.62 252.594 253.606 252.293 253.576 251.926C253.547 251.56 253.474 251.2 253.356 250.848C253.239 250.482 253.034 250.181 252.74 249.946C252.462 249.697 252.058 249.572 251.53 249.572C250.944 249.572 250.474 249.734 250.122 250.056C249.77 250.379 249.514 250.804 249.352 251.332C249.191 251.846 249.11 252.403 249.11 253.004V257.25H247.878V252.828C247.878 252.594 247.864 252.293 247.834 251.926C247.805 251.56 247.732 251.2 247.614 250.848C247.497 250.482 247.292 250.181 246.998 249.946C246.72 249.697 246.316 249.572 245.788 249.572C245.202 249.572 244.732 249.734 244.38 250.056C244.028 250.379 243.772 250.804 243.61 251.332C243.449 251.846 243.368 252.403 243.368 253.004V257.25H242.07ZM260.664 257.47C259.681 257.47 258.867 257.25 258.222 256.81C257.591 256.356 257.122 255.776 256.814 255.072C256.52 254.354 256.374 253.613 256.374 252.85C256.374 252.014 256.535 251.252 256.858 250.562C257.195 249.858 257.679 249.301 258.31 248.89C258.955 248.48 259.725 248.274 260.62 248.274C261.764 248.274 262.717 248.648 263.48 249.396C264.242 250.13 264.653 251.12 264.712 252.366C264.726 252.425 264.734 252.513 264.734 252.63C264.734 252.733 264.734 252.828 264.734 252.916H257.738C257.738 253.958 257.987 254.779 258.486 255.38C258.999 255.967 259.718 256.26 260.642 256.26C261.331 256.26 261.918 256.084 262.402 255.732C262.9 255.38 263.208 254.904 263.326 254.302H264.712C264.565 255.212 264.132 255.967 263.414 256.568C262.695 257.17 261.778 257.47 260.664 257.47ZM257.782 252.146H263.282C263.282 251.838 263.194 251.472 263.018 251.046C262.856 250.621 262.578 250.254 262.182 249.946C261.8 249.624 261.272 249.462 260.598 249.462C259.982 249.462 259.476 249.594 259.08 249.858C258.684 250.122 258.383 250.46 258.178 250.87C257.972 251.281 257.84 251.706 257.782 252.146ZM268.764 257.25C268.221 257.25 267.84 257.104 267.62 256.81C267.414 256.517 267.312 256.114 267.312 255.6V249.352H265.904V248.296C266.373 248.296 266.718 248.26 266.938 248.186C267.172 248.098 267.319 247.893 267.378 247.57C267.436 247.248 267.466 246.72 267.466 245.986H268.676V248.296H270.744V249.352H268.676V256.106H270.766V257.25H268.764ZM272.864 259.186V258.13H273.26C273.612 258.13 273.832 258.05 273.92 257.888C274.022 257.727 274.074 257.522 274.074 257.272C273.678 257.302 273.392 257.228 273.216 257.052C273.04 256.876 272.952 256.627 272.952 256.304C272.952 256.04 273.018 255.82 273.15 255.644C273.282 255.468 273.524 255.38 273.876 255.38C274.184 255.38 274.411 255.476 274.558 255.666C274.704 255.842 274.778 256.172 274.778 256.656C274.778 257.404 274.668 258.013 274.448 258.482C274.228 258.952 273.846 259.186 273.304 259.186H272.864ZM56.95 287.47C56.114 287.47 55.366 287.294 54.706 286.942C54.046 286.59 53.5253 286.077 53.144 285.402C52.7627 284.728 52.572 283.914 52.572 282.96C52.6013 282.022 52.7993 281.2 53.166 280.496C53.5473 279.792 54.068 279.25 54.728 278.868C55.388 278.472 56.1433 278.274 56.994 278.274C57.786 278.274 58.4753 278.421 59.062 278.714C59.6487 279.008 60.118 279.404 60.47 279.902C60.822 280.401 61.042 280.951 61.13 281.552H59.832C59.6853 280.907 59.3627 280.408 58.864 280.056C58.38 279.704 57.7713 279.528 57.038 279.528C56.0993 279.528 55.3513 279.844 54.794 280.474C54.2513 281.09 53.9727 281.897 53.958 282.894C53.958 283.906 54.222 284.713 54.75 285.314C55.2927 285.901 56.048 286.194 57.016 286.194C57.72 286.194 58.3287 286.018 58.842 285.666C59.3553 285.314 59.6853 284.808 59.832 284.148H61.13C61.042 284.764 60.8147 285.322 60.448 285.82C60.096 286.319 59.6193 286.722 59.018 287.03C58.4313 287.324 57.742 287.47 56.95 287.47ZM66.8313 287.47C65.3939 287.47 64.3159 287.045 63.5973 286.194C62.8933 285.329 62.5413 284.229 62.5413 282.894C62.5266 281.545 62.8786 280.445 63.5973 279.594C64.3306 278.729 65.4086 278.289 66.8313 278.274C68.2393 278.274 69.3026 278.7 70.0213 279.55C70.7546 280.386 71.1213 281.501 71.1213 282.894C71.1213 283.76 70.9673 284.537 70.6593 285.226C70.3513 285.916 69.8819 286.466 69.2513 286.876C68.6206 287.272 67.8139 287.47 66.8313 287.47ZM66.8313 286.238C67.5939 286.238 68.1806 286.07 68.5913 285.732C69.0166 285.395 69.3099 284.97 69.4713 284.456C69.6473 283.928 69.7353 283.393 69.7353 282.85C69.7353 282.308 69.6473 281.772 69.4713 281.244C69.3099 280.716 69.0166 280.284 68.5913 279.946C68.1806 279.609 67.5939 279.44 66.8313 279.44C66.0686 279.44 65.4746 279.609 65.0493 279.946C64.6386 280.284 64.3453 280.716 64.1693 281.244C64.0079 281.772 63.9273 282.308 63.9273 282.85C63.9273 283.393 64.0079 283.928 64.1693 284.456C64.3453 284.97 64.6386 285.395 65.0493 285.732C65.4746 286.07 66.0686 286.238 66.8313 286.238ZM72.838 287.25V278.296H74.048L74.29 280.518H74.334C74.3486 280.445 74.4146 280.291 74.532 280.056C74.6493 279.822 74.8253 279.572 75.06 279.308C75.3093 279.03 75.632 278.795 76.028 278.604C76.424 278.399 76.93 278.296 77.546 278.296C78.3233 278.296 78.932 278.436 79.372 278.714C79.8266 278.993 80.164 279.367 80.384 279.836C80.604 280.291 80.7433 280.782 80.802 281.31C80.8606 281.838 80.89 282.344 80.89 282.828V287.25H79.526V282.828C79.526 281.86 79.3573 281.076 79.02 280.474C78.6973 279.873 78.052 279.572 77.084 279.572C76.424 279.572 75.8813 279.734 75.456 280.056C75.0453 280.364 74.7446 280.782 74.554 281.31C74.378 281.824 74.29 282.388 74.29 283.004V287.25H72.838ZM86.2203 287.47C85.3696 287.47 84.6656 287.294 84.1083 286.942C83.5656 286.576 83.155 286.15 82.8763 285.666C82.6123 285.182 82.4803 284.75 82.4803 284.368H83.8443C83.8443 284.383 83.8516 284.493 83.8663 284.698C83.8956 284.904 83.9763 285.138 84.1083 285.402C84.2403 285.666 84.4676 285.901 84.7903 286.106C85.113 286.297 85.5823 286.392 86.1983 286.392C86.8583 286.392 87.423 286.275 87.8923 286.04C88.3763 285.806 88.611 285.439 88.5963 284.94C88.5963 284.515 88.4496 284.192 88.1563 283.972C87.8776 283.738 87.511 283.562 87.0563 283.444C86.6016 283.312 86.125 283.188 85.6263 283.07C85.1276 282.953 84.651 282.806 84.1963 282.63C83.7563 282.44 83.397 282.176 83.1183 281.838C82.8396 281.501 82.7003 281.032 82.7003 280.43C82.7003 279.697 83.0303 279.118 83.6903 278.692C84.3503 278.252 85.1936 278.032 86.2203 278.032C86.7923 278.032 87.3716 278.128 87.9583 278.318C88.545 278.494 89.029 278.81 89.4103 279.264C89.7916 279.704 89.9676 280.328 89.9383 281.134H88.6183C88.6476 280.577 88.523 280.159 88.2443 279.88C87.9656 279.602 87.6283 279.418 87.2323 279.33C86.851 279.228 86.499 279.176 86.1763 279.176C85.5456 279.176 85.025 279.294 84.6143 279.528C84.2183 279.763 84.0203 280.093 84.0203 280.518C84.0203 280.929 84.1596 281.244 84.4383 281.464C84.7316 281.67 85.0983 281.838 85.5383 281.97C85.993 282.088 86.4696 282.205 86.9683 282.322C87.4816 282.425 87.9656 282.572 88.4203 282.762C88.875 282.953 89.2416 283.224 89.5203 283.576C89.8136 283.928 89.9603 284.412 89.9603 285.028C89.9603 285.879 89.601 286.502 88.8823 286.898C88.1636 287.28 87.2763 287.47 86.2203 287.47ZM95.5779 287.47C94.5952 287.47 93.7812 287.25 93.1359 286.81C92.5052 286.356 92.0359 285.776 91.7279 285.072C91.4345 284.354 91.2879 283.613 91.2879 282.85C91.2879 282.014 91.4492 281.252 91.7719 280.562C92.1092 279.858 92.5932 279.301 93.2239 278.89C93.8692 278.48 94.6392 278.274 95.5339 278.274C96.6779 278.274 97.6312 278.648 98.3939 279.396C99.1565 280.13 99.5672 281.12 99.6259 282.366C99.6405 282.425 99.6479 282.513 99.6479 282.63C99.6479 282.733 99.6479 282.828 99.6479 282.916H92.6519C92.6519 283.958 92.9012 284.779 93.3999 285.38C93.9132 285.967 94.6319 286.26 95.5559 286.26C96.2452 286.26 96.8319 286.084 97.3159 285.732C97.8145 285.38 98.1225 284.904 98.2399 284.302H99.6259C99.4792 285.212 99.0465 285.967 98.3279 286.568C97.6092 287.17 96.6925 287.47 95.5779 287.47ZM92.6959 282.146H98.1959C98.1959 281.838 98.1079 281.472 97.9319 281.046C97.7705 280.621 97.4919 280.254 97.0959 279.946C96.7145 279.624 96.1865 279.462 95.5119 279.462C94.8959 279.462 94.3899 279.594 93.9939 279.858C93.5979 280.122 93.2972 280.46 93.0919 280.87C92.8865 281.281 92.7545 281.706 92.6959 282.146ZM105.548 287.47C104.712 287.47 103.964 287.294 103.304 286.942C102.644 286.59 102.123 286.077 101.742 285.402C101.36 284.728 101.17 283.914 101.17 282.96C101.199 282.022 101.397 281.2 101.764 280.496C102.145 279.792 102.666 279.25 103.326 278.868C103.986 278.472 104.741 278.274 105.592 278.274C106.384 278.274 107.073 278.421 107.66 278.714C108.246 279.008 108.716 279.404 109.068 279.902C109.42 280.401 109.64 280.951 109.728 281.552H108.43C108.283 280.907 107.96 280.408 107.462 280.056C106.978 279.704 106.369 279.528 105.636 279.528C104.697 279.528 103.949 279.844 103.392 280.474C102.849 281.09 102.57 281.897 102.556 282.894C102.556 283.906 102.82 284.713 103.348 285.314C103.89 285.901 104.646 286.194 105.614 286.194C106.318 286.194 106.926 286.018 107.44 285.666C107.953 285.314 108.283 284.808 108.43 284.148H109.728C109.64 284.764 109.412 285.322 109.046 285.82C108.694 286.319 108.217 286.722 107.616 287.03C107.029 287.324 106.34 287.47 105.548 287.47ZM113.625 287.25C113.082 287.25 112.701 287.104 112.481 286.81C112.276 286.517 112.173 286.114 112.173 285.6V279.352H110.765V278.296C111.234 278.296 111.579 278.26 111.799 278.186C112.034 278.098 112.18 277.893 112.239 277.57C112.298 277.248 112.327 276.72 112.327 275.986H113.537V278.296H115.605V279.352H113.537V286.106H115.627V287.25H113.625ZM121.252 287.47C120.269 287.47 119.455 287.25 118.81 286.81C118.179 286.356 117.71 285.776 117.402 285.072C117.108 284.354 116.962 283.613 116.962 282.85C116.962 282.014 117.123 281.252 117.446 280.562C117.783 279.858 118.267 279.301 118.898 278.89C119.543 278.48 120.313 278.274 121.208 278.274C122.352 278.274 123.305 278.648 124.068 279.396C124.83 280.13 125.241 281.12 125.3 282.366C125.314 282.425 125.322 282.513 125.322 282.63C125.322 282.733 125.322 282.828 125.322 282.916H118.326C118.326 283.958 118.575 284.779 119.074 285.38C119.587 285.967 120.306 286.26 121.23 286.26C121.919 286.26 122.506 286.084 122.99 285.732C123.488 285.38 123.796 284.904 123.914 284.302H125.3C125.153 285.212 124.72 285.967 124.002 286.568C123.283 287.17 122.366 287.47 121.252 287.47ZM118.37 282.146H123.87C123.87 281.838 123.782 281.472 123.606 281.046C123.444 280.621 123.166 280.254 122.77 279.946C122.388 279.624 121.86 279.462 121.186 279.462C120.57 279.462 120.064 279.594 119.668 279.858C119.272 280.122 118.971 280.46 118.766 280.87C118.56 281.281 118.428 281.706 118.37 282.146ZM129.351 287.25C128.809 287.25 128.427 287.104 128.207 286.81C128.002 286.517 127.899 286.114 127.899 285.6V279.352H126.491V278.296C126.961 278.296 127.305 278.26 127.525 278.186C127.76 278.098 127.907 277.893 127.965 277.57C128.024 277.248 128.053 276.72 128.053 275.986H129.263V278.296H131.331V279.352H129.263V286.106H131.353V287.25H129.351ZM136.51 287.47C135.776 287.47 135.182 287.338 134.728 287.074C134.288 286.81 133.95 286.458 133.716 286.018C133.481 285.564 133.32 285.072 133.232 284.544C133.158 284.002 133.122 283.459 133.122 282.916V278.296H134.53V282.938C134.53 283.525 134.588 284.068 134.706 284.566C134.823 285.065 135.058 285.461 135.41 285.754C135.776 286.048 136.304 286.194 136.994 286.194C137.654 286.194 138.167 286.048 138.534 285.754C138.915 285.446 139.194 285.05 139.37 284.566C139.546 284.082 139.648 283.576 139.678 283.048V278.296H141.13V287.25H139.92L139.678 285.248H139.634C139.56 285.498 139.406 285.798 139.172 286.15C138.937 286.502 138.6 286.81 138.16 287.074C137.734 287.338 137.184 287.47 136.51 287.47ZM143.204 287.25V278.296H144.48L144.634 280.65C144.722 280.254 144.898 279.873 145.162 279.506C145.426 279.14 145.786 278.846 146.24 278.626C146.71 278.392 147.289 278.282 147.978 278.296H148.396V279.858H147.956C147.018 279.858 146.306 279.998 145.822 280.276C145.353 280.54 145.03 280.914 144.854 281.398C144.693 281.882 144.612 282.44 144.612 283.07V287.25H143.204ZM157.99 287.448C157.168 287.448 156.494 287.25 155.966 286.854C155.438 286.444 155.042 285.894 154.778 285.204C154.528 284.515 154.404 283.73 154.404 282.85C154.404 281.501 154.697 280.394 155.284 279.528C155.885 278.648 156.787 278.208 157.99 278.208C158.606 278.208 159.119 278.318 159.53 278.538C159.955 278.744 160.292 279 160.542 279.308C160.806 279.616 160.996 279.91 161.114 280.188H161.136V278.296H162.588V287.25H161.378L161.158 285.512H161.114C160.982 285.806 160.791 286.106 160.542 286.414C160.292 286.708 159.955 286.957 159.53 287.162C159.119 287.353 158.606 287.448 157.99 287.448ZM158.54 286.194C159.449 286.194 160.102 285.894 160.498 285.292C160.908 284.691 161.114 283.884 161.114 282.872C161.114 281.787 160.901 280.958 160.476 280.386C160.065 279.814 159.42 279.528 158.54 279.528C157.572 279.528 156.875 279.851 156.45 280.496C156.039 281.127 155.834 281.912 155.834 282.85C155.834 283.833 156.046 284.64 156.472 285.27C156.897 285.886 157.586 286.194 158.54 286.194ZM168.302 287.47C167.437 287.47 166.711 287.272 166.124 286.876C165.552 286.48 165.12 285.938 164.826 285.248C164.548 284.544 164.408 283.76 164.408 282.894C164.408 281.56 164.738 280.46 165.398 279.594C166.058 278.729 167.034 278.296 168.324 278.296C168.926 278.296 169.424 278.399 169.82 278.604C170.231 278.795 170.561 279.03 170.81 279.308C171.06 279.587 171.243 279.844 171.36 280.078C171.478 280.313 171.551 280.467 171.58 280.54H171.624L171.646 274.864H173.098V287.25H171.866L171.646 285.27H171.602C171.573 285.344 171.492 285.498 171.36 285.732C171.228 285.967 171.03 286.216 170.766 286.48C170.517 286.744 170.187 286.979 169.776 287.184C169.38 287.375 168.889 287.47 168.302 287.47ZM168.654 286.216C169.52 286.216 170.224 285.923 170.766 285.336C171.324 284.735 171.602 283.921 171.602 282.894C171.602 281.882 171.346 281.083 170.832 280.496C170.319 279.895 169.63 279.594 168.764 279.594C168.075 279.594 167.51 279.756 167.07 280.078C166.63 280.386 166.308 280.79 166.102 281.288C165.897 281.787 165.794 282.322 165.794 282.894C165.794 283.452 165.89 283.987 166.08 284.5C166.271 284.999 166.572 285.41 166.982 285.732C167.393 286.055 167.95 286.216 168.654 286.216ZM176.075 277.328C175.753 277.328 175.533 277.248 175.415 277.086C175.313 276.91 175.261 276.69 175.261 276.426C175.261 276.206 175.313 276.016 175.415 275.854C175.533 275.678 175.753 275.59 176.075 275.59C176.398 275.59 176.611 275.678 176.713 275.854C176.831 276.016 176.889 276.206 176.889 276.426C176.889 276.69 176.831 276.91 176.713 277.086C176.611 277.248 176.398 277.328 176.075 277.328ZM175.371 287.25V278.296H176.779V287.25H175.371ZM183.836 287.47C183.264 287.47 182.773 287.375 182.362 287.184C181.966 286.979 181.643 286.744 181.394 286.48C181.145 286.216 180.954 285.967 180.822 285.732C180.705 285.498 180.631 285.344 180.602 285.27H180.558V290.946H179.106V278.296H180.316L180.558 280.54H180.602C180.631 280.467 180.705 280.313 180.822 280.078C180.939 279.844 181.115 279.587 181.35 279.308C181.599 279.03 181.922 278.795 182.318 278.604C182.729 278.399 183.235 278.296 183.836 278.296C184.701 278.296 185.42 278.494 185.992 278.89C186.579 279.286 187.019 279.836 187.312 280.54C187.62 281.23 187.774 282.022 187.774 282.916C187.774 284.251 187.437 285.344 186.762 286.194C186.087 287.045 185.112 287.47 183.836 287.47ZM183.55 286.216C184.239 286.216 184.789 286.055 185.2 285.732C185.625 285.41 185.926 284.999 186.102 284.5C186.293 283.987 186.388 283.452 186.388 282.894C186.388 282.322 186.285 281.787 186.08 281.288C185.875 280.79 185.552 280.386 185.112 280.078C184.687 279.756 184.122 279.594 183.418 279.594C182.567 279.594 181.885 279.895 181.372 280.496C180.859 281.083 180.602 281.882 180.602 282.894C180.602 283.921 180.873 284.735 181.416 285.336C181.959 285.923 182.67 286.216 183.55 286.216ZM190.405 277.328C190.083 277.328 189.863 277.248 189.745 277.086C189.643 276.91 189.591 276.69 189.591 276.426C189.591 276.206 189.643 276.016 189.745 275.854C189.863 275.678 190.083 275.59 190.405 275.59C190.728 275.59 190.941 275.678 191.043 275.854C191.161 276.016 191.219 276.206 191.219 276.426C191.219 276.69 191.161 276.91 191.043 277.086C190.941 277.248 190.728 277.328 190.405 277.328ZM189.701 287.25V278.296H191.109V287.25H189.701ZM196.736 287.47C195.885 287.47 195.181 287.294 194.624 286.942C194.081 286.576 193.671 286.15 193.392 285.666C193.128 285.182 192.996 284.75 192.996 284.368H194.36C194.36 284.383 194.367 284.493 194.382 284.698C194.411 284.904 194.492 285.138 194.624 285.402C194.756 285.666 194.983 285.901 195.306 286.106C195.629 286.297 196.098 286.392 196.714 286.392C197.374 286.392 197.939 286.275 198.408 286.04C198.892 285.806 199.127 285.439 199.112 284.94C199.112 284.515 198.965 284.192 198.672 283.972C198.393 283.738 198.027 283.562 197.572 283.444C197.117 283.312 196.641 283.188 196.142 283.07C195.643 282.953 195.167 282.806 194.712 282.63C194.272 282.44 193.913 282.176 193.634 281.838C193.355 281.501 193.216 281.032 193.216 280.43C193.216 279.697 193.546 279.118 194.206 278.692C194.866 278.252 195.709 278.032 196.736 278.032C197.308 278.032 197.887 278.128 198.474 278.318C199.061 278.494 199.545 278.81 199.926 279.264C200.307 279.704 200.483 280.328 200.454 281.134H199.134C199.163 280.577 199.039 280.159 198.76 279.88C198.481 279.602 198.144 279.418 197.748 279.33C197.367 279.228 197.015 279.176 196.692 279.176C196.061 279.176 195.541 279.294 195.13 279.528C194.734 279.763 194.536 280.093 194.536 280.518C194.536 280.929 194.675 281.244 194.954 281.464C195.247 281.67 195.614 281.838 196.054 281.97C196.509 282.088 196.985 282.205 197.484 282.322C197.997 282.425 198.481 282.572 198.936 282.762C199.391 282.953 199.757 283.224 200.036 283.576C200.329 283.928 200.476 284.412 200.476 285.028C200.476 285.879 200.117 286.502 199.398 286.898C198.679 287.28 197.792 287.47 196.736 287.47ZM206.138 287.47C205.302 287.47 204.554 287.294 203.894 286.942C203.234 286.59 202.713 286.077 202.332 285.402C201.95 284.728 201.76 283.914 201.76 282.96C201.789 282.022 201.987 281.2 202.354 280.496C202.735 279.792 203.256 279.25 203.916 278.868C204.576 278.472 205.331 278.274 206.182 278.274C206.974 278.274 207.663 278.421 208.25 278.714C208.836 279.008 209.306 279.404 209.658 279.902C210.01 280.401 210.23 280.951 210.318 281.552H209.02C208.873 280.907 208.55 280.408 208.052 280.056C207.568 279.704 206.959 279.528 206.226 279.528C205.287 279.528 204.539 279.844 203.982 280.474C203.439 281.09 203.16 281.897 203.146 282.894C203.146 283.906 203.41 284.713 203.938 285.314C204.48 285.901 205.236 286.194 206.204 286.194C206.908 286.194 207.516 286.018 208.03 285.666C208.543 285.314 208.873 284.808 209.02 284.148H210.318C210.23 284.764 210.002 285.322 209.636 285.82C209.284 286.319 208.807 286.722 208.206 287.03C207.619 287.324 206.93 287.47 206.138 287.47ZM213.093 277.328C212.77 277.328 212.55 277.248 212.433 277.086C212.33 276.91 212.279 276.69 212.279 276.426C212.279 276.206 212.33 276.016 212.433 275.854C212.55 275.678 212.77 275.59 213.093 275.59C213.415 275.59 213.628 275.678 213.731 275.854C213.848 276.016 213.907 276.206 213.907 276.426C213.907 276.69 213.848 276.91 213.731 277.086C213.628 277.248 213.415 277.328 213.093 277.328ZM212.389 287.25V278.296H213.797V287.25H212.389ZM215.859 287.25V278.296H217.069L217.311 280.518H217.355C217.37 280.445 217.436 280.291 217.553 280.056C217.671 279.822 217.847 279.572 218.081 279.308C218.331 279.03 218.653 278.795 219.049 278.604C219.445 278.399 219.951 278.296 220.567 278.296C221.345 278.296 221.953 278.436 222.393 278.714C222.848 278.993 223.185 279.367 223.405 279.836C223.625 280.291 223.765 280.782 223.823 281.31C223.882 281.838 223.911 282.344 223.911 282.828V287.25H222.547V282.828C222.547 281.86 222.379 281.076 222.041 280.474C221.719 279.873 221.073 279.572 220.105 279.572C219.445 279.572 218.903 279.734 218.477 280.056C218.067 280.364 217.766 280.782 217.575 281.31C217.399 281.824 217.311 282.388 217.311 283.004V287.25H215.859ZM227.878 290.946V289.604H232.344V285.27H232.3C232.27 285.344 232.19 285.498 232.058 285.732C231.94 285.967 231.75 286.216 231.486 286.48C231.236 286.744 230.906 286.979 230.496 287.184C230.1 287.375 229.616 287.47 229.044 287.47C228.178 287.47 227.452 287.272 226.866 286.876C226.294 286.466 225.861 285.916 225.568 285.226C225.274 284.537 225.128 283.76 225.128 282.894C225.128 281.545 225.458 280.445 226.118 279.594C226.792 278.729 227.775 278.296 229.066 278.296C229.667 278.296 230.166 278.399 230.562 278.604C230.972 278.795 231.295 279.03 231.53 279.308C231.779 279.587 231.962 279.844 232.08 280.078C232.197 280.313 232.27 280.467 232.3 280.54H232.344V278.296H233.796V288.79C233.796 289.494 233.664 290.03 233.4 290.396C233.136 290.763 232.659 290.946 231.97 290.946H227.878ZM229.352 286.216C230.232 286.216 230.943 285.923 231.486 285.336C232.028 284.735 232.3 283.921 232.3 282.894C232.3 281.882 232.043 281.083 231.53 280.496C231.016 279.895 230.334 279.594 229.484 279.594C228.78 279.594 228.208 279.756 227.768 280.078C227.342 280.386 227.027 280.79 226.822 281.288C226.616 281.787 226.514 282.322 226.514 282.894C226.514 283.452 226.602 283.987 226.778 284.5C226.968 284.999 227.269 285.41 227.68 285.732C228.105 286.055 228.662 286.216 229.352 286.216ZM244.959 287.47C243.976 287.47 243.162 287.25 242.517 286.81C241.886 286.356 241.417 285.776 241.109 285.072C240.815 284.354 240.669 283.613 240.669 282.85C240.669 282.014 240.83 281.252 241.153 280.562C241.49 279.858 241.974 279.301 242.605 278.89C243.25 278.48 244.02 278.274 244.915 278.274C246.059 278.274 247.012 278.648 247.775 279.396C248.537 280.13 248.948 281.12 249.007 282.366C249.021 282.425 249.029 282.513 249.029 282.63C249.029 282.733 249.029 282.828 249.029 282.916H242.033C242.033 283.958 242.282 284.779 242.781 285.38C243.294 285.967 244.013 286.26 244.937 286.26C245.626 286.26 246.213 286.084 246.697 285.732C247.195 285.38 247.503 284.904 247.621 284.302H249.007C248.86 285.212 248.427 285.967 247.709 286.568C246.99 287.17 246.073 287.47 244.959 287.47ZM242.077 282.146H247.577C247.577 281.838 247.489 281.472 247.313 281.046C247.151 280.621 246.873 280.254 246.477 279.946C246.095 279.624 245.567 279.462 244.893 279.462C244.277 279.462 243.771 279.594 243.375 279.858C242.979 280.122 242.678 280.46 242.473 280.87C242.267 281.281 242.135 281.706 242.077 282.146ZM251.123 287.25V274.864H252.509V287.25H251.123ZM255.61 277.328C255.288 277.328 255.068 277.248 254.95 277.086C254.848 276.91 254.796 276.69 254.796 276.426C254.796 276.206 254.848 276.016 254.95 275.854C255.068 275.678 255.288 275.59 255.61 275.59C255.933 275.59 256.146 275.678 256.248 275.854C256.366 276.016 256.424 276.206 256.424 276.426C256.424 276.69 256.366 276.91 256.248 277.086C256.146 277.248 255.933 277.328 255.61 277.328ZM254.906 287.25V278.296H256.314V287.25H254.906ZM260.836 287.25C260.293 287.25 259.912 287.104 259.692 286.81C259.487 286.517 259.384 286.114 259.384 285.6V279.352H257.976V278.296C258.445 278.296 258.79 278.26 259.01 278.186C259.245 278.098 259.391 277.893 259.45 277.57C259.509 277.248 259.538 276.72 259.538 275.986H260.748V278.296H262.816V279.352H260.748V286.106H262.838V287.25H260.836ZM265.53 287.25C265.163 287.25 264.914 287.155 264.782 286.964C264.665 286.759 264.606 286.524 264.606 286.26C264.606 285.982 264.665 285.747 264.782 285.556C264.914 285.366 265.163 285.27 265.53 285.27C265.897 285.27 266.139 285.366 266.256 285.556C266.388 285.747 266.454 285.982 266.454 286.26C266.454 286.539 266.388 286.774 266.256 286.964C266.139 287.155 265.897 287.25 265.53 287.25ZM278.953 286.018V287.25H274.157V286.018H275.851V276.096H274.157V274.864H278.953V276.096H277.259V286.018H278.953ZM281.236 287.25V278.296H282.446L282.688 280.518H282.732C282.747 280.445 282.813 280.291 282.93 280.056C283.048 279.822 283.224 279.572 283.458 279.308C283.708 279.03 284.03 278.795 284.426 278.604C284.822 278.399 285.328 278.296 285.944 278.296C286.722 278.296 287.33 278.436 287.77 278.714C288.225 278.993 288.562 279.367 288.782 279.836C289.002 280.291 289.142 280.782 289.2 281.31C289.259 281.838 289.288 282.344 289.288 282.828V287.25H287.924V282.828C287.924 281.86 287.756 281.076 287.418 280.474C287.096 279.873 286.45 279.572 285.482 279.572C284.822 279.572 284.28 279.734 283.854 280.056C283.444 280.364 283.143 280.782 282.952 281.31C282.776 281.824 282.688 282.388 282.688 283.004V287.25H281.236ZM56.158 317.47C55.4247 317.47 54.8307 317.338 54.376 317.074C53.936 316.81 53.5987 316.458 53.364 316.018C53.1293 315.564 52.968 315.072 52.88 314.544C52.8067 314.002 52.77 313.459 52.77 312.916V308.296H54.178V312.938C54.178 313.525 54.2367 314.068 54.354 314.566C54.4713 315.065 54.706 315.461 55.058 315.754C55.4247 316.048 55.9527 316.194 56.642 316.194C57.302 316.194 57.8153 316.048 58.182 315.754C58.5633 315.446 58.842 315.05 59.018 314.566C59.194 314.082 59.2967 313.576 59.326 313.048V308.296H60.778V317.25H59.568L59.326 315.248H59.282C59.2087 315.498 59.0547 315.798 58.82 316.15C58.5853 316.502 58.248 316.81 57.808 317.074C57.3827 317.338 56.8327 317.47 56.158 317.47ZM62.8529 317.25V308.296H64.1289L64.2829 310.65C64.3709 310.254 64.5469 309.873 64.8109 309.506C65.0749 309.14 65.4342 308.846 65.8889 308.626C66.3582 308.392 66.9375 308.282 67.6269 308.296H68.0449V309.858H67.6049C66.6662 309.858 65.9549 309.998 65.4709 310.276C65.0015 310.54 64.6789 310.914 64.5029 311.398C64.3415 311.882 64.2609 312.44 64.2609 313.07V317.25H62.8529ZM69.2715 317.25V308.296H70.4815L70.7235 310.518H70.7675C70.7822 310.445 70.8482 310.291 70.9655 310.056C71.0829 309.822 71.2589 309.572 71.4935 309.308C71.7429 309.03 72.0655 308.795 72.4615 308.604C72.8575 308.399 73.3635 308.296 73.9795 308.296C74.7569 308.296 75.3655 308.436 75.8055 308.714C76.2602 308.993 76.5975 309.367 76.8175 309.836C77.0375 310.291 77.1769 310.782 77.2355 311.31C77.2942 311.838 77.3235 312.344 77.3235 312.828V317.25H75.9595V312.828C75.9595 311.86 75.7909 311.076 75.4535 310.474C75.1309 309.873 74.4855 309.572 73.5175 309.572C72.8575 309.572 72.3149 309.734 71.8895 310.056C71.4789 310.364 71.1782 310.782 70.9875 311.31C70.8115 311.824 70.7235 312.388 70.7235 313.004V317.25H69.2715ZM82.2359 317.448C81.4146 317.448 80.7399 317.25 80.2119 316.854C79.6839 316.444 79.2879 315.894 79.0239 315.204C78.7746 314.515 78.6499 313.73 78.6499 312.85C78.6499 311.501 78.9432 310.394 79.5299 309.528C80.1312 308.648 81.0332 308.208 82.2359 308.208C82.8519 308.208 83.3652 308.318 83.7759 308.538C84.2012 308.744 84.5386 309 84.7879 309.308C85.0519 309.616 85.2426 309.91 85.3599 310.188H85.3819V308.296H86.8339V317.25H85.6239L85.4039 315.512H85.3599C85.2279 315.806 85.0372 316.106 84.7879 316.414C84.5386 316.708 84.2012 316.957 83.7759 317.162C83.3652 317.353 82.8519 317.448 82.2359 317.448ZM82.7859 316.194C83.6952 316.194 84.3479 315.894 84.7439 315.292C85.1546 314.691 85.3599 313.884 85.3599 312.872C85.3599 311.787 85.1472 310.958 84.7219 310.386C84.3112 309.814 83.6659 309.528 82.7859 309.528C81.8179 309.528 81.1212 309.851 80.6959 310.496C80.2852 311.127 80.0799 311.912 80.0799 312.85C80.0799 313.833 80.2926 314.64 80.7179 315.27C81.1432 315.886 81.8326 316.194 82.7859 316.194ZM88.7426 319.186V318.13H89.1386C89.4906 318.13 89.7106 318.05 89.7986 317.888C89.9012 317.727 89.9526 317.522 89.9526 317.272C89.5566 317.302 89.2706 317.228 89.0946 317.052C88.9186 316.876 88.8306 316.627 88.8306 316.304C88.8306 316.04 88.8966 315.82 89.0286 315.644C89.1606 315.468 89.4026 315.38 89.7546 315.38C90.0626 315.38 90.2899 315.476 90.4366 315.666C90.5832 315.842 90.6566 316.172 90.6566 316.656C90.6566 317.404 90.5466 318.013 90.3266 318.482C90.1066 318.952 89.7252 319.186 89.1826 319.186H88.7426ZM97.8028 317.25V308.296H99.0128L99.2548 310.518H99.2988C99.3135 310.445 99.3795 310.291 99.4968 310.056C99.6141 309.822 99.7901 309.572 100.025 309.308C100.274 309.03 100.597 308.795 100.993 308.604C101.389 308.399 101.895 308.296 102.511 308.296C103.288 308.296 103.897 308.436 104.337 308.714C104.791 308.993 105.129 309.367 105.349 309.836C105.569 310.291 105.708 310.782 105.767 311.31C105.825 311.838 105.855 312.344 105.855 312.828V317.25H104.491V312.828C104.491 311.86 104.322 311.076 103.985 310.474C103.662 309.873 103.017 309.572 102.049 309.572C101.389 309.572 100.846 309.734 100.421 310.056C100.01 310.364 99.7095 310.782 99.5188 311.31C99.3428 311.824 99.2548 312.388 99.2548 313.004V317.25H97.8028ZM111.669 317.47C110.232 317.47 109.154 317.045 108.435 316.194C107.731 315.329 107.379 314.229 107.379 312.894C107.364 311.545 107.716 310.445 108.435 309.594C109.168 308.729 110.246 308.289 111.669 308.274C113.077 308.274 114.14 308.7 114.859 309.55C115.592 310.386 115.959 311.501 115.959 312.894C115.959 313.76 115.805 314.537 115.497 315.226C115.189 315.916 114.72 316.466 114.089 316.876C113.458 317.272 112.652 317.47 111.669 317.47ZM111.669 316.238C112.432 316.238 113.018 316.07 113.429 315.732C113.854 315.395 114.148 314.97 114.309 314.456C114.485 313.928 114.573 313.393 114.573 312.85C114.573 312.308 114.485 311.772 114.309 311.244C114.148 310.716 113.854 310.284 113.429 309.946C113.018 309.609 112.432 309.44 111.669 309.44C110.906 309.44 110.312 309.609 109.887 309.946C109.476 310.284 109.183 310.716 109.007 311.244C108.846 311.772 108.765 312.308 108.765 312.85C108.765 313.393 108.846 313.928 109.007 314.456C109.183 314.97 109.476 315.395 109.887 315.732C110.312 316.07 110.906 316.238 111.669 316.238ZM117.676 317.25V308.296H118.886L119.128 310.518H119.172C119.187 310.445 119.253 310.291 119.37 310.056C119.487 309.822 119.663 309.572 119.898 309.308C120.147 309.03 120.47 308.795 120.866 308.604C121.262 308.399 121.768 308.296 122.384 308.296C123.161 308.296 123.77 308.436 124.21 308.714C124.665 308.993 125.002 309.367 125.222 309.836C125.442 310.291 125.581 310.782 125.64 311.31C125.699 311.838 125.728 312.344 125.728 312.828V317.25H124.364V312.828C124.364 311.86 124.195 311.076 123.858 310.474C123.535 309.873 122.89 309.572 121.922 309.572C121.262 309.572 120.719 309.734 120.294 310.056C119.883 310.364 119.583 310.782 119.392 311.31C119.216 311.824 119.128 312.388 119.128 313.004V317.25H117.676ZM132.715 317.25V308.296H133.925L134.167 310.518H134.211C134.226 310.445 134.292 310.291 134.409 310.056C134.526 309.822 134.702 309.572 134.937 309.308C135.186 309.03 135.509 308.795 135.905 308.604C136.301 308.399 136.807 308.296 137.423 308.296C138.2 308.296 138.809 308.436 139.249 308.714C139.704 308.993 140.041 309.367 140.261 309.836C140.481 310.291 140.62 310.782 140.679 311.31C140.738 311.838 140.767 312.344 140.767 312.828V317.25H139.403V312.828C139.403 311.86 139.234 311.076 138.897 310.474C138.574 309.873 137.929 309.572 136.961 309.572C136.301 309.572 135.758 309.734 135.333 310.056C134.922 310.364 134.622 310.782 134.431 311.31C134.255 311.824 134.167 312.388 134.167 313.004V317.25H132.715ZM143.655 307.328C143.333 307.328 143.113 307.248 142.995 307.086C142.893 306.91 142.841 306.69 142.841 306.426C142.841 306.206 142.893 306.016 142.995 305.854C143.113 305.678 143.333 305.59 143.655 305.59C143.978 305.59 144.191 305.678 144.293 305.854C144.411 306.016 144.469 306.206 144.469 306.426C144.469 306.69 144.411 306.91 144.293 307.086C144.191 307.248 143.978 307.328 143.655 307.328ZM142.951 317.25V308.296H144.359V317.25H142.951ZM149.986 317.47C149.135 317.47 148.431 317.294 147.874 316.942C147.331 316.576 146.921 316.15 146.642 315.666C146.378 315.182 146.246 314.75 146.246 314.368H147.61C147.61 314.383 147.617 314.493 147.632 314.698C147.661 314.904 147.742 315.138 147.874 315.402C148.006 315.666 148.233 315.901 148.556 316.106C148.879 316.297 149.348 316.392 149.964 316.392C150.624 316.392 151.189 316.275 151.658 316.04C152.142 315.806 152.377 315.439 152.362 314.94C152.362 314.515 152.215 314.192 151.922 313.972C151.643 313.738 151.277 313.562 150.822 313.444C150.367 313.312 149.891 313.188 149.392 313.07C148.893 312.953 148.417 312.806 147.962 312.63C147.522 312.44 147.163 312.176 146.884 311.838C146.605 311.501 146.466 311.032 146.466 310.43C146.466 309.697 146.796 309.118 147.456 308.692C148.116 308.252 148.959 308.032 149.986 308.032C150.558 308.032 151.137 308.128 151.724 308.318C152.311 308.494 152.795 308.81 153.176 309.264C153.557 309.704 153.733 310.328 153.704 311.134H152.384C152.413 310.577 152.289 310.159 152.01 309.88C151.731 309.602 151.394 309.418 150.998 309.33C150.617 309.228 150.265 309.176 149.942 309.176C149.311 309.176 148.791 309.294 148.38 309.528C147.984 309.763 147.786 310.093 147.786 310.518C147.786 310.929 147.925 311.244 148.204 311.464C148.497 311.67 148.864 311.838 149.304 311.97C149.759 312.088 150.235 312.205 150.734 312.322C151.247 312.425 151.731 312.572 152.186 312.762C152.641 312.953 153.007 313.224 153.286 313.576C153.579 313.928 153.726 314.412 153.726 315.028C153.726 315.879 153.367 316.502 152.648 316.898C151.929 317.28 151.042 317.47 149.986 317.47ZM155.582 317.25V304.864H156.968V317.25H155.582ZM166.412 317.25C165.869 317.25 165.488 317.104 165.268 316.81C165.063 316.517 164.96 316.114 164.96 315.6V309.352H163.552V308.296C164.021 308.296 164.366 308.26 164.586 308.186C164.821 308.098 164.967 307.893 165.026 307.57C165.085 307.248 165.114 306.72 165.114 305.986H166.324V308.296H168.392V309.352H166.324V316.106H168.414V317.25H166.412ZM171.37 307.328C171.047 307.328 170.827 307.248 170.71 307.086C170.607 306.91 170.556 306.69 170.556 306.426C170.556 306.206 170.607 306.016 170.71 305.854C170.827 305.678 171.047 305.59 171.37 305.59C171.693 305.59 171.905 305.678 172.008 305.854C172.125 306.016 172.184 306.206 172.184 306.426C172.184 306.69 172.125 306.91 172.008 307.086C171.905 307.248 171.693 307.328 171.37 307.328ZM170.666 317.25V308.296H172.074V317.25H170.666ZM174.137 317.25V308.296H175.347L175.589 310.518H175.633C175.647 310.445 175.713 310.291 175.831 310.056C175.948 309.822 176.124 309.572 176.359 309.308C176.608 309.03 176.931 308.795 177.327 308.604C177.723 308.399 178.229 308.296 178.845 308.296C179.622 308.296 180.231 308.436 180.671 308.714C181.125 308.993 181.463 309.367 181.683 309.836C181.903 310.291 182.042 310.782 182.101 311.31C182.159 311.838 182.189 312.344 182.189 312.828V317.25H180.825V312.828C180.825 311.86 180.656 311.076 180.319 310.474C179.996 309.873 179.351 309.572 178.383 309.572C177.723 309.572 177.18 309.734 176.755 310.056C176.344 310.364 176.043 310.782 175.853 311.31C175.677 311.824 175.589 312.388 175.589 313.004V317.25H174.137ZM188.069 317.47C187.233 317.47 186.485 317.294 185.825 316.942C185.165 316.59 184.644 316.077 184.263 315.402C183.882 314.728 183.691 313.914 183.691 312.96C183.72 312.022 183.918 311.2 184.285 310.496C184.666 309.792 185.187 309.25 185.847 308.868C186.507 308.472 187.262 308.274 188.113 308.274C188.905 308.274 189.594 308.421 190.181 308.714C190.768 309.008 191.237 309.404 191.589 309.902C191.941 310.401 192.161 310.951 192.249 311.552H190.951C190.804 310.907 190.482 310.408 189.983 310.056C189.499 309.704 188.89 309.528 188.157 309.528C187.218 309.528 186.47 309.844 185.913 310.474C185.37 311.09 185.092 311.897 185.077 312.894C185.077 313.906 185.341 314.713 185.869 315.314C186.412 315.901 187.167 316.194 188.135 316.194C188.839 316.194 189.448 316.018 189.961 315.666C190.474 315.314 190.804 314.808 190.951 314.148H192.249C192.161 314.764 191.934 315.322 191.567 315.82C191.215 316.319 190.738 316.722 190.137 317.03C189.55 317.324 188.861 317.47 188.069 317.47ZM195.024 307.328C194.702 307.328 194.482 307.248 194.364 307.086C194.262 306.91 194.21 306.69 194.21 306.426C194.21 306.206 194.262 306.016 194.364 305.854C194.482 305.678 194.702 305.59 195.024 305.59C195.347 305.59 195.56 305.678 195.662 305.854C195.78 306.016 195.838 306.206 195.838 306.426C195.838 306.69 195.78 306.91 195.662 307.086C195.56 307.248 195.347 307.328 195.024 307.328ZM194.32 317.25V308.296H195.728V317.25H194.32ZM201.861 317.47C200.996 317.47 200.27 317.272 199.683 316.876C199.111 316.48 198.678 315.938 198.385 315.248C198.106 314.544 197.967 313.76 197.967 312.894C197.967 311.56 198.297 310.46 198.957 309.594C199.617 308.729 200.592 308.296 201.883 308.296C202.484 308.296 202.983 308.399 203.379 308.604C203.79 308.795 204.12 309.03 204.369 309.308C204.618 309.587 204.802 309.844 204.919 310.078C205.036 310.313 205.11 310.467 205.139 310.54H205.183L205.205 304.864H206.657V317.25H205.425L205.205 315.27H205.161C205.132 315.344 205.051 315.498 204.919 315.732C204.787 315.967 204.589 316.216 204.325 316.48C204.076 316.744 203.746 316.979 203.335 317.184C202.939 317.375 202.448 317.47 201.861 317.47ZM202.213 316.216C203.078 316.216 203.782 315.923 204.325 315.336C204.882 314.735 205.161 313.921 205.161 312.894C205.161 311.882 204.904 311.083 204.391 310.496C203.878 309.895 203.188 309.594 202.323 309.594C201.634 309.594 201.069 309.756 200.629 310.078C200.189 310.386 199.866 310.79 199.661 311.288C199.456 311.787 199.353 312.322 199.353 312.894C199.353 313.452 199.448 313.987 199.639 314.5C199.83 314.999 200.13 315.41 200.541 315.732C200.952 316.055 201.509 316.216 202.213 316.216ZM211.834 317.47C211.1 317.47 210.506 317.338 210.052 317.074C209.612 316.81 209.274 316.458 209.04 316.018C208.805 315.564 208.644 315.072 208.556 314.544C208.482 314.002 208.446 313.459 208.446 312.916V308.296H209.854V312.938C209.854 313.525 209.912 314.068 210.03 314.566C210.147 315.065 210.382 315.461 210.734 315.754C211.1 316.048 211.628 316.194 212.318 316.194C212.978 316.194 213.491 316.048 213.858 315.754C214.239 315.446 214.518 315.05 214.694 314.566C214.87 314.082 214.972 313.576 215.002 313.048V308.296H216.454V317.25H215.244L215.002 315.248H214.958C214.884 315.498 214.73 315.798 214.496 316.15C214.261 316.502 213.924 316.81 213.484 317.074C213.058 317.338 212.508 317.47 211.834 317.47ZM218.309 317.25V308.296H219.519L219.761 310.518H219.805C219.819 310.445 219.885 310.291 220.003 310.056C220.12 309.822 220.296 309.572 220.531 309.308C220.78 309.03 221.103 308.795 221.499 308.604C221.895 308.399 222.401 308.296 223.017 308.296C223.794 308.296 224.403 308.436 224.843 308.714C225.297 308.993 225.635 309.367 225.855 309.836C226.075 310.291 226.214 310.782 226.273 311.31C226.331 311.838 226.361 312.344 226.361 312.828V317.25H224.997V312.828C224.997 311.86 224.828 311.076 224.491 310.474C224.168 309.873 223.523 309.572 222.555 309.572C221.895 309.572 221.352 309.734 220.927 310.056C220.516 310.364 220.215 310.782 220.025 311.31C219.849 311.824 219.761 312.388 219.761 313.004V317.25H218.309ZM230.371 317.25C229.828 317.25 229.447 317.104 229.227 316.81C229.022 316.517 228.919 316.114 228.919 315.6V309.352H227.511V308.296C227.98 308.296 228.325 308.26 228.545 308.186C228.78 308.098 228.926 307.893 228.985 307.57C229.044 307.248 229.073 306.72 229.073 305.986H230.283V308.296H232.351V309.352H230.283V316.106H232.373V317.25H230.371ZM235.065 317.25C234.698 317.25 234.449 317.155 234.317 316.964C234.2 316.759 234.141 316.524 234.141 316.26C234.141 315.982 234.2 315.747 234.317 315.556C234.449 315.366 234.698 315.27 235.065 315.27C235.432 315.27 235.674 315.366 235.791 315.556C235.923 315.747 235.989 315.982 235.989 316.26C235.989 316.539 235.923 316.774 235.791 316.964C235.674 317.155 235.432 317.25 235.065 317.25Z" fill="#6E6E6E"/>
<path d="M53.449 373V360.051H55.795V370.999H62.189V373H53.449ZM66.3457 371.114H73.4987V373H64.0227V360.051H73.2687V362.075H66.3457V365.479H71.6587V367.411H66.3457V371.114ZM74.7632 373L78.9032 360.051H82.7442L86.9992 373H84.4922L83.3882 369.343H78.3512L77.2472 373H74.7632ZM80.8582 361.04L78.9032 367.526H82.8362L80.8582 361.04ZM88.6415 373V360.051H93.4025C95.0738 360.051 96.3772 360.335 97.3125 360.902C98.2478 361.454 98.7155 362.435 98.7155 363.846C98.7155 364.904 98.4625 365.763 97.9565 366.422C97.4505 367.066 96.7222 367.388 95.7715 367.388C96.3082 367.388 96.7068 367.511 96.9675 367.756C97.2435 367.986 97.4352 368.277 97.5425 368.63C97.6498 368.983 97.7265 369.351 97.7725 369.734C97.8185 370.117 97.8722 370.462 97.9335 370.769C98.0102 371.06 98.1482 371.267 98.3475 371.39C98.5622 371.513 98.8918 371.49 99.3365 371.321V372.678C99.0452 372.923 98.7002 373.084 98.3015 373.161C97.9028 373.253 97.5118 373.23 97.1285 373.092C96.7452 372.954 96.4232 372.686 96.1625 372.287C95.9018 371.873 95.7715 371.298 95.7715 370.562C95.7715 369.887 95.7332 369.351 95.6565 368.952C95.5798 368.538 95.3882 368.231 95.0815 368.032C94.7748 367.817 94.2995 367.687 93.6555 367.641C93.0115 367.58 92.1222 367.58 90.9875 367.641V373H88.6415ZM90.9875 365.939H93.3105C94.0618 365.939 94.6828 365.908 95.1735 365.847C95.6642 365.77 96.0245 365.602 96.2545 365.341C96.4998 365.065 96.6225 364.628 96.6225 364.03C96.6225 363.371 96.4768 362.895 96.1855 362.604C95.8942 362.313 95.4648 362.136 94.8975 362.075C94.3455 361.998 93.6632 361.96 92.8505 361.96H90.9875V365.939ZM110.3 360.051H112.738V373H108.276L103.837 361.086H103.791V373H101.376V360.051H105.516L110.254 371.965H110.3V360.051ZM120.402 373V360.051H124.496L127.532 371.988H127.578L130.591 360.051H134.662V373H132.224L132.385 361.109H132.362L129.257 373H125.807L122.748 361.109H122.702L122.84 373H120.402ZM142.813 373.322C140.728 373.322 139.133 372.716 138.029 371.505C136.925 370.278 136.373 368.63 136.373 366.56C136.373 365.195 136.611 364.015 137.086 363.018C137.561 362.006 138.274 361.224 139.225 360.672C140.191 360.105 141.387 359.821 142.813 359.821C144.929 359.821 146.531 360.434 147.62 361.661C148.709 362.872 149.253 364.505 149.253 366.56C149.253 367.894 149.008 369.075 148.517 370.102C148.026 371.114 147.306 371.904 146.355 372.471C145.404 373.038 144.224 373.322 142.813 373.322ZM142.79 371.068C144.17 371.068 145.205 370.639 145.895 369.78C146.6 368.921 146.953 367.848 146.953 366.56C146.953 365.686 146.8 364.912 146.493 364.237C146.186 363.547 145.726 363.01 145.113 362.627C144.5 362.228 143.725 362.029 142.79 362.029C141.441 362.029 140.413 362.443 139.708 363.271C139.003 364.099 138.65 365.195 138.65 366.56C138.65 367.403 138.796 368.17 139.087 368.86C139.394 369.535 139.854 370.071 140.467 370.47C141.08 370.869 141.855 371.068 142.79 371.068ZM151.33 373V360.051H156.091C157.762 360.051 159.066 360.335 160.001 360.902C160.936 361.454 161.404 362.435 161.404 363.846C161.404 364.904 161.151 365.763 160.645 366.422C160.139 367.066 159.411 367.388 158.46 367.388C158.997 367.388 159.395 367.511 159.656 367.756C159.932 367.986 160.124 368.277 160.231 368.63C160.338 368.983 160.415 369.351 160.461 369.734C160.507 370.117 160.561 370.462 160.622 370.769C160.699 371.06 160.837 371.267 161.036 371.39C161.251 371.513 161.58 371.49 162.025 371.321V372.678C161.734 372.923 161.389 373.084 160.99 373.161C160.591 373.253 160.2 373.23 159.817 373.092C159.434 372.954 159.112 372.686 158.851 372.287C158.59 371.873 158.46 371.298 158.46 370.562C158.46 369.887 158.422 369.351 158.345 368.952C158.268 368.538 158.077 368.231 157.77 368.032C157.463 367.817 156.988 367.687 156.344 367.641C155.7 367.58 154.811 367.58 153.676 367.641V373H151.33ZM153.676 365.939H155.999C156.75 365.939 157.371 365.908 157.862 365.847C158.353 365.77 158.713 365.602 158.943 365.341C159.188 365.065 159.311 364.628 159.311 364.03C159.311 363.371 159.165 362.895 158.874 362.604C158.583 362.313 158.153 362.136 157.586 362.075C157.034 361.998 156.352 361.96 155.539 361.96H153.676V365.939ZM166.342 371.114H173.495V373H164.019V360.051H173.265V362.075H166.342V365.479H171.655V367.411H166.342V371.114Z" fill="#181817"/>
<path d="M52 375.875H174.323V377.025H52V375.875Z" fill="#181817"/>
<rect x="63" y="50" width="45.2364" height="45.2364" rx="22.6182" fill="#F6D88C"/>
<rect x="85.999" y="48.7071" width="35" height="35" rx="17.5" transform="rotate(45 85.999 48.7071)" stroke="#181817"/>
<rect x="58.5" y="45.5" width="55" height="55" rx="27.5" stroke="#181817"/>
</svg>
