<svg width="370" height="425" viewBox="0 0 370 425" fill="none" xmlns="http://www.w3.org/2000/svg">
<rect width="370" height="425" fill="#EAE4DC"/>
<path d="M78.8 166.56C75.888 166.56 73.2373 165.963 70.848 164.768C68.496 163.536 66.6293 161.725 65.248 159.336C63.904 156.909 63.232 153.904 63.232 150.32C63.2693 146.773 63.96 143.787 65.304 141.36C66.648 138.896 68.496 137.048 70.848 135.816C73.2373 134.547 75.9627 133.912 79.024 133.912C83.0933 133.912 86.3787 134.995 88.88 137.16C91.3813 139.325 92.9307 142.163 93.528 145.672H88.712C88.4133 143.88 87.76 142.443 86.752 141.36C85.7813 140.277 84.6053 139.493 83.224 139.008C81.88 138.523 80.48 138.28 79.024 138.28C75.4773 138.28 72.7333 139.307 70.792 141.36C68.8507 143.376 67.88 146.269 67.88 150.04C67.88 153.997 68.832 157.021 70.736 159.112C72.64 161.165 75.3467 162.192 78.856 162.192C81.2827 162.192 83.448 161.613 85.352 160.456C87.256 159.261 88.432 157.339 88.88 154.688H93.752C93.1173 158.197 91.5493 161.053 89.048 163.256C86.5467 165.459 83.1307 166.56 78.8 166.56ZM107.115 166.56C103.307 166.56 100.47 165.459 98.6034 163.256C96.7368 161.053 95.8034 158.253 95.8034 154.856C95.7661 151.421 96.6994 148.603 98.6034 146.4C100.507 144.197 103.345 143.077 107.115 143.04C110.774 143.04 113.555 144.123 115.459 146.288C117.363 148.453 118.315 151.309 118.315 154.856C118.315 157.059 117.905 159.056 117.083 160.848C116.299 162.603 115.067 164.003 113.387 165.048C111.745 166.056 109.654 166.56 107.115 166.56ZM107.115 162.584C108.907 162.584 110.27 162.192 111.203 161.408C112.174 160.624 112.846 159.635 113.219 158.44C113.593 157.208 113.779 155.957 113.779 154.688C113.779 153.419 113.593 152.187 113.219 150.992C112.846 149.76 112.174 148.752 111.203 147.968C110.27 147.147 108.907 146.736 107.115 146.736C105.286 146.736 103.886 147.147 102.915 147.968C101.945 148.752 101.273 149.76 100.899 150.992C100.526 152.187 100.339 153.419 100.339 154.688C100.339 155.957 100.526 157.208 100.899 158.44C101.273 159.635 101.945 160.624 102.915 161.408C103.886 162.192 105.286 162.584 107.115 162.584ZM121.443 166V143.152H125.419L126.203 148.416H126.315C126.352 148.267 126.501 147.912 126.763 147.352C127.024 146.792 127.453 146.195 128.051 145.56C128.648 144.888 129.451 144.309 130.459 143.824C131.467 143.339 132.736 143.096 134.267 143.096C136.283 143.096 137.851 143.488 138.971 144.272C140.091 145.019 140.912 146.008 141.435 147.24C141.957 148.435 142.275 149.704 142.387 151.048C142.536 152.392 142.611 153.643 142.611 154.8V166H138.075V154.744C138.075 153.325 137.925 152.056 137.627 150.936C137.328 149.779 136.768 148.883 135.947 148.248C135.163 147.576 134.005 147.24 132.475 147.24C130.907 147.24 129.656 147.613 128.723 148.36C127.789 149.107 127.136 150.077 126.763 151.272C126.389 152.467 126.203 153.736 126.203 155.08V166H121.443ZM152.47 166C150.864 166 149.688 165.589 148.942 164.768C148.232 163.947 147.878 162.696 147.878 161.016V146.456H144.35V143.096C145.507 143.096 146.366 143.003 146.926 142.816C147.523 142.592 147.915 142.069 148.102 141.248C148.326 140.389 148.438 139.045 148.438 137.216H152.302V143.096H157.566V146.456H152.302V162.304H157.622V166H152.47ZM171.02 166.56C168.444 166.56 166.334 166 164.692 164.88C163.049 163.723 161.836 162.248 161.052 160.456C160.268 158.664 159.876 156.779 159.876 154.8C159.838 152.597 160.249 150.6 161.108 148.808C162.004 147.016 163.273 145.597 164.916 144.552C166.596 143.507 168.593 142.984 170.908 142.984C172.886 142.984 174.66 143.432 176.228 144.328C177.833 145.187 179.102 146.419 180.036 148.024C180.969 149.592 181.473 151.459 181.548 153.624C181.548 153.736 181.548 153.96 181.548 154.296C181.585 154.595 181.604 154.856 181.604 155.08H164.3C164.3 157.469 164.878 159.336 166.036 160.68C167.23 161.987 168.873 162.64 170.964 162.64C172.532 162.64 173.857 162.248 174.94 161.464C176.06 160.643 176.75 159.56 177.012 158.216H181.548C181.212 160.605 180.129 162.603 178.3 164.208C176.47 165.776 174.044 166.56 171.02 166.56ZM164.468 152.784H176.9C176.862 152.373 176.75 151.832 176.564 151.16C176.377 150.488 176.06 149.835 175.612 149.2C175.201 148.528 174.604 147.968 173.82 147.52C173.036 147.072 172.028 146.848 170.796 146.848C169.265 146.848 168.052 147.184 167.156 147.856C166.297 148.491 165.644 149.275 165.196 150.208C164.785 151.104 164.542 151.963 164.468 152.784ZM184.966 166V143.152H188.942L189.726 148.416H189.838C189.875 148.267 190.024 147.912 190.286 147.352C190.547 146.792 190.976 146.195 191.574 145.56C192.171 144.888 192.974 144.309 193.982 143.824C194.99 143.339 196.259 143.096 197.79 143.096C199.806 143.096 201.374 143.488 202.494 144.272C203.614 145.019 204.435 146.008 204.958 147.24C205.48 148.435 205.798 149.704 205.91 151.048C206.059 152.392 206.134 153.643 206.134 154.8V166H201.598V154.744C201.598 153.325 201.448 152.056 201.15 150.936C200.851 149.779 200.291 148.883 199.47 148.248C198.686 147.576 197.528 147.24 195.998 147.24C194.43 147.24 193.179 147.613 192.246 148.36C191.312 149.107 190.659 150.077 190.286 151.272C189.912 152.467 189.726 153.736 189.726 155.08V166H184.966ZM215.993 166C214.387 166 213.211 165.589 212.465 164.768C211.755 163.947 211.401 162.696 211.401 161.016V146.456H207.873V143.096C209.03 143.096 209.889 143.003 210.449 142.816C211.046 142.592 211.438 142.069 211.625 141.248C211.849 140.389 211.961 139.045 211.961 137.216H215.825V143.096H221.089V146.456H215.825V162.304H221.145V166H215.993ZM78.8 210.56C75.888 210.56 73.2373 209.963 70.848 208.768C68.496 207.536 66.6293 205.725 65.248 203.336C63.904 200.909 63.232 197.904 63.232 194.32C63.2693 190.773 63.96 187.787 65.304 185.36C66.648 182.896 68.496 181.048 70.848 179.816C73.2373 178.547 75.9627 177.912 79.024 177.912C83.0933 177.912 86.3787 178.995 88.88 181.16C91.3813 183.325 92.9307 186.163 93.528 189.672H88.712C88.4133 187.88 87.76 186.443 86.752 185.36C85.7813 184.277 84.6053 183.493 83.224 183.008C81.88 182.523 80.48 182.28 79.024 182.28C75.4773 182.28 72.7333 183.307 70.792 185.36C68.8507 187.376 67.88 190.269 67.88 194.04C67.88 197.997 68.832 201.021 70.736 203.112C72.64 205.165 75.3467 206.192 78.856 206.192C81.2827 206.192 83.448 205.613 85.352 204.456C87.256 203.261 88.432 201.339 88.88 198.688H93.752C93.1173 202.197 91.5493 205.053 89.048 207.256C86.5467 209.459 83.1307 210.56 78.8 210.56ZM96.9234 210V187.096H101.235L101.627 193.312C101.851 192.304 102.281 191.333 102.915 190.4C103.587 189.429 104.502 188.645 105.659 188.048C106.854 187.413 108.366 187.096 110.195 187.096H111.147V192.248H110.139C107.862 192.248 106.107 192.547 104.875 193.144C103.643 193.704 102.785 194.544 102.299 195.664C101.814 196.747 101.571 198.091 101.571 199.696V210H96.9234ZM123.603 210.56C121.027 210.56 118.918 210 117.275 208.88C115.633 207.723 114.419 206.248 113.635 204.456C112.851 202.664 112.459 200.779 112.459 198.8C112.422 196.597 112.833 194.6 113.691 192.808C114.587 191.016 115.857 189.597 117.499 188.552C119.179 187.507 121.177 186.984 123.491 186.984C125.47 186.984 127.243 187.432 128.811 188.328C130.417 189.187 131.686 190.419 132.619 192.024C133.553 193.592 134.057 195.459 134.132 197.624C134.132 197.736 134.132 197.96 134.132 198.296C134.169 198.595 134.187 198.856 134.187 199.08H116.883C116.883 201.469 117.462 203.336 118.619 204.68C119.814 205.987 121.457 206.64 123.547 206.64C125.115 206.64 126.441 206.248 127.523 205.464C128.643 204.643 129.334 203.56 129.595 202.216H134.132C133.796 204.605 132.713 206.603 130.883 208.208C129.054 209.776 126.627 210.56 123.603 210.56ZM117.051 196.784H129.484C129.446 196.373 129.334 195.832 129.147 195.16C128.961 194.488 128.643 193.835 128.195 193.2C127.785 192.528 127.187 191.968 126.403 191.52C125.619 191.072 124.611 190.848 123.379 190.848C121.849 190.848 120.635 191.184 119.739 191.856C118.881 192.491 118.227 193.275 117.779 194.208C117.369 195.104 117.126 195.963 117.051 196.784ZM145.501 210.504C143.373 210.504 141.656 210.019 140.349 209.048C139.043 208.04 138.072 206.659 137.437 204.904C136.84 203.112 136.541 201.077 136.541 198.8C136.541 195.328 137.251 192.491 138.669 190.288C140.088 188.048 142.365 186.928 145.501 186.928C147.181 186.928 148.544 187.227 149.589 187.824C150.635 188.421 151.437 189.093 151.997 189.84C152.595 190.587 153.005 191.24 153.229 191.8H153.341V187.096H158.101V210H154.125L153.341 205.912H153.229C153.005 206.472 152.595 207.125 151.997 207.872C151.4 208.581 150.579 209.197 149.533 209.72C148.488 210.243 147.144 210.504 145.501 210.504ZM147.349 206.528C149.552 206.528 151.083 205.819 151.941 204.4C152.837 202.981 153.285 201.133 153.285 198.856C153.285 196.467 152.819 194.581 151.885 193.2C150.989 191.819 149.477 191.128 147.349 191.128C145.781 191.128 144.549 191.483 143.653 192.192C142.757 192.864 142.104 193.779 141.693 194.936C141.32 196.093 141.133 197.381 141.133 198.8C141.133 201.003 141.6 202.851 142.533 204.344C143.467 205.8 145.072 206.528 147.349 206.528ZM167.701 210C166.096 210 164.92 209.589 164.173 208.768C163.464 207.947 163.109 206.696 163.109 205.016V190.456H159.581V187.096C160.739 187.096 161.597 187.003 162.157 186.816C162.755 186.592 163.147 186.069 163.333 185.248C163.557 184.389 163.669 183.045 163.669 181.216H167.533V187.096H172.797V190.456H167.533V206.304H172.853V210H167.701ZM179.574 184.576C178.566 184.613 177.894 184.371 177.558 183.848C177.222 183.325 177.054 182.672 177.054 181.888C177.054 181.216 177.222 180.619 177.558 180.096C177.894 179.573 178.566 179.312 179.574 179.312C180.545 179.312 181.198 179.573 181.534 180.096C181.908 180.619 182.094 181.216 182.094 181.888C182.094 182.672 181.908 183.325 181.534 183.848C181.198 184.333 180.545 184.576 179.574 184.576ZM177.222 210V187.096H181.87V210H177.222ZM196.508 210.56C192.7 210.56 189.862 209.459 187.996 207.256C186.129 205.053 185.196 202.253 185.196 198.856C185.158 195.421 186.092 192.603 187.996 190.4C189.9 188.197 192.737 187.077 196.508 187.04C200.166 187.04 202.948 188.123 204.852 190.288C206.756 192.453 207.708 195.309 207.708 198.856C207.708 201.059 207.297 203.056 206.476 204.848C205.692 206.603 204.46 208.003 202.78 209.048C201.137 210.056 199.046 210.56 196.508 210.56ZM196.508 206.584C198.3 206.584 199.662 206.192 200.596 205.408C201.566 204.624 202.238 203.635 202.612 202.44C202.985 201.208 203.172 199.957 203.172 198.688C203.172 197.419 202.985 196.187 202.612 194.992C202.238 193.76 201.566 192.752 200.596 191.968C199.662 191.147 198.3 190.736 196.508 190.736C194.678 190.736 193.278 191.147 192.308 191.968C191.337 192.752 190.665 193.76 190.292 194.992C189.918 196.187 189.732 197.419 189.732 198.688C189.732 199.957 189.918 201.208 190.292 202.44C190.665 203.635 191.337 204.624 192.308 205.408C193.278 206.192 194.678 206.584 196.508 206.584ZM210.835 210V187.152H214.811L215.595 192.416H215.707C215.744 192.267 215.894 191.912 216.155 191.352C216.416 190.792 216.846 190.195 217.443 189.56C218.04 188.888 218.843 188.309 219.851 187.824C220.859 187.339 222.128 187.096 223.659 187.096C225.675 187.096 227.243 187.488 228.363 188.272C229.483 189.019 230.304 190.008 230.827 191.24C231.35 192.435 231.667 193.704 231.779 195.048C231.928 196.392 232.003 197.643 232.003 198.8V210H227.467V198.744C227.467 197.325 227.318 196.056 227.019 194.936C226.72 193.779 226.16 192.883 225.339 192.248C224.555 191.576 223.398 191.24 221.867 191.24C220.299 191.24 219.048 191.613 218.115 192.36C217.182 193.107 216.528 194.077 216.155 195.272C215.782 196.467 215.595 197.736 215.595 199.08V210H210.835ZM244.606 210.56C242.889 210.56 241.265 210.187 239.734 209.44C238.241 208.693 237.027 207.704 236.094 206.472C235.198 205.203 234.75 203.84 234.75 202.384H239.118C239.118 202.459 239.137 202.739 239.174 203.224C239.211 203.709 239.379 204.251 239.678 204.848C239.977 205.445 240.499 205.968 241.246 206.416C242.03 206.864 243.131 207.088 244.55 207.088C246.118 207.088 247.387 206.808 248.358 206.248C249.329 205.688 249.814 204.904 249.814 203.896C249.814 202.963 249.459 202.235 248.75 201.712C248.041 201.189 247.126 200.779 246.006 200.48C244.886 200.144 243.691 199.827 242.422 199.528C241.19 199.229 240.014 198.837 238.894 198.352C237.811 197.829 236.915 197.139 236.206 196.28C235.534 195.384 235.217 194.189 235.254 192.696C235.254 190.68 236.094 189.131 237.774 188.048C239.491 186.928 241.657 186.368 244.27 186.368C245.95 186.368 247.555 186.648 249.086 187.208C250.617 187.731 251.867 188.589 252.838 189.784C253.846 190.979 254.331 192.584 254.294 194.6H249.982C250.019 193.331 249.721 192.379 249.086 191.744C248.489 191.072 247.742 190.624 246.846 190.4C245.95 190.139 245.11 190.008 244.326 190.008C242.833 190.008 241.657 190.288 240.798 190.848C239.939 191.371 239.51 192.08 239.51 192.976C239.51 193.947 239.865 194.693 240.574 195.216C241.283 195.701 242.198 196.112 243.318 196.448C244.438 196.747 245.614 197.045 246.846 197.344C248.115 197.643 249.31 198.035 250.43 198.52C251.55 199.005 252.465 199.696 253.174 200.592C253.921 201.488 254.294 202.683 254.294 204.176C254.294 206.379 253.379 208.003 251.55 209.048C249.721 210.056 247.406 210.56 244.606 210.56Z" fill="#181817"/>
<path d="M63.474 259.25V246.864H64.882V258.018H71.746V259.25H63.474ZM77.175 259.47C75.7377 259.47 74.6597 259.045 73.941 258.194C73.237 257.329 72.885 256.229 72.885 254.894C72.8703 253.545 73.2223 252.445 73.941 251.594C74.6743 250.729 75.7523 250.289 77.175 250.274C78.583 250.274 79.6463 250.7 80.365 251.55C81.0983 252.386 81.465 253.501 81.465 254.894C81.465 255.76 81.311 256.537 81.003 257.226C80.695 257.916 80.2257 258.466 79.595 258.876C78.9643 259.272 78.1577 259.47 77.175 259.47ZM77.175 258.238C77.9377 258.238 78.5243 258.07 78.935 257.732C79.3603 257.395 79.6537 256.97 79.815 256.456C79.991 255.928 80.079 255.393 80.079 254.85C80.079 254.308 79.991 253.772 79.815 253.244C79.6537 252.716 79.3603 252.284 78.935 251.946C78.5243 251.609 77.9377 251.44 77.175 251.44C76.4123 251.44 75.8183 251.609 75.393 251.946C74.9823 252.284 74.689 252.716 74.513 253.244C74.3517 253.772 74.271 254.308 74.271 254.85C74.271 255.393 74.3517 255.928 74.513 256.456C74.689 256.97 74.9823 257.395 75.393 257.732C75.8183 258.07 76.4123 258.238 77.175 258.238ZM83.4017 259.25V250.296H84.6777L84.8317 252.65C84.9197 252.254 85.0957 251.873 85.3597 251.506C85.6237 251.14 85.983 250.846 86.4377 250.626C86.907 250.392 87.4864 250.282 88.1757 250.296H88.5937V251.858H88.1537C87.215 251.858 86.5037 251.998 86.0197 252.276C85.5504 252.54 85.2277 252.914 85.0517 253.398C84.8904 253.882 84.8097 254.44 84.8097 255.07V259.25H83.4017ZM93.74 259.47C92.7573 259.47 91.9433 259.25 91.298 258.81C90.6673 258.356 90.198 257.776 89.89 257.072C89.5967 256.354 89.45 255.613 89.45 254.85C89.45 254.014 89.6113 253.252 89.934 252.562C90.2713 251.858 90.7553 251.301 91.386 250.89C92.0313 250.48 92.8013 250.274 93.696 250.274C94.84 250.274 95.7933 250.648 96.556 251.396C97.3187 252.13 97.7293 253.12 97.788 254.366C97.8027 254.425 97.81 254.513 97.81 254.63C97.81 254.733 97.81 254.828 97.81 254.916H90.814C90.814 255.958 91.0633 256.779 91.562 257.38C92.0753 257.967 92.794 258.26 93.718 258.26C94.4073 258.26 94.994 258.084 95.478 257.732C95.9767 257.38 96.2847 256.904 96.402 256.302H97.788C97.6413 257.212 97.2087 257.967 96.49 258.568C95.7713 259.17 94.8547 259.47 93.74 259.47ZM90.858 254.146H96.358C96.358 253.838 96.27 253.472 96.094 253.046C95.9327 252.621 95.654 252.254 95.258 251.946C94.8767 251.624 94.3487 251.462 93.674 251.462C93.058 251.462 92.552 251.594 92.156 251.858C91.76 252.122 91.4593 252.46 91.254 252.87C91.0487 253.281 90.9167 253.706 90.858 254.146ZM99.5958 259.25V250.296H100.806L100.894 252.518H100.938C100.967 252.416 101.033 252.247 101.136 252.012C101.238 251.763 101.4 251.506 101.62 251.242C101.84 250.978 102.126 250.758 102.478 250.582C102.83 250.392 103.277 250.296 103.82 250.296C104.641 250.296 105.242 250.524 105.624 250.978C106.02 251.433 106.284 251.946 106.416 252.518H106.46C106.504 252.416 106.584 252.247 106.702 252.012C106.819 251.763 106.995 251.506 107.23 251.242C107.464 250.978 107.765 250.758 108.132 250.582C108.513 250.392 108.975 250.296 109.518 250.296C110.09 250.296 110.559 250.414 110.926 250.648C111.292 250.868 111.571 251.169 111.762 251.55C111.967 251.917 112.114 252.306 112.202 252.716C112.29 253.127 112.341 253.523 112.356 253.904C112.37 254.286 112.378 254.594 112.378 254.828V259.25H111.146V254.828C111.146 254.594 111.131 254.293 111.102 253.926C111.072 253.56 110.999 253.2 110.882 252.848C110.764 252.482 110.559 252.181 110.266 251.946C109.987 251.697 109.584 251.572 109.056 251.572C108.469 251.572 108 251.734 107.648 252.056C107.296 252.379 107.039 252.804 106.878 253.332C106.716 253.846 106.636 254.403 106.636 255.004V259.25H105.404V254.828C105.404 254.594 105.389 254.293 105.36 253.926C105.33 253.56 105.257 253.2 105.14 252.848C105.022 252.482 104.817 252.181 104.524 251.946C104.245 251.697 103.842 251.572 103.314 251.572C102.727 251.572 102.258 251.734 101.906 252.056C101.554 252.379 101.297 252.804 101.136 253.332C100.974 253.846 100.894 254.403 100.894 255.004V259.25H99.5958ZM120.462 249.328C120.139 249.328 119.919 249.248 119.802 249.086C119.699 248.91 119.648 248.69 119.648 248.426C119.648 248.206 119.699 248.016 119.802 247.854C119.919 247.678 120.139 247.59 120.462 247.59C120.785 247.59 120.997 247.678 121.1 247.854C121.217 248.016 121.276 248.206 121.276 248.426C121.276 248.69 121.217 248.91 121.1 249.086C120.997 249.248 120.785 249.328 120.462 249.328ZM119.758 259.25V250.296H121.166V259.25H119.758ZM128.223 259.47C127.651 259.47 127.159 259.375 126.749 259.184C126.353 258.979 126.03 258.744 125.781 258.48C125.531 258.216 125.341 257.967 125.209 257.732C125.091 257.498 125.018 257.344 124.989 257.27H124.945V262.946H123.493V250.296H124.703L124.945 252.54H124.989C125.018 252.467 125.091 252.313 125.209 252.078C125.326 251.844 125.502 251.587 125.737 251.308C125.986 251.03 126.309 250.795 126.705 250.604C127.115 250.399 127.621 250.296 128.223 250.296C129.088 250.296 129.807 250.494 130.379 250.89C130.965 251.286 131.405 251.836 131.699 252.54C132.007 253.23 132.161 254.022 132.161 254.916C132.161 256.251 131.823 257.344 131.149 258.194C130.474 259.045 129.499 259.47 128.223 259.47ZM127.937 258.216C128.626 258.216 129.176 258.055 129.587 257.732C130.012 257.41 130.313 256.999 130.489 256.5C130.679 255.987 130.775 255.452 130.775 254.894C130.775 254.322 130.672 253.787 130.467 253.288C130.261 252.79 129.939 252.386 129.499 252.078C129.073 251.756 128.509 251.594 127.805 251.594C126.954 251.594 126.272 251.895 125.759 252.496C125.245 253.083 124.989 253.882 124.989 254.894C124.989 255.921 125.26 256.735 125.803 257.336C126.345 257.923 127.057 258.216 127.937 258.216ZM137.234 259.47C136.383 259.47 135.679 259.294 135.122 258.942C134.579 258.576 134.169 258.15 133.89 257.666C133.626 257.182 133.494 256.75 133.494 256.368H134.858C134.858 256.383 134.865 256.493 134.88 256.698C134.909 256.904 134.99 257.138 135.122 257.402C135.254 257.666 135.481 257.901 135.804 258.106C136.127 258.297 136.596 258.392 137.212 258.392C137.872 258.392 138.437 258.275 138.906 258.04C139.39 257.806 139.625 257.439 139.61 256.94C139.61 256.515 139.463 256.192 139.17 255.972C138.891 255.738 138.525 255.562 138.07 255.444C137.615 255.312 137.139 255.188 136.64 255.07C136.141 254.953 135.665 254.806 135.21 254.63C134.77 254.44 134.411 254.176 134.132 253.838C133.853 253.501 133.714 253.032 133.714 252.43C133.714 251.697 134.044 251.118 134.704 250.692C135.364 250.252 136.207 250.032 137.234 250.032C137.806 250.032 138.385 250.128 138.972 250.318C139.559 250.494 140.043 250.81 140.424 251.264C140.805 251.704 140.981 252.328 140.952 253.134H139.632C139.661 252.577 139.537 252.159 139.258 251.88C138.979 251.602 138.642 251.418 138.246 251.33C137.865 251.228 137.513 251.176 137.19 251.176C136.559 251.176 136.039 251.294 135.628 251.528C135.232 251.763 135.034 252.093 135.034 252.518C135.034 252.929 135.173 253.244 135.452 253.464C135.745 253.67 136.112 253.838 136.552 253.97C137.007 254.088 137.483 254.205 137.982 254.322C138.495 254.425 138.979 254.572 139.434 254.762C139.889 254.953 140.255 255.224 140.534 255.576C140.827 255.928 140.974 256.412 140.974 257.028C140.974 257.879 140.615 258.502 139.896 258.898C139.177 259.28 138.29 259.47 137.234 259.47ZM145.844 259.47C145.11 259.47 144.516 259.338 144.062 259.074C143.622 258.81 143.284 258.458 143.05 258.018C142.815 257.564 142.654 257.072 142.566 256.544C142.492 256.002 142.456 255.459 142.456 254.916V250.296H143.864V254.938C143.864 255.525 143.922 256.068 144.04 256.566C144.157 257.065 144.392 257.461 144.744 257.754C145.11 258.048 145.638 258.194 146.328 258.194C146.988 258.194 147.501 258.048 147.868 257.754C148.249 257.446 148.528 257.05 148.704 256.566C148.88 256.082 148.982 255.576 149.012 255.048V250.296H150.464V259.25H149.254L149.012 257.248H148.968C148.894 257.498 148.74 257.798 148.506 258.15C148.271 258.502 147.934 258.81 147.494 259.074C147.068 259.338 146.518 259.47 145.844 259.47ZM152.318 259.25V250.296H153.528L153.616 252.518H153.66C153.69 252.416 153.756 252.247 153.858 252.012C153.961 251.763 154.122 251.506 154.342 251.242C154.562 250.978 154.848 250.758 155.2 250.582C155.552 250.392 156 250.296 156.542 250.296C157.364 250.296 157.965 250.524 158.346 250.978C158.742 251.433 159.006 251.946 159.138 252.518H159.182C159.226 252.416 159.307 252.247 159.424 252.012C159.542 251.763 159.718 251.506 159.952 251.242C160.187 250.978 160.488 250.758 160.854 250.582C161.236 250.392 161.698 250.296 162.24 250.296C162.812 250.296 163.282 250.414 163.648 250.648C164.015 250.868 164.294 251.169 164.484 251.55C164.69 251.917 164.836 252.306 164.924 252.716C165.012 253.127 165.064 253.523 165.078 253.904C165.093 254.286 165.1 254.594 165.1 254.828V259.25H163.868V254.828C163.868 254.594 163.854 254.293 163.824 253.926C163.795 253.56 163.722 253.2 163.604 252.848C163.487 252.482 163.282 252.181 162.988 251.946C162.71 251.697 162.306 251.572 161.778 251.572C161.192 251.572 160.722 251.734 160.37 252.056C160.018 252.379 159.762 252.804 159.6 253.332C159.439 253.846 159.358 254.403 159.358 255.004V259.25H158.126V254.828C158.126 254.594 158.112 254.293 158.082 253.926C158.053 253.56 157.98 253.2 157.862 252.848C157.745 252.482 157.54 252.181 157.246 251.946C156.968 251.697 156.564 251.572 156.036 251.572C155.45 251.572 154.98 251.734 154.628 252.056C154.276 252.379 154.02 252.804 153.858 253.332C153.697 253.846 153.616 254.403 153.616 255.004V259.25H152.318ZM176.133 259.47C175.267 259.47 174.541 259.272 173.955 258.876C173.383 258.48 172.95 257.938 172.657 257.248C172.378 256.544 172.239 255.76 172.239 254.894C172.239 253.56 172.569 252.46 173.229 251.594C173.889 250.729 174.864 250.296 176.155 250.296C176.756 250.296 177.255 250.399 177.651 250.604C178.061 250.795 178.391 251.03 178.641 251.308C178.89 251.587 179.073 251.844 179.191 252.078C179.308 252.313 179.381 252.467 179.411 252.54H179.455L179.477 246.864H180.929V259.25H179.697L179.477 257.27H179.433C179.403 257.344 179.323 257.498 179.191 257.732C179.059 257.967 178.861 258.216 178.597 258.48C178.347 258.744 178.017 258.979 177.607 259.184C177.211 259.375 176.719 259.47 176.133 259.47ZM176.485 258.216C177.35 258.216 178.054 257.923 178.597 257.336C179.154 256.735 179.433 255.921 179.433 254.894C179.433 253.882 179.176 253.083 178.663 252.496C178.149 251.895 177.46 251.594 176.595 251.594C175.905 251.594 175.341 251.756 174.901 252.078C174.461 252.386 174.138 252.79 173.933 253.288C173.727 253.787 173.625 254.322 173.625 254.894C173.625 255.452 173.72 255.987 173.911 256.5C174.101 256.999 174.402 257.41 174.813 257.732C175.223 258.055 175.781 258.216 176.485 258.216ZM186.831 259.47C185.394 259.47 184.316 259.045 183.597 258.194C182.893 257.329 182.541 256.229 182.541 254.894C182.527 253.545 182.879 252.445 183.597 251.594C184.331 250.729 185.409 250.289 186.831 250.274C188.239 250.274 189.303 250.7 190.021 251.55C190.755 252.386 191.121 253.501 191.121 254.894C191.121 255.76 190.967 256.537 190.659 257.226C190.351 257.916 189.882 258.466 189.251 258.876C188.621 259.272 187.814 259.47 186.831 259.47ZM186.831 258.238C187.594 258.238 188.181 258.07 188.591 257.732C189.017 257.395 189.31 256.97 189.471 256.456C189.647 255.928 189.735 255.393 189.735 254.85C189.735 254.308 189.647 253.772 189.471 253.244C189.31 252.716 189.017 252.284 188.591 251.946C188.181 251.609 187.594 251.44 186.831 251.44C186.069 251.44 185.475 251.609 185.049 251.946C184.639 252.284 184.345 252.716 184.169 253.244C184.008 253.772 183.927 254.308 183.927 254.85C183.927 255.393 184.008 255.928 184.169 256.456C184.345 256.97 184.639 257.395 185.049 257.732C185.475 258.07 186.069 258.238 186.831 258.238ZM193.146 259.25V246.864H194.532V259.25H193.146ZM200.56 259.47C199.122 259.47 198.044 259.045 197.326 258.194C196.622 257.329 196.27 256.229 196.27 254.894C196.255 253.545 196.607 252.445 197.326 251.594C198.059 250.729 199.137 250.289 200.56 250.274C201.968 250.274 203.031 250.7 203.75 251.55C204.483 252.386 204.85 253.501 204.85 254.894C204.85 255.76 204.696 256.537 204.388 257.226C204.08 257.916 203.61 258.466 202.98 258.876C202.349 259.272 201.542 259.47 200.56 259.47ZM200.56 258.238C201.322 258.238 201.909 258.07 202.32 257.732C202.745 257.395 203.038 256.97 203.2 256.456C203.376 255.928 203.464 255.393 203.464 254.85C203.464 254.308 203.376 253.772 203.2 253.244C203.038 252.716 202.745 252.284 202.32 251.946C201.909 251.609 201.322 251.44 200.56 251.44C199.797 251.44 199.203 251.609 198.778 251.946C198.367 252.284 198.074 252.716 197.898 253.244C197.736 253.772 197.656 254.308 197.656 254.85C197.656 255.393 197.736 255.928 197.898 256.456C198.074 256.97 198.367 257.395 198.778 257.732C199.203 258.07 199.797 258.238 200.56 258.238ZM206.786 259.25V250.296H208.062L208.216 252.65C208.304 252.254 208.48 251.873 208.744 251.506C209.008 251.14 209.368 250.846 209.822 250.626C210.292 250.392 210.871 250.282 211.56 250.296H211.978V251.858H211.538C210.6 251.858 209.888 251.998 209.404 252.276C208.935 252.54 208.612 252.914 208.436 253.398C208.275 253.882 208.194 254.44 208.194 255.07V259.25H206.786ZM221.99 259.47C221.139 259.47 220.435 259.294 219.878 258.942C219.335 258.576 218.925 258.15 218.646 257.666C218.382 257.182 218.25 256.75 218.25 256.368H219.614C219.614 256.383 219.621 256.493 219.636 256.698C219.665 256.904 219.746 257.138 219.878 257.402C220.01 257.666 220.237 257.901 220.56 258.106C220.883 258.297 221.352 258.392 221.968 258.392C222.628 258.392 223.193 258.275 223.662 258.04C224.146 257.806 224.381 257.439 224.366 256.94C224.366 256.515 224.219 256.192 223.926 255.972C223.647 255.738 223.281 255.562 222.826 255.444C222.371 255.312 221.895 255.188 221.396 255.07C220.897 254.953 220.421 254.806 219.966 254.63C219.526 254.44 219.167 254.176 218.888 253.838C218.609 253.501 218.47 253.032 218.47 252.43C218.47 251.697 218.8 251.118 219.46 250.692C220.12 250.252 220.963 250.032 221.99 250.032C222.562 250.032 223.141 250.128 223.728 250.318C224.315 250.494 224.799 250.81 225.18 251.264C225.561 251.704 225.737 252.328 225.708 253.134H224.388C224.417 252.577 224.293 252.159 224.014 251.88C223.735 251.602 223.398 251.418 223.002 251.33C222.621 251.228 222.269 251.176 221.946 251.176C221.315 251.176 220.795 251.294 220.384 251.528C219.988 251.763 219.79 252.093 219.79 252.518C219.79 252.929 219.929 253.244 220.208 253.464C220.501 253.67 220.868 253.838 221.308 253.97C221.763 254.088 222.239 254.205 222.738 254.322C223.251 254.425 223.735 254.572 224.19 254.762C224.645 254.953 225.011 255.224 225.29 255.576C225.583 255.928 225.73 256.412 225.73 257.028C225.73 257.879 225.371 258.502 224.652 258.898C223.933 259.28 223.046 259.47 221.99 259.47ZM228.399 249.328C228.077 249.328 227.857 249.248 227.739 249.086C227.637 248.91 227.585 248.69 227.585 248.426C227.585 248.206 227.637 248.016 227.739 247.854C227.857 247.678 228.077 247.59 228.399 247.59C228.722 247.59 228.935 247.678 229.037 247.854C229.155 248.016 229.213 248.206 229.213 248.426C229.213 248.69 229.155 248.91 229.037 249.086C228.935 249.248 228.722 249.328 228.399 249.328ZM227.695 259.25V250.296H229.103V259.25H227.695ZM233.625 259.25C233.082 259.25 232.701 259.104 232.481 258.81C232.276 258.517 232.173 258.114 232.173 257.6V251.352H230.765V250.296C231.234 250.296 231.579 250.26 231.799 250.186C232.034 250.098 232.18 249.893 232.239 249.57C232.298 249.248 232.327 248.72 232.327 247.986H233.537V250.296H235.605V251.352H233.537V258.106H235.627V259.25H233.625ZM245.828 259.448C245.006 259.448 244.332 259.25 243.804 258.854C243.276 258.444 242.88 257.894 242.616 257.204C242.366 256.515 242.242 255.73 242.242 254.85C242.242 253.501 242.535 252.394 243.122 251.528C243.723 250.648 244.625 250.208 245.828 250.208C246.444 250.208 246.957 250.318 247.368 250.538C247.793 250.744 248.13 251 248.38 251.308C248.644 251.616 248.834 251.91 248.952 252.188H248.974V250.296H250.426V259.25H249.216L248.996 257.512H248.952C248.82 257.806 248.629 258.106 248.38 258.414C248.13 258.708 247.793 258.957 247.368 259.162C246.957 259.353 246.444 259.448 245.828 259.448ZM246.378 258.194C247.287 258.194 247.94 257.894 248.336 257.292C248.746 256.691 248.952 255.884 248.952 254.872C248.952 253.787 248.739 252.958 248.314 252.386C247.903 251.814 247.258 251.528 246.378 251.528C245.41 251.528 244.713 251.851 244.288 252.496C243.877 253.127 243.672 253.912 243.672 254.85C243.672 255.833 243.884 256.64 244.31 257.27C244.735 257.886 245.424 258.194 246.378 258.194ZM252.07 259.25V250.296H253.28L253.368 252.518H253.412C253.442 252.416 253.508 252.247 253.61 252.012C253.713 251.763 253.874 251.506 254.094 251.242C254.314 250.978 254.6 250.758 254.952 250.582C255.304 250.392 255.752 250.296 256.294 250.296C257.116 250.296 257.717 250.524 258.098 250.978C258.494 251.433 258.758 251.946 258.89 252.518H258.934C258.978 252.416 259.059 252.247 259.176 252.012C259.294 251.763 259.47 251.506 259.704 251.242C259.939 250.978 260.24 250.758 260.606 250.582C260.988 250.392 261.45 250.296 261.992 250.296C262.564 250.296 263.034 250.414 263.4 250.648C263.767 250.868 264.046 251.169 264.236 251.55C264.442 251.917 264.588 252.306 264.676 252.716C264.764 253.127 264.816 253.523 264.83 253.904C264.845 254.286 264.852 254.594 264.852 254.828V259.25H263.62V254.828C263.62 254.594 263.606 254.293 263.576 253.926C263.547 253.56 263.474 253.2 263.356 252.848C263.239 252.482 263.034 252.181 262.74 251.946C262.462 251.697 262.058 251.572 261.53 251.572C260.944 251.572 260.474 251.734 260.122 252.056C259.77 252.379 259.514 252.804 259.352 253.332C259.191 253.846 259.11 254.403 259.11 255.004V259.25H257.878V254.828C257.878 254.594 257.864 254.293 257.834 253.926C257.805 253.56 257.732 253.2 257.614 252.848C257.497 252.482 257.292 252.181 256.998 251.946C256.72 251.697 256.316 251.572 255.788 251.572C255.202 251.572 254.732 251.734 254.38 252.056C254.028 252.379 253.772 252.804 253.61 253.332C253.449 253.846 253.368 254.403 253.368 255.004V259.25H252.07ZM270.664 259.47C269.681 259.47 268.867 259.25 268.222 258.81C267.591 258.356 267.122 257.776 266.814 257.072C266.52 256.354 266.374 255.613 266.374 254.85C266.374 254.014 266.535 253.252 266.858 252.562C267.195 251.858 267.679 251.301 268.31 250.89C268.955 250.48 269.725 250.274 270.62 250.274C271.764 250.274 272.717 250.648 273.48 251.396C274.242 252.13 274.653 253.12 274.712 254.366C274.726 254.425 274.734 254.513 274.734 254.63C274.734 254.733 274.734 254.828 274.734 254.916H267.738C267.738 255.958 267.987 256.779 268.486 257.38C268.999 257.967 269.718 258.26 270.642 258.26C271.331 258.26 271.918 258.084 272.402 257.732C272.9 257.38 273.208 256.904 273.326 256.302H274.712C274.565 257.212 274.132 257.967 273.414 258.568C272.695 259.17 271.778 259.47 270.664 259.47ZM267.782 254.146H273.282C273.282 253.838 273.194 253.472 273.018 253.046C272.856 252.621 272.578 252.254 272.182 251.946C271.8 251.624 271.272 251.462 270.598 251.462C269.982 251.462 269.476 251.594 269.08 251.858C268.684 252.122 268.383 252.46 268.178 252.87C267.972 253.281 267.84 253.706 267.782 254.146ZM278.764 259.25C278.221 259.25 277.84 259.104 277.62 258.81C277.414 258.517 277.312 258.114 277.312 257.6V251.352H275.904V250.296C276.373 250.296 276.718 250.26 276.938 250.186C277.172 250.098 277.319 249.893 277.378 249.57C277.436 249.248 277.466 248.72 277.466 247.986H278.676V250.296H280.744V251.352H278.676V258.106H280.766V259.25H278.764ZM282.864 261.186V260.13H283.26C283.612 260.13 283.832 260.05 283.92 259.888C284.022 259.727 284.074 259.522 284.074 259.272C283.678 259.302 283.392 259.228 283.216 259.052C283.04 258.876 282.952 258.627 282.952 258.304C282.952 258.04 283.018 257.82 283.15 257.644C283.282 257.468 283.524 257.38 283.876 257.38C284.184 257.38 284.411 257.476 284.558 257.666C284.704 257.842 284.778 258.172 284.778 258.656C284.778 259.404 284.668 260.013 284.448 260.482C284.228 260.952 283.846 261.186 283.304 261.186H282.864ZM66.95 289.47C66.114 289.47 65.366 289.294 64.706 288.942C64.046 288.59 63.5253 288.077 63.144 287.402C62.7627 286.728 62.572 285.914 62.572 284.96C62.6013 284.022 62.7993 283.2 63.166 282.496C63.5473 281.792 64.068 281.25 64.728 280.868C65.388 280.472 66.1433 280.274 66.994 280.274C67.786 280.274 68.4753 280.421 69.062 280.714C69.6487 281.008 70.118 281.404 70.47 281.902C70.822 282.401 71.042 282.951 71.13 283.552H69.832C69.6853 282.907 69.3627 282.408 68.864 282.056C68.38 281.704 67.7713 281.528 67.038 281.528C66.0993 281.528 65.3513 281.844 64.794 282.474C64.2513 283.09 63.9727 283.897 63.958 284.894C63.958 285.906 64.222 286.713 64.75 287.314C65.2927 287.901 66.048 288.194 67.016 288.194C67.72 288.194 68.3287 288.018 68.842 287.666C69.3553 287.314 69.6853 286.808 69.832 286.148H71.13C71.042 286.764 70.8147 287.322 70.448 287.82C70.096 288.319 69.6193 288.722 69.018 289.03C68.4313 289.324 67.742 289.47 66.95 289.47ZM76.8313 289.47C75.3939 289.47 74.3159 289.045 73.5973 288.194C72.8933 287.329 72.5413 286.229 72.5413 284.894C72.5266 283.545 72.8786 282.445 73.5973 281.594C74.3306 280.729 75.4086 280.289 76.8313 280.274C78.2393 280.274 79.3026 280.7 80.0213 281.55C80.7546 282.386 81.1213 283.501 81.1213 284.894C81.1213 285.76 80.9673 286.537 80.6593 287.226C80.3513 287.916 79.8819 288.466 79.2513 288.876C78.6206 289.272 77.8139 289.47 76.8313 289.47ZM76.8313 288.238C77.5939 288.238 78.1806 288.07 78.5913 287.732C79.0166 287.395 79.3099 286.97 79.4713 286.456C79.6473 285.928 79.7353 285.393 79.7353 284.85C79.7353 284.308 79.6473 283.772 79.4713 283.244C79.3099 282.716 79.0166 282.284 78.5913 281.946C78.1806 281.609 77.5939 281.44 76.8313 281.44C76.0686 281.44 75.4746 281.609 75.0493 281.946C74.6386 282.284 74.3453 282.716 74.1693 283.244C74.0079 283.772 73.9273 284.308 73.9273 284.85C73.9273 285.393 74.0079 285.928 74.1693 286.456C74.3453 286.97 74.6386 287.395 75.0493 287.732C75.4746 288.07 76.0686 288.238 76.8313 288.238ZM82.838 289.25V280.296H84.048L84.29 282.518H84.334C84.3486 282.445 84.4146 282.291 84.532 282.056C84.6493 281.822 84.8253 281.572 85.06 281.308C85.3093 281.03 85.632 280.795 86.028 280.604C86.424 280.399 86.93 280.296 87.546 280.296C88.3233 280.296 88.932 280.436 89.372 280.714C89.8266 280.993 90.164 281.367 90.384 281.836C90.604 282.291 90.7433 282.782 90.802 283.31C90.8606 283.838 90.89 284.344 90.89 284.828V289.25H89.526V284.828C89.526 283.86 89.3573 283.076 89.02 282.474C88.6973 281.873 88.052 281.572 87.084 281.572C86.424 281.572 85.8813 281.734 85.456 282.056C85.0453 282.364 84.7446 282.782 84.554 283.31C84.378 283.824 84.29 284.388 84.29 285.004V289.25H82.838ZM96.2203 289.47C95.3696 289.47 94.6656 289.294 94.1083 288.942C93.5656 288.576 93.155 288.15 92.8763 287.666C92.6123 287.182 92.4803 286.75 92.4803 286.368H93.8443C93.8443 286.383 93.8516 286.493 93.8663 286.698C93.8956 286.904 93.9763 287.138 94.1083 287.402C94.2403 287.666 94.4676 287.901 94.7903 288.106C95.113 288.297 95.5823 288.392 96.1983 288.392C96.8583 288.392 97.423 288.275 97.8923 288.04C98.3763 287.806 98.611 287.439 98.5963 286.94C98.5963 286.515 98.4496 286.192 98.1563 285.972C97.8776 285.738 97.511 285.562 97.0563 285.444C96.6016 285.312 96.125 285.188 95.6263 285.07C95.1276 284.953 94.651 284.806 94.1963 284.63C93.7563 284.44 93.397 284.176 93.1183 283.838C92.8396 283.501 92.7003 283.032 92.7003 282.43C92.7003 281.697 93.0303 281.118 93.6903 280.692C94.3503 280.252 95.1936 280.032 96.2203 280.032C96.7923 280.032 97.3716 280.128 97.9583 280.318C98.545 280.494 99.029 280.81 99.4103 281.264C99.7916 281.704 99.9676 282.328 99.9383 283.134H98.6183C98.6476 282.577 98.523 282.159 98.2443 281.88C97.9656 281.602 97.6283 281.418 97.2323 281.33C96.851 281.228 96.499 281.176 96.1763 281.176C95.5456 281.176 95.025 281.294 94.6143 281.528C94.2183 281.763 94.0203 282.093 94.0203 282.518C94.0203 282.929 94.1596 283.244 94.4383 283.464C94.7316 283.67 95.0983 283.838 95.5383 283.97C95.993 284.088 96.4696 284.205 96.9683 284.322C97.4816 284.425 97.9656 284.572 98.4203 284.762C98.875 284.953 99.2416 285.224 99.5203 285.576C99.8136 285.928 99.9603 286.412 99.9603 287.028C99.9603 287.879 99.601 288.502 98.8823 288.898C98.1636 289.28 97.2763 289.47 96.2203 289.47ZM105.578 289.47C104.595 289.47 103.781 289.25 103.136 288.81C102.505 288.356 102.036 287.776 101.728 287.072C101.435 286.354 101.288 285.613 101.288 284.85C101.288 284.014 101.449 283.252 101.772 282.562C102.109 281.858 102.593 281.301 103.224 280.89C103.869 280.48 104.639 280.274 105.534 280.274C106.678 280.274 107.631 280.648 108.394 281.396C109.157 282.13 109.567 283.12 109.626 284.366C109.641 284.425 109.648 284.513 109.648 284.63C109.648 284.733 109.648 284.828 109.648 284.916H102.652C102.652 285.958 102.901 286.779 103.4 287.38C103.913 287.967 104.632 288.26 105.556 288.26C106.245 288.26 106.832 288.084 107.316 287.732C107.815 287.38 108.123 286.904 108.24 286.302H109.626C109.479 287.212 109.047 287.967 108.328 288.568C107.609 289.17 106.693 289.47 105.578 289.47ZM102.696 284.146H108.196C108.196 283.838 108.108 283.472 107.932 283.046C107.771 282.621 107.492 282.254 107.096 281.946C106.715 281.624 106.187 281.462 105.512 281.462C104.896 281.462 104.39 281.594 103.994 281.858C103.598 282.122 103.297 282.46 103.092 282.87C102.887 283.281 102.755 283.706 102.696 284.146ZM115.548 289.47C114.712 289.47 113.964 289.294 113.304 288.942C112.644 288.59 112.123 288.077 111.742 287.402C111.36 286.728 111.17 285.914 111.17 284.96C111.199 284.022 111.397 283.2 111.764 282.496C112.145 281.792 112.666 281.25 113.326 280.868C113.986 280.472 114.741 280.274 115.592 280.274C116.384 280.274 117.073 280.421 117.66 280.714C118.246 281.008 118.716 281.404 119.068 281.902C119.42 282.401 119.64 282.951 119.728 283.552H118.43C118.283 282.907 117.96 282.408 117.462 282.056C116.978 281.704 116.369 281.528 115.636 281.528C114.697 281.528 113.949 281.844 113.392 282.474C112.849 283.09 112.57 283.897 112.556 284.894C112.556 285.906 112.82 286.713 113.348 287.314C113.89 287.901 114.646 288.194 115.614 288.194C116.318 288.194 116.926 288.018 117.44 287.666C117.953 287.314 118.283 286.808 118.43 286.148H119.728C119.64 286.764 119.412 287.322 119.046 287.82C118.694 288.319 118.217 288.722 117.616 289.03C117.029 289.324 116.34 289.47 115.548 289.47ZM123.625 289.25C123.082 289.25 122.701 289.104 122.481 288.81C122.276 288.517 122.173 288.114 122.173 287.6V281.352H120.765V280.296C121.234 280.296 121.579 280.26 121.799 280.186C122.034 280.098 122.18 279.893 122.239 279.57C122.298 279.248 122.327 278.72 122.327 277.986H123.537V280.296H125.605V281.352H123.537V288.106H125.627V289.25H123.625ZM131.252 289.47C130.269 289.47 129.455 289.25 128.81 288.81C128.179 288.356 127.71 287.776 127.402 287.072C127.108 286.354 126.962 285.613 126.962 284.85C126.962 284.014 127.123 283.252 127.446 282.562C127.783 281.858 128.267 281.301 128.898 280.89C129.543 280.48 130.313 280.274 131.208 280.274C132.352 280.274 133.305 280.648 134.068 281.396C134.83 282.13 135.241 283.12 135.3 284.366C135.314 284.425 135.322 284.513 135.322 284.63C135.322 284.733 135.322 284.828 135.322 284.916H128.326C128.326 285.958 128.575 286.779 129.074 287.38C129.587 287.967 130.306 288.26 131.23 288.26C131.919 288.26 132.506 288.084 132.99 287.732C133.488 287.38 133.796 286.904 133.914 286.302H135.3C135.153 287.212 134.72 287.967 134.002 288.568C133.283 289.17 132.366 289.47 131.252 289.47ZM128.37 284.146H133.87C133.87 283.838 133.782 283.472 133.606 283.046C133.444 282.621 133.166 282.254 132.77 281.946C132.388 281.624 131.86 281.462 131.186 281.462C130.57 281.462 130.064 281.594 129.668 281.858C129.272 282.122 128.971 282.46 128.766 282.87C128.56 283.281 128.428 283.706 128.37 284.146ZM139.351 289.25C138.809 289.25 138.427 289.104 138.207 288.81C138.002 288.517 137.899 288.114 137.899 287.6V281.352H136.491V280.296C136.961 280.296 137.305 280.26 137.525 280.186C137.76 280.098 137.907 279.893 137.965 279.57C138.024 279.248 138.053 278.72 138.053 277.986H139.263V280.296H141.331V281.352H139.263V288.106H141.353V289.25H139.351ZM146.51 289.47C145.776 289.47 145.182 289.338 144.728 289.074C144.288 288.81 143.95 288.458 143.716 288.018C143.481 287.564 143.32 287.072 143.232 286.544C143.158 286.002 143.122 285.459 143.122 284.916V280.296H144.53V284.938C144.53 285.525 144.588 286.068 144.706 286.566C144.823 287.065 145.058 287.461 145.41 287.754C145.776 288.048 146.304 288.194 146.994 288.194C147.654 288.194 148.167 288.048 148.534 287.754C148.915 287.446 149.194 287.05 149.37 286.566C149.546 286.082 149.648 285.576 149.678 285.048V280.296H151.13V289.25H149.92L149.678 287.248H149.634C149.56 287.498 149.406 287.798 149.172 288.15C148.937 288.502 148.6 288.81 148.16 289.074C147.734 289.338 147.184 289.47 146.51 289.47ZM153.204 289.25V280.296H154.48L154.634 282.65C154.722 282.254 154.898 281.873 155.162 281.506C155.426 281.14 155.786 280.846 156.24 280.626C156.71 280.392 157.289 280.282 157.978 280.296H158.396V281.858H157.956C157.018 281.858 156.306 281.998 155.822 282.276C155.353 282.54 155.03 282.914 154.854 283.398C154.693 283.882 154.612 284.44 154.612 285.07V289.25H153.204ZM167.99 289.448C167.168 289.448 166.494 289.25 165.966 288.854C165.438 288.444 165.042 287.894 164.778 287.204C164.528 286.515 164.404 285.73 164.404 284.85C164.404 283.501 164.697 282.394 165.284 281.528C165.885 280.648 166.787 280.208 167.99 280.208C168.606 280.208 169.119 280.318 169.53 280.538C169.955 280.744 170.292 281 170.542 281.308C170.806 281.616 170.996 281.91 171.114 282.188H171.136V280.296H172.588V289.25H171.378L171.158 287.512H171.114C170.982 287.806 170.791 288.106 170.542 288.414C170.292 288.708 169.955 288.957 169.53 289.162C169.119 289.353 168.606 289.448 167.99 289.448ZM168.54 288.194C169.449 288.194 170.102 287.894 170.498 287.292C170.908 286.691 171.114 285.884 171.114 284.872C171.114 283.787 170.901 282.958 170.476 282.386C170.065 281.814 169.42 281.528 168.54 281.528C167.572 281.528 166.875 281.851 166.45 282.496C166.039 283.127 165.834 283.912 165.834 284.85C165.834 285.833 166.046 286.64 166.472 287.27C166.897 287.886 167.586 288.194 168.54 288.194ZM178.302 289.47C177.437 289.47 176.711 289.272 176.124 288.876C175.552 288.48 175.12 287.938 174.826 287.248C174.548 286.544 174.408 285.76 174.408 284.894C174.408 283.56 174.738 282.46 175.398 281.594C176.058 280.729 177.034 280.296 178.324 280.296C178.926 280.296 179.424 280.399 179.82 280.604C180.231 280.795 180.561 281.03 180.81 281.308C181.06 281.587 181.243 281.844 181.36 282.078C181.478 282.313 181.551 282.467 181.58 282.54H181.624L181.646 276.864H183.098V289.25H181.866L181.646 287.27H181.602C181.573 287.344 181.492 287.498 181.36 287.732C181.228 287.967 181.03 288.216 180.766 288.48C180.517 288.744 180.187 288.979 179.776 289.184C179.38 289.375 178.889 289.47 178.302 289.47ZM178.654 288.216C179.52 288.216 180.224 287.923 180.766 287.336C181.324 286.735 181.602 285.921 181.602 284.894C181.602 283.882 181.346 283.083 180.832 282.496C180.319 281.895 179.63 281.594 178.764 281.594C178.075 281.594 177.51 281.756 177.07 282.078C176.63 282.386 176.308 282.79 176.102 283.288C175.897 283.787 175.794 284.322 175.794 284.894C175.794 285.452 175.89 285.987 176.08 286.5C176.271 286.999 176.572 287.41 176.982 287.732C177.393 288.055 177.95 288.216 178.654 288.216ZM186.075 279.328C185.753 279.328 185.533 279.248 185.415 279.086C185.313 278.91 185.261 278.69 185.261 278.426C185.261 278.206 185.313 278.016 185.415 277.854C185.533 277.678 185.753 277.59 186.075 277.59C186.398 277.59 186.611 277.678 186.713 277.854C186.831 278.016 186.889 278.206 186.889 278.426C186.889 278.69 186.831 278.91 186.713 279.086C186.611 279.248 186.398 279.328 186.075 279.328ZM185.371 289.25V280.296H186.779V289.25H185.371ZM193.836 289.47C193.264 289.47 192.773 289.375 192.362 289.184C191.966 288.979 191.643 288.744 191.394 288.48C191.145 288.216 190.954 287.967 190.822 287.732C190.705 287.498 190.631 287.344 190.602 287.27H190.558V292.946H189.106V280.296H190.316L190.558 282.54H190.602C190.631 282.467 190.705 282.313 190.822 282.078C190.939 281.844 191.115 281.587 191.35 281.308C191.599 281.03 191.922 280.795 192.318 280.604C192.729 280.399 193.235 280.296 193.836 280.296C194.701 280.296 195.42 280.494 195.992 280.89C196.579 281.286 197.019 281.836 197.312 282.54C197.62 283.23 197.774 284.022 197.774 284.916C197.774 286.251 197.437 287.344 196.762 288.194C196.087 289.045 195.112 289.47 193.836 289.47ZM193.55 288.216C194.239 288.216 194.789 288.055 195.2 287.732C195.625 287.41 195.926 286.999 196.102 286.5C196.293 285.987 196.388 285.452 196.388 284.894C196.388 284.322 196.285 283.787 196.08 283.288C195.875 282.79 195.552 282.386 195.112 282.078C194.687 281.756 194.122 281.594 193.418 281.594C192.567 281.594 191.885 281.895 191.372 282.496C190.859 283.083 190.602 283.882 190.602 284.894C190.602 285.921 190.873 286.735 191.416 287.336C191.959 287.923 192.67 288.216 193.55 288.216ZM200.405 279.328C200.083 279.328 199.863 279.248 199.745 279.086C199.643 278.91 199.591 278.69 199.591 278.426C199.591 278.206 199.643 278.016 199.745 277.854C199.863 277.678 200.083 277.59 200.405 277.59C200.728 277.59 200.941 277.678 201.043 277.854C201.161 278.016 201.219 278.206 201.219 278.426C201.219 278.69 201.161 278.91 201.043 279.086C200.941 279.248 200.728 279.328 200.405 279.328ZM199.701 289.25V280.296H201.109V289.25H199.701ZM206.736 289.47C205.885 289.47 205.181 289.294 204.624 288.942C204.081 288.576 203.671 288.15 203.392 287.666C203.128 287.182 202.996 286.75 202.996 286.368H204.36C204.36 286.383 204.367 286.493 204.382 286.698C204.411 286.904 204.492 287.138 204.624 287.402C204.756 287.666 204.983 287.901 205.306 288.106C205.629 288.297 206.098 288.392 206.714 288.392C207.374 288.392 207.939 288.275 208.408 288.04C208.892 287.806 209.127 287.439 209.112 286.94C209.112 286.515 208.965 286.192 208.672 285.972C208.393 285.738 208.027 285.562 207.572 285.444C207.117 285.312 206.641 285.188 206.142 285.07C205.643 284.953 205.167 284.806 204.712 284.63C204.272 284.44 203.913 284.176 203.634 283.838C203.355 283.501 203.216 283.032 203.216 282.43C203.216 281.697 203.546 281.118 204.206 280.692C204.866 280.252 205.709 280.032 206.736 280.032C207.308 280.032 207.887 280.128 208.474 280.318C209.061 280.494 209.545 280.81 209.926 281.264C210.307 281.704 210.483 282.328 210.454 283.134H209.134C209.163 282.577 209.039 282.159 208.76 281.88C208.481 281.602 208.144 281.418 207.748 281.33C207.367 281.228 207.015 281.176 206.692 281.176C206.061 281.176 205.541 281.294 205.13 281.528C204.734 281.763 204.536 282.093 204.536 282.518C204.536 282.929 204.675 283.244 204.954 283.464C205.247 283.67 205.614 283.838 206.054 283.97C206.509 284.088 206.985 284.205 207.484 284.322C207.997 284.425 208.481 284.572 208.936 284.762C209.391 284.953 209.757 285.224 210.036 285.576C210.329 285.928 210.476 286.412 210.476 287.028C210.476 287.879 210.117 288.502 209.398 288.898C208.679 289.28 207.792 289.47 206.736 289.47ZM216.138 289.47C215.302 289.47 214.554 289.294 213.894 288.942C213.234 288.59 212.713 288.077 212.332 287.402C211.95 286.728 211.76 285.914 211.76 284.96C211.789 284.022 211.987 283.2 212.354 282.496C212.735 281.792 213.256 281.25 213.916 280.868C214.576 280.472 215.331 280.274 216.182 280.274C216.974 280.274 217.663 280.421 218.25 280.714C218.836 281.008 219.306 281.404 219.658 281.902C220.01 282.401 220.23 282.951 220.318 283.552H219.02C218.873 282.907 218.55 282.408 218.052 282.056C217.568 281.704 216.959 281.528 216.226 281.528C215.287 281.528 214.539 281.844 213.982 282.474C213.439 283.09 213.16 283.897 213.146 284.894C213.146 285.906 213.41 286.713 213.938 287.314C214.48 287.901 215.236 288.194 216.204 288.194C216.908 288.194 217.516 288.018 218.03 287.666C218.543 287.314 218.873 286.808 219.02 286.148H220.318C220.23 286.764 220.002 287.322 219.636 287.82C219.284 288.319 218.807 288.722 218.206 289.03C217.619 289.324 216.93 289.47 216.138 289.47ZM223.093 279.328C222.77 279.328 222.55 279.248 222.433 279.086C222.33 278.91 222.279 278.69 222.279 278.426C222.279 278.206 222.33 278.016 222.433 277.854C222.55 277.678 222.77 277.59 223.093 277.59C223.415 277.59 223.628 277.678 223.731 277.854C223.848 278.016 223.907 278.206 223.907 278.426C223.907 278.69 223.848 278.91 223.731 279.086C223.628 279.248 223.415 279.328 223.093 279.328ZM222.389 289.25V280.296H223.797V289.25H222.389ZM225.859 289.25V280.296H227.069L227.311 282.518H227.355C227.37 282.445 227.436 282.291 227.553 282.056C227.671 281.822 227.847 281.572 228.081 281.308C228.331 281.03 228.653 280.795 229.049 280.604C229.445 280.399 229.951 280.296 230.567 280.296C231.345 280.296 231.953 280.436 232.393 280.714C232.848 280.993 233.185 281.367 233.405 281.836C233.625 282.291 233.765 282.782 233.823 283.31C233.882 283.838 233.911 284.344 233.911 284.828V289.25H232.547V284.828C232.547 283.86 232.379 283.076 232.041 282.474C231.719 281.873 231.073 281.572 230.105 281.572C229.445 281.572 228.903 281.734 228.477 282.056C228.067 282.364 227.766 282.782 227.575 283.31C227.399 283.824 227.311 284.388 227.311 285.004V289.25H225.859ZM237.878 292.946V291.604H242.344V287.27H242.3C242.27 287.344 242.19 287.498 242.058 287.732C241.94 287.967 241.75 288.216 241.486 288.48C241.236 288.744 240.906 288.979 240.496 289.184C240.1 289.375 239.616 289.47 239.044 289.47C238.178 289.47 237.452 289.272 236.866 288.876C236.294 288.466 235.861 287.916 235.568 287.226C235.274 286.537 235.128 285.76 235.128 284.894C235.128 283.545 235.458 282.445 236.118 281.594C236.792 280.729 237.775 280.296 239.066 280.296C239.667 280.296 240.166 280.399 240.562 280.604C240.972 280.795 241.295 281.03 241.53 281.308C241.779 281.587 241.962 281.844 242.08 282.078C242.197 282.313 242.27 282.467 242.3 282.54H242.344V280.296H243.796V290.79C243.796 291.494 243.664 292.03 243.4 292.396C243.136 292.763 242.659 292.946 241.97 292.946H237.878ZM239.352 288.216C240.232 288.216 240.943 287.923 241.486 287.336C242.028 286.735 242.3 285.921 242.3 284.894C242.3 283.882 242.043 283.083 241.53 282.496C241.016 281.895 240.334 281.594 239.484 281.594C238.78 281.594 238.208 281.756 237.768 282.078C237.342 282.386 237.027 282.79 236.822 283.288C236.616 283.787 236.514 284.322 236.514 284.894C236.514 285.452 236.602 285.987 236.778 286.5C236.968 286.999 237.269 287.41 237.68 287.732C238.105 288.055 238.662 288.216 239.352 288.216ZM254.959 289.47C253.976 289.47 253.162 289.25 252.517 288.81C251.886 288.356 251.417 287.776 251.109 287.072C250.815 286.354 250.669 285.613 250.669 284.85C250.669 284.014 250.83 283.252 251.153 282.562C251.49 281.858 251.974 281.301 252.605 280.89C253.25 280.48 254.02 280.274 254.915 280.274C256.059 280.274 257.012 280.648 257.775 281.396C258.537 282.13 258.948 283.12 259.007 284.366C259.021 284.425 259.029 284.513 259.029 284.63C259.029 284.733 259.029 284.828 259.029 284.916H252.033C252.033 285.958 252.282 286.779 252.781 287.38C253.294 287.967 254.013 288.26 254.937 288.26C255.626 288.26 256.213 288.084 256.697 287.732C257.195 287.38 257.503 286.904 257.621 286.302H259.007C258.86 287.212 258.427 287.967 257.709 288.568C256.99 289.17 256.073 289.47 254.959 289.47ZM252.077 284.146H257.577C257.577 283.838 257.489 283.472 257.313 283.046C257.151 282.621 256.873 282.254 256.477 281.946C256.095 281.624 255.567 281.462 254.893 281.462C254.277 281.462 253.771 281.594 253.375 281.858C252.979 282.122 252.678 282.46 252.473 282.87C252.267 283.281 252.135 283.706 252.077 284.146ZM261.123 289.25V276.864H262.509V289.25H261.123ZM265.61 279.328C265.288 279.328 265.068 279.248 264.95 279.086C264.848 278.91 264.796 278.69 264.796 278.426C264.796 278.206 264.848 278.016 264.95 277.854C265.068 277.678 265.288 277.59 265.61 277.59C265.933 277.59 266.146 277.678 266.248 277.854C266.366 278.016 266.424 278.206 266.424 278.426C266.424 278.69 266.366 278.91 266.248 279.086C266.146 279.248 265.933 279.328 265.61 279.328ZM264.906 289.25V280.296H266.314V289.25H264.906ZM270.836 289.25C270.293 289.25 269.912 289.104 269.692 288.81C269.487 288.517 269.384 288.114 269.384 287.6V281.352H267.976V280.296C268.445 280.296 268.79 280.26 269.01 280.186C269.245 280.098 269.391 279.893 269.45 279.57C269.509 279.248 269.538 278.72 269.538 277.986H270.748V280.296H272.816V281.352H270.748V288.106H272.838V289.25H270.836ZM275.53 289.25C275.163 289.25 274.914 289.155 274.782 288.964C274.665 288.759 274.606 288.524 274.606 288.26C274.606 287.982 274.665 287.747 274.782 287.556C274.914 287.366 275.163 287.27 275.53 287.27C275.897 287.27 276.139 287.366 276.256 287.556C276.388 287.747 276.454 287.982 276.454 288.26C276.454 288.539 276.388 288.774 276.256 288.964C276.139 289.155 275.897 289.25 275.53 289.25ZM288.953 288.018V289.25H284.157V288.018H285.851V278.096H284.157V276.864H288.953V278.096H287.259V288.018H288.953ZM291.236 289.25V280.296H292.446L292.688 282.518H292.732C292.747 282.445 292.813 282.291 292.93 282.056C293.048 281.822 293.224 281.572 293.458 281.308C293.708 281.03 294.03 280.795 294.426 280.604C294.822 280.399 295.328 280.296 295.944 280.296C296.722 280.296 297.33 280.436 297.77 280.714C298.225 280.993 298.562 281.367 298.782 281.836C299.002 282.291 299.142 282.782 299.2 283.31C299.259 283.838 299.288 284.344 299.288 284.828V289.25H297.924V284.828C297.924 283.86 297.756 283.076 297.418 282.474C297.096 281.873 296.45 281.572 295.482 281.572C294.822 281.572 294.28 281.734 293.854 282.056C293.444 282.364 293.143 282.782 292.952 283.31C292.776 283.824 292.688 284.388 292.688 285.004V289.25H291.236ZM66.158 319.47C65.4247 319.47 64.8307 319.338 64.376 319.074C63.936 318.81 63.5987 318.458 63.364 318.018C63.1293 317.564 62.968 317.072 62.88 316.544C62.8067 316.002 62.77 315.459 62.77 314.916V310.296H64.178V314.938C64.178 315.525 64.2367 316.068 64.354 316.566C64.4713 317.065 64.706 317.461 65.058 317.754C65.4247 318.048 65.9527 318.194 66.642 318.194C67.302 318.194 67.8153 318.048 68.182 317.754C68.5633 317.446 68.842 317.05 69.018 316.566C69.194 316.082 69.2967 315.576 69.326 315.048V310.296H70.778V319.25H69.568L69.326 317.248H69.282C69.2087 317.498 69.0547 317.798 68.82 318.15C68.5853 318.502 68.248 318.81 67.808 319.074C67.3827 319.338 66.8327 319.47 66.158 319.47ZM72.8529 319.25V310.296H74.1289L74.2829 312.65C74.3709 312.254 74.5469 311.873 74.8109 311.506C75.0749 311.14 75.4342 310.846 75.8889 310.626C76.3582 310.392 76.9375 310.282 77.6269 310.296H78.0449V311.858H77.6049C76.6662 311.858 75.9549 311.998 75.4709 312.276C75.0015 312.54 74.6789 312.914 74.5029 313.398C74.3415 313.882 74.2609 314.44 74.2609 315.07V319.25H72.8529ZM79.2715 319.25V310.296H80.4815L80.7235 312.518H80.7675C80.7822 312.445 80.8482 312.291 80.9655 312.056C81.0829 311.822 81.2589 311.572 81.4935 311.308C81.7429 311.03 82.0655 310.795 82.4615 310.604C82.8575 310.399 83.3635 310.296 83.9795 310.296C84.7569 310.296 85.3655 310.436 85.8055 310.714C86.2602 310.993 86.5975 311.367 86.8175 311.836C87.0375 312.291 87.1769 312.782 87.2355 313.31C87.2942 313.838 87.3235 314.344 87.3235 314.828V319.25H85.9595V314.828C85.9595 313.86 85.7909 313.076 85.4535 312.474C85.1309 311.873 84.4855 311.572 83.5175 311.572C82.8575 311.572 82.3149 311.734 81.8895 312.056C81.4789 312.364 81.1782 312.782 80.9875 313.31C80.8115 313.824 80.7235 314.388 80.7235 315.004V319.25H79.2715ZM92.2359 319.448C91.4146 319.448 90.7399 319.25 90.2119 318.854C89.6839 318.444 89.2879 317.894 89.0239 317.204C88.7746 316.515 88.6499 315.73 88.6499 314.85C88.6499 313.501 88.9432 312.394 89.5299 311.528C90.1312 310.648 91.0332 310.208 92.2359 310.208C92.8519 310.208 93.3652 310.318 93.7759 310.538C94.2012 310.744 94.5386 311 94.7879 311.308C95.0519 311.616 95.2426 311.91 95.3599 312.188H95.3819V310.296H96.8339V319.25H95.6239L95.4039 317.512H95.3599C95.2279 317.806 95.0372 318.106 94.7879 318.414C94.5386 318.708 94.2012 318.957 93.7759 319.162C93.3652 319.353 92.8519 319.448 92.2359 319.448ZM92.7859 318.194C93.6952 318.194 94.3479 317.894 94.7439 317.292C95.1546 316.691 95.3599 315.884 95.3599 314.872C95.3599 313.787 95.1472 312.958 94.7219 312.386C94.3112 311.814 93.6659 311.528 92.7859 311.528C91.8179 311.528 91.1212 311.851 90.6959 312.496C90.2852 313.127 90.0799 313.912 90.0799 314.85C90.0799 315.833 90.2926 316.64 90.7179 317.27C91.1432 317.886 91.8326 318.194 92.7859 318.194ZM98.7426 321.186V320.13H99.1386C99.4906 320.13 99.7106 320.05 99.7986 319.888C99.9012 319.727 99.9526 319.522 99.9526 319.272C99.5566 319.302 99.2706 319.228 99.0946 319.052C98.9186 318.876 98.8306 318.627 98.8306 318.304C98.8306 318.04 98.8966 317.82 99.0286 317.644C99.1606 317.468 99.4026 317.38 99.7546 317.38C100.063 317.38 100.29 317.476 100.437 317.666C100.583 317.842 100.657 318.172 100.657 318.656C100.657 319.404 100.547 320.013 100.327 320.482C100.107 320.952 99.7252 321.186 99.1826 321.186H98.7426ZM107.803 319.25V310.296H109.013L109.255 312.518H109.299C109.313 312.445 109.379 312.291 109.497 312.056C109.614 311.822 109.79 311.572 110.025 311.308C110.274 311.03 110.597 310.795 110.993 310.604C111.389 310.399 111.895 310.296 112.511 310.296C113.288 310.296 113.897 310.436 114.337 310.714C114.791 310.993 115.129 311.367 115.349 311.836C115.569 312.291 115.708 312.782 115.767 313.31C115.825 313.838 115.855 314.344 115.855 314.828V319.25H114.491V314.828C114.491 313.86 114.322 313.076 113.985 312.474C113.662 311.873 113.017 311.572 112.049 311.572C111.389 311.572 110.846 311.734 110.421 312.056C110.01 312.364 109.709 312.782 109.519 313.31C109.343 313.824 109.255 314.388 109.255 315.004V319.25H107.803ZM121.669 319.47C120.232 319.47 119.154 319.045 118.435 318.194C117.731 317.329 117.379 316.229 117.379 314.894C117.364 313.545 117.716 312.445 118.435 311.594C119.168 310.729 120.246 310.289 121.669 310.274C123.077 310.274 124.14 310.7 124.859 311.55C125.592 312.386 125.959 313.501 125.959 314.894C125.959 315.76 125.805 316.537 125.497 317.226C125.189 317.916 124.72 318.466 124.089 318.876C123.458 319.272 122.652 319.47 121.669 319.47ZM121.669 318.238C122.432 318.238 123.018 318.07 123.429 317.732C123.854 317.395 124.148 316.97 124.309 316.456C124.485 315.928 124.573 315.393 124.573 314.85C124.573 314.308 124.485 313.772 124.309 313.244C124.148 312.716 123.854 312.284 123.429 311.946C123.018 311.609 122.432 311.44 121.669 311.44C120.906 311.44 120.312 311.609 119.887 311.946C119.476 312.284 119.183 312.716 119.007 313.244C118.846 313.772 118.765 314.308 118.765 314.85C118.765 315.393 118.846 315.928 119.007 316.456C119.183 316.97 119.476 317.395 119.887 317.732C120.312 318.07 120.906 318.238 121.669 318.238ZM127.676 319.25V310.296H128.886L129.128 312.518H129.172C129.187 312.445 129.253 312.291 129.37 312.056C129.487 311.822 129.663 311.572 129.898 311.308C130.147 311.03 130.47 310.795 130.866 310.604C131.262 310.399 131.768 310.296 132.384 310.296C133.161 310.296 133.77 310.436 134.21 310.714C134.665 310.993 135.002 311.367 135.222 311.836C135.442 312.291 135.581 312.782 135.64 313.31C135.699 313.838 135.728 314.344 135.728 314.828V319.25H134.364V314.828C134.364 313.86 134.195 313.076 133.858 312.474C133.535 311.873 132.89 311.572 131.922 311.572C131.262 311.572 130.719 311.734 130.294 312.056C129.883 312.364 129.583 312.782 129.392 313.31C129.216 313.824 129.128 314.388 129.128 315.004V319.25H127.676ZM142.715 319.25V310.296H143.925L144.167 312.518H144.211C144.226 312.445 144.292 312.291 144.409 312.056C144.526 311.822 144.702 311.572 144.937 311.308C145.186 311.03 145.509 310.795 145.905 310.604C146.301 310.399 146.807 310.296 147.423 310.296C148.2 310.296 148.809 310.436 149.249 310.714C149.704 310.993 150.041 311.367 150.261 311.836C150.481 312.291 150.62 312.782 150.679 313.31C150.738 313.838 150.767 314.344 150.767 314.828V319.25H149.403V314.828C149.403 313.86 149.234 313.076 148.897 312.474C148.574 311.873 147.929 311.572 146.961 311.572C146.301 311.572 145.758 311.734 145.333 312.056C144.922 312.364 144.622 312.782 144.431 313.31C144.255 313.824 144.167 314.388 144.167 315.004V319.25H142.715ZM153.655 309.328C153.333 309.328 153.113 309.248 152.995 309.086C152.893 308.91 152.841 308.69 152.841 308.426C152.841 308.206 152.893 308.016 152.995 307.854C153.113 307.678 153.333 307.59 153.655 307.59C153.978 307.59 154.191 307.678 154.293 307.854C154.411 308.016 154.469 308.206 154.469 308.426C154.469 308.69 154.411 308.91 154.293 309.086C154.191 309.248 153.978 309.328 153.655 309.328ZM152.951 319.25V310.296H154.359V319.25H152.951ZM159.986 319.47C159.135 319.47 158.431 319.294 157.874 318.942C157.331 318.576 156.921 318.15 156.642 317.666C156.378 317.182 156.246 316.75 156.246 316.368H157.61C157.61 316.383 157.617 316.493 157.632 316.698C157.661 316.904 157.742 317.138 157.874 317.402C158.006 317.666 158.233 317.901 158.556 318.106C158.879 318.297 159.348 318.392 159.964 318.392C160.624 318.392 161.189 318.275 161.658 318.04C162.142 317.806 162.377 317.439 162.362 316.94C162.362 316.515 162.215 316.192 161.922 315.972C161.643 315.738 161.277 315.562 160.822 315.444C160.367 315.312 159.891 315.188 159.392 315.07C158.893 314.953 158.417 314.806 157.962 314.63C157.522 314.44 157.163 314.176 156.884 313.838C156.605 313.501 156.466 313.032 156.466 312.43C156.466 311.697 156.796 311.118 157.456 310.692C158.116 310.252 158.959 310.032 159.986 310.032C160.558 310.032 161.137 310.128 161.724 310.318C162.311 310.494 162.795 310.81 163.176 311.264C163.557 311.704 163.733 312.328 163.704 313.134H162.384C162.413 312.577 162.289 312.159 162.01 311.88C161.731 311.602 161.394 311.418 160.998 311.33C160.617 311.228 160.265 311.176 159.942 311.176C159.311 311.176 158.791 311.294 158.38 311.528C157.984 311.763 157.786 312.093 157.786 312.518C157.786 312.929 157.925 313.244 158.204 313.464C158.497 313.67 158.864 313.838 159.304 313.97C159.759 314.088 160.235 314.205 160.734 314.322C161.247 314.425 161.731 314.572 162.186 314.762C162.641 314.953 163.007 315.224 163.286 315.576C163.579 315.928 163.726 316.412 163.726 317.028C163.726 317.879 163.367 318.502 162.648 318.898C161.929 319.28 161.042 319.47 159.986 319.47ZM165.582 319.25V306.864H166.968V319.25H165.582ZM176.412 319.25C175.869 319.25 175.488 319.104 175.268 318.81C175.063 318.517 174.96 318.114 174.96 317.6V311.352H173.552V310.296C174.021 310.296 174.366 310.26 174.586 310.186C174.821 310.098 174.967 309.893 175.026 309.57C175.085 309.248 175.114 308.72 175.114 307.986H176.324V310.296H178.392V311.352H176.324V318.106H178.414V319.25H176.412ZM181.37 309.328C181.047 309.328 180.827 309.248 180.71 309.086C180.607 308.91 180.556 308.69 180.556 308.426C180.556 308.206 180.607 308.016 180.71 307.854C180.827 307.678 181.047 307.59 181.37 307.59C181.693 307.59 181.905 307.678 182.008 307.854C182.125 308.016 182.184 308.206 182.184 308.426C182.184 308.69 182.125 308.91 182.008 309.086C181.905 309.248 181.693 309.328 181.37 309.328ZM180.666 319.25V310.296H182.074V319.25H180.666ZM184.137 319.25V310.296H185.347L185.589 312.518H185.633C185.647 312.445 185.713 312.291 185.831 312.056C185.948 311.822 186.124 311.572 186.359 311.308C186.608 311.03 186.931 310.795 187.327 310.604C187.723 310.399 188.229 310.296 188.845 310.296C189.622 310.296 190.231 310.436 190.671 310.714C191.125 310.993 191.463 311.367 191.683 311.836C191.903 312.291 192.042 312.782 192.101 313.31C192.159 313.838 192.189 314.344 192.189 314.828V319.25H190.825V314.828C190.825 313.86 190.656 313.076 190.319 312.474C189.996 311.873 189.351 311.572 188.383 311.572C187.723 311.572 187.18 311.734 186.755 312.056C186.344 312.364 186.043 312.782 185.853 313.31C185.677 313.824 185.589 314.388 185.589 315.004V319.25H184.137ZM198.069 319.47C197.233 319.47 196.485 319.294 195.825 318.942C195.165 318.59 194.644 318.077 194.263 317.402C193.882 316.728 193.691 315.914 193.691 314.96C193.72 314.022 193.918 313.2 194.285 312.496C194.666 311.792 195.187 311.25 195.847 310.868C196.507 310.472 197.262 310.274 198.113 310.274C198.905 310.274 199.594 310.421 200.181 310.714C200.768 311.008 201.237 311.404 201.589 311.902C201.941 312.401 202.161 312.951 202.249 313.552H200.951C200.804 312.907 200.482 312.408 199.983 312.056C199.499 311.704 198.89 311.528 198.157 311.528C197.218 311.528 196.47 311.844 195.913 312.474C195.37 313.09 195.092 313.897 195.077 314.894C195.077 315.906 195.341 316.713 195.869 317.314C196.412 317.901 197.167 318.194 198.135 318.194C198.839 318.194 199.448 318.018 199.961 317.666C200.474 317.314 200.804 316.808 200.951 316.148H202.249C202.161 316.764 201.934 317.322 201.567 317.82C201.215 318.319 200.738 318.722 200.137 319.03C199.55 319.324 198.861 319.47 198.069 319.47ZM205.024 309.328C204.702 309.328 204.482 309.248 204.364 309.086C204.262 308.91 204.21 308.69 204.21 308.426C204.21 308.206 204.262 308.016 204.364 307.854C204.482 307.678 204.702 307.59 205.024 307.59C205.347 307.59 205.56 307.678 205.662 307.854C205.78 308.016 205.838 308.206 205.838 308.426C205.838 308.69 205.78 308.91 205.662 309.086C205.56 309.248 205.347 309.328 205.024 309.328ZM204.32 319.25V310.296H205.728V319.25H204.32ZM211.861 319.47C210.996 319.47 210.27 319.272 209.683 318.876C209.111 318.48 208.678 317.938 208.385 317.248C208.106 316.544 207.967 315.76 207.967 314.894C207.967 313.56 208.297 312.46 208.957 311.594C209.617 310.729 210.592 310.296 211.883 310.296C212.484 310.296 212.983 310.399 213.379 310.604C213.79 310.795 214.12 311.03 214.369 311.308C214.618 311.587 214.802 311.844 214.919 312.078C215.036 312.313 215.11 312.467 215.139 312.54H215.183L215.205 306.864H216.657V319.25H215.425L215.205 317.27H215.161C215.132 317.344 215.051 317.498 214.919 317.732C214.787 317.967 214.589 318.216 214.325 318.48C214.076 318.744 213.746 318.979 213.335 319.184C212.939 319.375 212.448 319.47 211.861 319.47ZM212.213 318.216C213.078 318.216 213.782 317.923 214.325 317.336C214.882 316.735 215.161 315.921 215.161 314.894C215.161 313.882 214.904 313.083 214.391 312.496C213.878 311.895 213.188 311.594 212.323 311.594C211.634 311.594 211.069 311.756 210.629 312.078C210.189 312.386 209.866 312.79 209.661 313.288C209.456 313.787 209.353 314.322 209.353 314.894C209.353 315.452 209.448 315.987 209.639 316.5C209.83 316.999 210.13 317.41 210.541 317.732C210.952 318.055 211.509 318.216 212.213 318.216ZM221.834 319.47C221.1 319.47 220.506 319.338 220.052 319.074C219.612 318.81 219.274 318.458 219.04 318.018C218.805 317.564 218.644 317.072 218.556 316.544C218.482 316.002 218.446 315.459 218.446 314.916V310.296H219.854V314.938C219.854 315.525 219.912 316.068 220.03 316.566C220.147 317.065 220.382 317.461 220.734 317.754C221.1 318.048 221.628 318.194 222.318 318.194C222.978 318.194 223.491 318.048 223.858 317.754C224.239 317.446 224.518 317.05 224.694 316.566C224.87 316.082 224.972 315.576 225.002 315.048V310.296H226.454V319.25H225.244L225.002 317.248H224.958C224.884 317.498 224.73 317.798 224.496 318.15C224.261 318.502 223.924 318.81 223.484 319.074C223.058 319.338 222.508 319.47 221.834 319.47ZM228.309 319.25V310.296H229.519L229.761 312.518H229.805C229.819 312.445 229.885 312.291 230.003 312.056C230.12 311.822 230.296 311.572 230.531 311.308C230.78 311.03 231.103 310.795 231.499 310.604C231.895 310.399 232.401 310.296 233.017 310.296C233.794 310.296 234.403 310.436 234.843 310.714C235.297 310.993 235.635 311.367 235.855 311.836C236.075 312.291 236.214 312.782 236.273 313.31C236.331 313.838 236.361 314.344 236.361 314.828V319.25H234.997V314.828C234.997 313.86 234.828 313.076 234.491 312.474C234.168 311.873 233.523 311.572 232.555 311.572C231.895 311.572 231.352 311.734 230.927 312.056C230.516 312.364 230.215 312.782 230.025 313.31C229.849 313.824 229.761 314.388 229.761 315.004V319.25H228.309ZM240.371 319.25C239.828 319.25 239.447 319.104 239.227 318.81C239.022 318.517 238.919 318.114 238.919 317.6V311.352H237.511V310.296C237.98 310.296 238.325 310.26 238.545 310.186C238.78 310.098 238.926 309.893 238.985 309.57C239.044 309.248 239.073 308.72 239.073 307.986H240.283V310.296H242.351V311.352H240.283V318.106H242.373V319.25H240.371ZM245.065 319.25C244.698 319.25 244.449 319.155 244.317 318.964C244.2 318.759 244.141 318.524 244.141 318.26C244.141 317.982 244.2 317.747 244.317 317.556C244.449 317.366 244.698 317.27 245.065 317.27C245.432 317.27 245.674 317.366 245.791 317.556C245.923 317.747 245.989 317.982 245.989 318.26C245.989 318.539 245.923 318.774 245.791 318.964C245.674 319.155 245.432 319.25 245.065 319.25Z" fill="#6E6E6E"/>
<path d="M63.449 375V362.051H65.795V372.999H72.189V375H63.449ZM76.3457 373.114H83.4987V375H74.0227V362.051H83.2687V364.075H76.3457V367.479H81.6587V369.411H76.3457V373.114ZM84.7632 375L88.9032 362.051H92.7442L96.9992 375H94.4922L93.3882 371.343H88.3512L87.2472 375H84.7632ZM90.8582 363.04L88.9032 369.526H92.8362L90.8582 363.04ZM98.6415 375V362.051H103.403C105.074 362.051 106.377 362.335 107.313 362.902C108.248 363.454 108.716 364.435 108.716 365.846C108.716 366.904 108.463 367.763 107.957 368.422C107.451 369.066 106.722 369.388 105.772 369.388C106.308 369.388 106.707 369.511 106.968 369.756C107.244 369.986 107.435 370.277 107.543 370.63C107.65 370.983 107.727 371.351 107.773 371.734C107.819 372.117 107.872 372.462 107.934 372.769C108.01 373.06 108.148 373.267 108.348 373.39C108.562 373.513 108.892 373.49 109.337 373.321V374.678C109.045 374.923 108.7 375.084 108.302 375.161C107.903 375.253 107.512 375.23 107.129 375.092C106.745 374.954 106.423 374.686 106.163 374.287C105.902 373.873 105.772 373.298 105.772 372.562C105.772 371.887 105.733 371.351 105.657 370.952C105.58 370.538 105.388 370.231 105.082 370.032C104.775 369.817 104.3 369.687 103.656 369.641C103.012 369.58 102.122 369.58 100.988 369.641V375H98.6415ZM100.988 367.939H103.311C104.062 367.939 104.683 367.908 105.174 367.847C105.664 367.77 106.025 367.602 106.255 367.341C106.5 367.065 106.623 366.628 106.623 366.03C106.623 365.371 106.477 364.895 106.186 364.604C105.894 364.313 105.465 364.136 104.898 364.075C104.346 363.998 103.663 363.96 102.851 363.96H100.988V367.939ZM120.3 362.051H122.738V375H118.276L113.837 363.086H113.791V375H111.376V362.051H115.516L120.254 373.965H120.3V362.051ZM130.402 375V362.051H134.496L137.532 373.988H137.578L140.591 362.051H144.662V375H142.224L142.385 363.109H142.362L139.257 375H135.807L132.748 363.109H132.702L132.84 375H130.402ZM152.813 375.322C150.728 375.322 149.133 374.716 148.029 373.505C146.925 372.278 146.373 370.63 146.373 368.56C146.373 367.195 146.611 366.015 147.086 365.018C147.561 364.006 148.274 363.224 149.225 362.672C150.191 362.105 151.387 361.821 152.813 361.821C154.929 361.821 156.531 362.434 157.62 363.661C158.709 364.872 159.253 366.505 159.253 368.56C159.253 369.894 159.008 371.075 158.517 372.102C158.026 373.114 157.306 373.904 156.355 374.471C155.404 375.038 154.224 375.322 152.813 375.322ZM152.79 373.068C154.17 373.068 155.205 372.639 155.895 371.78C156.6 370.921 156.953 369.848 156.953 368.56C156.953 367.686 156.8 366.912 156.493 366.237C156.186 365.547 155.726 365.01 155.113 364.627C154.5 364.228 153.725 364.029 152.79 364.029C151.441 364.029 150.413 364.443 149.708 365.271C149.003 366.099 148.65 367.195 148.65 368.56C148.65 369.403 148.796 370.17 149.087 370.86C149.394 371.535 149.854 372.071 150.467 372.47C151.08 372.869 151.855 373.068 152.79 373.068ZM161.33 375V362.051H166.091C167.762 362.051 169.066 362.335 170.001 362.902C170.936 363.454 171.404 364.435 171.404 365.846C171.404 366.904 171.151 367.763 170.645 368.422C170.139 369.066 169.411 369.388 168.46 369.388C168.997 369.388 169.395 369.511 169.656 369.756C169.932 369.986 170.124 370.277 170.231 370.63C170.338 370.983 170.415 371.351 170.461 371.734C170.507 372.117 170.561 372.462 170.622 372.769C170.699 373.06 170.837 373.267 171.036 373.39C171.251 373.513 171.58 373.49 172.025 373.321V374.678C171.734 374.923 171.389 375.084 170.99 375.161C170.591 375.253 170.2 375.23 169.817 375.092C169.434 374.954 169.112 374.686 168.851 374.287C168.59 373.873 168.46 373.298 168.46 372.562C168.46 371.887 168.422 371.351 168.345 370.952C168.268 370.538 168.077 370.231 167.77 370.032C167.463 369.817 166.988 369.687 166.344 369.641C165.7 369.58 164.811 369.58 163.676 369.641V375H161.33ZM163.676 367.939H165.999C166.75 367.939 167.371 367.908 167.862 367.847C168.353 367.77 168.713 367.602 168.943 367.341C169.188 367.065 169.311 366.628 169.311 366.03C169.311 365.371 169.165 364.895 168.874 364.604C168.583 364.313 168.153 364.136 167.586 364.075C167.034 363.998 166.352 363.96 165.539 363.96H163.676V367.939ZM176.342 373.114H183.495V375H174.019V362.051H183.265V364.075H176.342V367.479H181.655V369.411H176.342V373.114Z" fill="#181817"/>
<path d="M62 377.875H184.323V379.025H62V377.875Z" fill="#181817"/>
<path d="M96 50L115.919 84.5H76.0814L96 50Z" fill="#F6D88C"/>
<path d="M82.1436 81L96 57L109.856 81H82.1436Z" stroke="#181817"/>
<path d="M70.8853 87.5L96 44L121.115 87.5H70.8853Z" stroke="#181817"/>
</svg>
