<svg width="88" height="13" viewBox="0 0 88 13" fill="none" xmlns="http://www.w3.org/2000/svg">
<path d="M0.304 10L3.328 0.992H5.52L8.608 10H7.184L6.32 7.312H2.576L1.712 10H0.304ZM4.448 1.552L2.928 6.256H5.968L4.448 1.552ZM13.3234 10.16C12.9074 10.16 12.5554 10.096 12.2674 9.968C11.99 9.82933 11.7607 9.66933 11.5794 9.488C11.4087 9.30667 11.2807 9.14133 11.1954 8.992C11.1207 8.832 11.0727 8.73067 11.0514 8.688H11.0194V12.8H9.65938V3.456H10.8114L11.0354 4.992H11.0674C11.078 4.94933 11.1207 4.848 11.1954 4.688C11.27 4.528 11.3927 4.352 11.5634 4.16C11.734 3.968 11.958 3.80267 12.2354 3.664C12.5234 3.52533 12.8807 3.456 13.3074 3.456C14.2674 3.456 14.9767 3.77067 15.4354 4.4C15.894 5.02933 16.1234 5.84 16.1234 6.832C16.1234 7.824 15.8887 8.62933 15.4194 9.248C14.9607 9.856 14.262 10.16 13.3234 10.16ZM12.9714 9.008C13.4407 9.008 13.8087 8.90667 14.0754 8.704C14.3527 8.49067 14.5447 8.21867 14.6514 7.888C14.7687 7.54667 14.8274 7.18933 14.8274 6.816C14.8274 6.45333 14.7634 6.10667 14.6354 5.776C14.518 5.44533 14.3154 5.17867 14.0274 4.976C13.75 4.76267 13.3767 4.656 12.9074 4.656C12.2887 4.656 11.8247 4.85867 11.5154 5.264C11.206 5.65867 11.0514 6.176 11.0514 6.816C11.0514 7.47733 11.2114 8.01067 11.5314 8.416C11.862 8.81067 12.342 9.008 12.9714 9.008ZM17.3294 10V3.456H18.5614L18.6734 5.232C18.7374 4.944 18.86 4.66667 19.0414 4.4C19.2334 4.12267 19.4947 3.89867 19.8254 3.728C20.1667 3.54667 20.5987 3.456 21.1214 3.456H21.3934V4.928H21.1054C20.4547 4.928 19.9534 5.01333 19.6014 5.184C19.2494 5.344 19.004 5.584 18.8654 5.904C18.7267 6.21333 18.6574 6.59733 18.6574 7.056V10H17.3294ZM23.2864 2.736C22.9984 2.74667 22.8064 2.67733 22.7104 2.528C22.6144 2.37867 22.5664 2.192 22.5664 1.968C22.5664 1.776 22.6144 1.60533 22.7104 1.456C22.8064 1.30667 22.9984 1.232 23.2864 1.232C23.5637 1.232 23.7504 1.30667 23.8464 1.456C23.953 1.60533 24.0064 1.776 24.0064 1.968C24.0064 2.192 23.953 2.37867 23.8464 2.528C23.7504 2.66667 23.5637 2.736 23.2864 2.736ZM22.6144 10V3.456H23.9424V10H22.6144ZM25.6125 10V0.992H26.9245V10H25.6125ZM35.5034 10.16C34.842 10.16 34.234 10.0427 33.6794 9.808C33.1354 9.56267 32.698 9.20533 32.3674 8.736C32.0474 8.256 31.8874 7.65333 31.8874 6.928L33.1514 6.768C33.1834 7.504 33.4287 8.05867 33.8874 8.432C34.346 8.80533 34.89 8.992 35.5194 8.992C36.1167 8.992 36.618 8.83733 37.0234 8.528C37.4394 8.21867 37.6474 7.808 37.6474 7.296C37.6474 6.89067 37.5407 6.576 37.3274 6.352C37.1247 6.128 36.8794 5.968 36.5914 5.872C36.3034 5.776 36.0367 5.728 35.7914 5.728H34.6234V5.008H35.8234C36.3034 5.008 36.698 4.90133 37.0074 4.688C37.3274 4.464 37.4874 4.13333 37.4874 3.696C37.4874 3.152 37.2954 2.72533 36.9114 2.416C36.538 2.096 36.042 1.936 35.4234 1.936C34.922 1.936 34.5114 2.04267 34.1914 2.256C33.882 2.46933 33.6527 2.72533 33.5034 3.024C33.354 3.312 33.274 3.584 33.2634 3.84L32.0634 3.664C32.074 3.49333 32.1327 3.25333 32.2394 2.944C32.346 2.63467 32.522 2.32 32.7674 2C33.0127 1.66933 33.3487 1.392 33.7754 1.168C34.202 0.944 34.7407 0.832 35.3914 0.832C36.4154 0.832 37.2207 1.06667 37.8074 1.536C38.394 1.99467 38.6874 2.61867 38.6874 3.408C38.6874 3.94133 38.5434 4.384 38.2554 4.736C37.9674 5.088 37.562 5.312 37.0394 5.408C37.562 5.504 37.9994 5.744 38.3514 6.128C38.714 6.512 38.8954 6.98667 38.8954 7.552C38.8954 8.08533 38.746 8.54933 38.4474 8.944C38.1594 9.33867 37.7594 9.64267 37.2474 9.856C36.7354 10.0587 36.154 10.16 35.5034 10.16ZM43.6619 10.224C42.3605 10.224 41.4005 9.80267 40.7819 8.96C40.1739 8.10667 39.8699 6.96 39.8699 5.52C39.8699 4.57067 39.9979 3.74933 40.2539 3.056C40.5205 2.352 40.9312 1.808 41.4859 1.424C42.0512 1.02933 42.7765 0.832 43.6619 0.832C44.5259 0.832 45.2352 1.024 45.7899 1.408C46.3552 1.792 46.7712 2.336 47.0379 3.04C47.3152 3.744 47.4539 4.57067 47.4539 5.52C47.4539 6.448 47.3152 7.26933 47.0379 7.984C46.7712 8.688 46.3552 9.23733 45.7899 9.632C45.2352 10.0267 44.5259 10.224 43.6619 10.224ZM43.6459 9.104C44.5312 9.104 45.1765 8.79467 45.5819 8.176C45.9979 7.55733 46.2059 6.672 46.2059 5.52C46.2059 4.37867 46.0032 3.49867 45.5979 2.88C45.1925 2.25067 44.5419 1.936 43.6459 1.936C42.7819 1.936 42.1419 2.24 41.7259 2.848C41.3205 3.44533 41.1179 4.336 41.1179 5.52C41.1179 6.66133 41.3152 7.54667 41.7099 8.176C42.1045 8.79467 42.7499 9.104 43.6459 9.104ZM48.7386 11.52V10.592H49.0746C49.3413 10.592 49.5173 10.5387 49.6026 10.432C49.688 10.336 49.7306 10.192 49.7306 10C49.3893 10.0213 49.144 9.95733 48.9946 9.808C48.856 9.65867 48.7866 9.456 48.7866 9.2C48.7866 8.976 48.84 8.78933 48.9466 8.64C49.064 8.48 49.2773 8.4 49.5866 8.4C49.832 8.4 50.0186 8.48 50.1466 8.64C50.2853 8.78933 50.3546 9.072 50.3546 9.488C50.3546 10.064 50.2586 10.544 50.0666 10.928C49.8853 11.3227 49.56 11.52 49.0906 11.52H48.7386ZM55.4681 10V8.896C55.4788 8.88533 55.6175 8.8 55.8841 8.64C56.1615 8.48 56.5135 8.26133 56.9401 7.984C57.3668 7.696 57.8095 7.376 58.2681 7.024C58.7375 6.66133 59.1695 6.27733 59.5641 5.872C59.9588 5.46667 60.2575 5.06667 60.4601 4.672C60.7055 4.16 60.7801 3.70667 60.6841 3.312C60.5988 2.90667 60.3855 2.592 60.0441 2.368C59.7135 2.13333 59.3028 2.016 58.8121 2.016C58.2041 2.02667 57.7188 2.224 57.3561 2.608C56.9935 2.992 56.8441 3.568 56.9081 4.336L55.6761 4.176C55.6228 3.49333 55.7295 2.912 55.9961 2.432C56.2735 1.94133 56.6681 1.568 57.1801 1.312C57.6921 1.04533 58.2841 0.912 58.9561 0.912C59.5321 0.912 60.0441 1.01867 60.4921 1.232C60.9401 1.43467 61.2975 1.72267 61.5641 2.096C61.8415 2.45867 61.9961 2.87467 62.0281 3.344C62.0601 3.81333 61.9481 4.30933 61.6921 4.832C61.4895 5.22667 61.2068 5.616 60.8441 6C60.4921 6.37333 60.1028 6.72533 59.6761 7.056C59.2495 7.38667 58.8335 7.68533 58.4281 7.952C58.0335 8.208 57.6868 8.416 57.3881 8.576C57.1001 8.72533 56.9188 8.816 56.8441 8.848H62.2041V10H55.4681ZM67.1619 10.224C65.8605 10.224 64.9005 9.80267 64.2819 8.96C63.6739 8.10667 63.3699 6.96 63.3699 5.52C63.3699 4.57067 63.4979 3.74933 63.7539 3.056C64.0205 2.352 64.4312 1.808 64.9859 1.424C65.5512 1.02933 66.2765 0.832 67.1619 0.832C68.0259 0.832 68.7352 1.024 69.2899 1.408C69.8552 1.792 70.2712 2.336 70.5379 3.04C70.8152 3.744 70.9539 4.57067 70.9539 5.52C70.9539 6.448 70.8152 7.26933 70.5379 7.984C70.2712 8.688 69.8552 9.23733 69.2899 9.632C68.7352 10.0267 68.0259 10.224 67.1619 10.224ZM67.1459 9.104C68.0312 9.104 68.6765 8.79467 69.0819 8.176C69.4979 7.55733 69.7059 6.672 69.7059 5.52C69.7059 4.37867 69.5032 3.49867 69.0979 2.88C68.6925 2.25067 68.0419 1.936 67.1459 1.936C66.2819 1.936 65.6419 2.24 65.2259 2.848C64.8205 3.44533 64.6179 4.336 64.6179 5.52C64.6179 6.66133 64.8152 7.54667 65.2099 8.176C65.6045 8.79467 66.2499 9.104 67.1459 9.104ZM72.0306 10V8.896C72.0413 8.88533 72.18 8.8 72.4466 8.64C72.724 8.48 73.076 8.26133 73.5026 7.984C73.9293 7.696 74.372 7.376 74.8306 7.024C75.3 6.66133 75.732 6.27733 76.1266 5.872C76.5213 5.46667 76.82 5.06667 77.0226 4.672C77.268 4.16 77.3426 3.70667 77.2466 3.312C77.1613 2.90667 76.948 2.592 76.6066 2.368C76.276 2.13333 75.8653 2.016 75.3746 2.016C74.7666 2.02667 74.2813 2.224 73.9186 2.608C73.556 2.992 73.4066 3.568 73.4706 4.336L72.2386 4.176C72.1853 3.49333 72.292 2.912 72.5586 2.432C72.836 1.94133 73.2306 1.568 73.7426 1.312C74.2546 1.04533 74.8466 0.912 75.5186 0.912C76.0946 0.912 76.6066 1.01867 77.0546 1.232C77.5026 1.43467 77.86 1.72267 78.1266 2.096C78.404 2.45867 78.5586 2.87467 78.5906 3.344C78.6226 3.81333 78.5106 4.30933 78.2546 4.832C78.052 5.22667 77.7693 5.616 77.4066 6C77.0546 6.37333 76.6653 6.72533 76.2386 7.056C75.812 7.38667 75.396 7.68533 74.9906 7.952C74.596 8.208 74.2493 8.416 73.9506 8.576C73.6626 8.72533 73.4813 8.816 73.4066 8.848H78.7666V10H72.0306ZM83.7244 10.224C82.423 10.224 81.463 9.80267 80.8444 8.96C80.2364 8.10667 79.9324 6.96 79.9324 5.52C79.9324 4.57067 80.0604 3.74933 80.3164 3.056C80.583 2.352 80.9937 1.808 81.5484 1.424C82.1137 1.02933 82.839 0.832 83.7244 0.832C84.5884 0.832 85.2977 1.024 85.8524 1.408C86.4177 1.792 86.8337 2.336 87.1004 3.04C87.3777 3.744 87.5164 4.57067 87.5164 5.52C87.5164 6.448 87.3777 7.26933 87.1004 7.984C86.8337 8.688 86.4177 9.23733 85.8524 9.632C85.2977 10.0267 84.5884 10.224 83.7244 10.224ZM83.7084 9.104C84.5937 9.104 85.239 8.79467 85.6444 8.176C86.0604 7.55733 86.2684 6.672 86.2684 5.52C86.2684 4.37867 86.0657 3.49867 85.6604 2.88C85.255 2.25067 84.6044 1.936 83.7084 1.936C82.8444 1.936 82.2044 2.24 81.7884 2.848C81.383 3.44533 81.1804 4.336 81.1804 5.52C81.1804 6.66133 81.3777 7.54667 81.7724 8.176C82.167 8.79467 82.8124 9.104 83.7084 9.104Z" fill="#F29764"/>
</svg>
