<svg width="40" height="36" viewBox="0 0 40 36" fill="none" xmlns="http://www.w3.org/2000/svg">
<path d="M4.626 31.18C3.522 31.18 2.646 30.91 1.998 30.37C1.35 29.83 0.942 29.17 0.774 28.39L2.268 28.192C2.28 28.264 2.322 28.39 2.394 28.57C2.466 28.75 2.592 28.948 2.772 29.164C2.952 29.368 3.192 29.542 3.492 29.686C3.804 29.83 4.194 29.902 4.662 29.902C5.178 29.902 5.61 29.8 5.958 29.596C6.318 29.392 6.594 29.122 6.786 28.786C6.978 28.45 7.086 28.102 7.11 27.742C7.146 27.346 7.08 26.968 6.912 26.608C6.744 26.236 6.48 25.93 6.12 25.69C5.76 25.45 5.304 25.33 4.752 25.33C4.224 25.33 3.804 25.42 3.492 25.6C3.18 25.768 2.952 25.942 2.808 26.122C2.676 26.302 2.61 26.398 2.61 26.41L1.098 26.14L1.62 20.866H8.1V22.162H2.7L2.34 25.582C2.34 25.582 2.388 25.522 2.484 25.402C2.592 25.27 2.754 25.12 2.97 24.952C3.198 24.772 3.486 24.616 3.834 24.484C4.194 24.352 4.632 24.286 5.148 24.286C5.964 24.286 6.63 24.46 7.146 24.808C7.674 25.144 8.052 25.576 8.28 26.104C8.52 26.632 8.622 27.184 8.586 27.76C8.538 28.336 8.352 28.888 8.028 29.416C7.716 29.932 7.272 30.358 6.696 30.694C6.12 31.018 5.43 31.18 4.626 31.18ZM10.3248 31C9.95283 31 9.70083 30.91 9.56883 30.73C9.44883 30.538 9.38883 30.304 9.38883 30.028C9.38883 29.776 9.44883 29.56 9.56883 29.38C9.70083 29.188 9.95283 29.092 10.3248 29.092C10.6728 29.092 10.9068 29.188 11.0268 29.38C11.1588 29.56 11.2248 29.776 11.2248 30.028C11.2248 30.304 11.1588 30.538 11.0268 30.73C10.9068 30.91 10.6728 31 10.3248 31ZM16.4517 31.252C14.9877 31.252 13.9077 30.778 13.2117 29.83C12.5277 28.87 12.1857 27.58 12.1857 25.96C12.1857 24.892 12.3297 23.968 12.6177 23.188C12.9177 22.396 13.3797 21.784 14.0037 21.352C14.6397 20.908 15.4557 20.686 16.4517 20.686C17.4237 20.686 18.2217 20.902 18.8457 21.334C19.4817 21.766 19.9497 22.378 20.2497 23.17C20.5617 23.962 20.7177 24.892 20.7177 25.96C20.7177 27.004 20.5617 27.928 20.2497 28.732C19.9497 29.524 19.4817 30.142 18.8457 30.586C18.2217 31.03 17.4237 31.252 16.4517 31.252ZM16.4337 29.992C17.4297 29.992 18.1557 29.644 18.6117 28.948C19.0797 28.252 19.3137 27.256 19.3137 25.96C19.3137 24.676 19.0857 23.686 18.6297 22.99C18.1737 22.282 17.4417 21.928 16.4337 21.928C15.4617 21.928 14.7417 22.27 14.2737 22.954C13.8177 23.626 13.5897 24.628 13.5897 25.96C13.5897 27.244 13.8117 28.24 14.2557 28.948C14.6997 29.644 15.4257 29.992 16.4337 29.992ZM25.4391 31.252C23.9751 31.252 22.8951 30.778 22.1991 29.83C21.5151 28.87 21.1731 27.58 21.1731 25.96C21.1731 24.892 21.3171 23.968 21.6051 23.188C21.9051 22.396 22.3671 21.784 22.9911 21.352C23.6271 20.908 24.4431 20.686 25.4391 20.686C26.4111 20.686 27.2091 20.902 27.8331 21.334C28.4691 21.766 28.9371 22.378 29.2371 23.17C29.5491 23.962 29.7051 24.892 29.7051 25.96C29.7051 27.004 29.5491 27.928 29.2371 28.732C28.9371 29.524 28.4691 30.142 27.8331 30.586C27.2091 31.03 26.4111 31.252 25.4391 31.252ZM25.4211 29.992C26.4171 29.992 27.1431 29.644 27.5991 28.948C28.0671 28.252 28.3011 27.256 28.3011 25.96C28.3011 24.676 28.0731 23.686 27.6171 22.99C27.1611 22.282 26.4291 21.928 25.4211 21.928C24.4491 21.928 23.7291 22.27 23.2611 22.954C22.8051 23.626 22.5771 24.628 22.5771 25.96C22.5771 27.244 22.7991 28.24 23.2431 28.948C23.6871 29.644 24.4131 29.992 25.4211 29.992Z" fill="#181817"/>
<path opacity="0.4" d="M0.708 13V6.244H3.072C3.936 6.244 4.604 6.388 5.076 6.676C5.556 6.956 5.796 7.464 5.796 8.2C5.796 8.712 5.664 9.14 5.4 9.484C5.144 9.828 4.756 10 4.236 10C4.548 10 4.78 10.068 4.932 10.204C5.084 10.34 5.188 10.512 5.244 10.72C5.3 10.92 5.336 11.128 5.352 11.344C5.368 11.56 5.392 11.756 5.424 11.932C5.456 12.108 5.52 12.236 5.616 12.316C5.712 12.388 5.876 12.38 6.108 12.292V12.892C5.996 12.988 5.848 13.052 5.664 13.084C5.488 13.124 5.312 13.112 5.136 13.048C4.96 12.992 4.808 12.872 4.68 12.688C4.56 12.496 4.5 12.22 4.5 11.86C4.5 11.436 4.476 11.104 4.428 10.864C4.38 10.624 4.268 10.448 4.092 10.336C3.916 10.224 3.64 10.16 3.264 10.144C2.888 10.12 2.372 10.12 1.716 10.144V13H0.708ZM1.716 9.4H3.108C3.516 9.4 3.852 9.376 4.116 9.328C4.38 9.272 4.576 9.164 4.704 9.004C4.84 8.844 4.908 8.6 4.908 8.272C4.908 7.896 4.828 7.624 4.668 7.456C4.508 7.288 4.272 7.184 3.96 7.144C3.656 7.096 3.284 7.072 2.844 7.072H1.716V9.4ZM6.86081 13L9.12881 6.244H10.7728L13.0888 13H12.0208L11.3728 10.984H8.56481L7.91681 13H6.86081ZM9.96881 6.664L8.82881 10.192H11.1088L9.96881 6.664ZM12.952 7.108V6.244H18.112V7.108H16.036V13H15.04V7.108H12.952ZM21.8444 12.136V13H19.0244V12.136H19.9484V7.108H19.0244V6.244H21.8444V7.108H20.9324V12.136H21.8444ZM28.0526 6.244H29.0726V13H27.1886L24.3446 6.688H24.3206V13H23.3006V6.244H25.0646L28.0286 12.556H28.0526V6.244ZM33.2576 13.144C32.6016 13.144 32.0296 13.008 31.5416 12.736C31.0616 12.464 30.6896 12.072 30.4256 11.56C30.1616 11.04 30.0336 10.404 30.0416 9.652C30.0496 8.9 30.1936 8.264 30.4736 7.744C30.7616 7.216 31.1576 6.816 31.6616 6.544C32.1656 6.264 32.7536 6.124 33.4256 6.124C34.3056 6.124 35.0016 6.324 35.5136 6.724C36.0256 7.116 36.3616 7.692 36.5216 8.452L35.5616 8.584C35.4336 8.04 35.1736 7.652 34.7816 7.42C34.3896 7.18 33.9376 7.06 33.4256 7.06C32.6096 7.06 32.0056 7.288 31.6136 7.744C31.2296 8.192 31.0296 8.808 31.0136 9.592C31.0136 10.416 31.2296 11.056 31.6616 11.512C32.1016 11.96 32.7176 12.184 33.5096 12.184C34.0536 12.184 34.5256 12.048 34.9256 11.776C35.3256 11.496 35.5736 11.068 35.6696 10.492H34.0016V9.736H36.6536V13H35.9696L35.7416 11.668H35.7176C35.6376 11.876 35.4976 12.096 35.2976 12.328C35.1056 12.552 34.8376 12.744 34.4936 12.904C34.1576 13.064 33.7456 13.144 33.2576 13.144Z" fill="#181817"/>
</svg>
