<svg width="152" height="32" viewBox="0 0 152 32" fill="none" xmlns="http://www.w3.org/2000/svg">
<path d="M21.9686 26.4037L1.76675 12.1588C-0.280462 10.7153 0.415454 7.7098 2.96827 7.00302L24.4392 1.04607C24.894 0.878311 25.3814 0.823853 25.861 0.887221C26.3405 0.950589 26.7983 1.12995 27.1965 1.41043C27.5946 1.69091 27.9216 2.06441 28.1502 2.49993C28.3788 2.93544 28.5025 3.42043 28.5111 3.91462L27.2386 24.1153C27.0877 26.5131 24.0158 27.8472 21.9686 26.4037Z" fill="#E9327C"/>
<path d="M15.5572 29.9203L3.65567 6.12823C3.38361 5.58395 3.2639 4.97341 3.30972 4.36399C3.35554 3.75456 3.56512 3.1699 3.91535 2.6745C4.26558 2.1791 4.74284 1.7922 5.29452 1.55645C5.8462 1.3207 6.45084 1.24528 7.04179 1.33851L29.0983 4.81828C29.606 4.89841 30.088 5.1006 30.5045 5.40823C30.921 5.71587 31.26 6.12016 31.4939 6.58787C31.7277 7.05557 31.8496 7.57333 31.8495 8.09857C31.8494 8.62381 31.7273 9.14154 31.4935 9.60916L21.3329 29.9214C21.06 30.4642 20.6461 30.9196 20.1365 31.2374C19.627 31.5553 19.0416 31.7234 18.4447 31.7233C17.8478 31.7232 17.2624 31.5549 16.753 31.2368C16.2436 30.9186 15.8298 30.4632 15.5572 29.9203Z" fill="#1DACE3"/>
<path d="M28.459 4.71567L17.464 2.98096L3.9646 6.72779L9.35288 17.5032L21.9706 26.4036C22.2489 26.5977 22.5551 26.7465 22.8782 26.8444L27.6708 17.2638L28.459 4.71567Z" fill="#001A49"/>
<path d="M84.1483 7.49667C84.1483 7.0789 84.2695 6.67052 84.4965 6.32315C84.7236 5.9758 85.0464 5.70506 85.4239 5.54518C85.8015 5.38532 86.2169 5.34349 86.6178 5.42498C87.0186 5.50649 87.3868 5.70767 87.6758 6.00307C87.9648 6.29847 88.1615 6.67485 88.2413 7.08458C88.321 7.49433 88.2801 7.91904 88.1237 8.30501C87.9673 8.69097 87.7024 9.02086 87.3627 9.25296C87.0229 9.48506 86.6233 9.60894 86.2147 9.60894C85.6683 9.60325 85.146 9.37888 84.7597 8.98398C84.3734 8.58907 84.1538 8.05511 84.1483 7.49667ZM84.4929 10.6415H87.9376V22.3758H84.4929V10.6415Z" fill="#181817"/>
<path d="M102.815 16.5088C102.855 17.2844 102.745 18.0605 102.491 18.7924C102.236 19.5241 101.843 20.1974 101.333 20.7733C100.823 21.3491 100.207 21.8162 99.5196 22.1478C98.8325 22.4794 98.088 22.6688 97.329 22.7052C96.6907 22.7407 96.0525 22.6306 95.4608 22.383C94.8691 22.1353 94.3387 21.7562 93.908 21.2732V27.0702H90.4645V10.6417H93.908V11.7444C94.3389 11.2615 94.8692 10.8827 95.461 10.6352C96.0526 10.3878 96.6908 10.2779 97.329 10.3136C98.088 10.3498 98.8324 10.5391 99.5195 10.8705C100.207 11.202 100.823 11.669 101.333 12.2448C101.843 12.8206 102.236 13.4936 102.491 14.2255C102.745 14.9573 102.855 15.7332 102.815 16.5088ZM99.3717 16.5088C99.3582 15.9594 99.1865 15.4263 98.8781 14.9761C98.5696 14.5261 98.1381 14.1789 97.6377 13.9782C97.1372 13.7775 96.5899 13.7323 96.0644 13.8479C95.5388 13.9636 95.0582 14.2352 94.6829 14.6286C94.3075 15.0221 94.0541 15.52 93.9542 16.06C93.8543 16.6 93.9125 17.1582 94.1214 17.6645C94.3303 18.1709 94.6806 18.603 95.1286 18.9069C95.5766 19.2108 96.1023 19.3728 96.6399 19.3728C97.0091 19.3898 97.3776 19.3267 97.7213 19.1879C98.0649 19.049 98.376 18.8373 98.6339 18.5669C98.8919 18.2964 99.091 17.9733 99.2183 17.6185C99.3454 17.2638 99.3978 16.8856 99.3717 16.5088Z" fill="#181817"/>
<path d="M113.441 18.8536C113.441 21.5529 111.145 22.7029 108.665 22.7029C107.664 22.7955 106.658 22.5788 105.778 22.0807C104.898 21.5827 104.184 20.8262 103.73 19.9092L106.714 18.1733C106.835 18.5973 107.095 18.9657 107.45 19.2171C107.805 19.4685 108.234 19.5877 108.665 19.5546C109.492 19.5546 109.904 19.2956 109.904 18.8271C109.904 17.5356 104.257 18.217 104.257 14.156C104.257 11.5982 106.368 10.3078 108.761 10.3078C109.659 10.279 110.547 10.4967 111.334 10.9383C112.122 11.3798 112.779 12.0291 113.237 12.8184L110.299 14.438C110.171 14.1299 109.956 13.8674 109.683 13.6832C109.409 13.4989 109.089 13.4012 108.761 13.402C108.164 13.402 107.797 13.6322 107.797 14.0593C107.794 15.4061 113.441 14.514 113.441 18.8536Z" fill="#181817"/>
<path d="M126.027 10.6415V22.3758H122.584V21.2707C122.186 21.7575 121.681 22.1411 121.11 22.3901C120.54 22.6389 119.92 22.7461 119.3 22.7027C116.982 22.7027 115.008 21.0129 115.008 17.8439V10.6415H118.451V17.3305C118.422 17.6102 118.453 17.8931 118.542 18.1592C118.631 18.4253 118.775 18.6686 118.966 18.8719C119.156 19.0751 119.387 19.2335 119.643 19.3361C119.899 19.4388 120.174 19.483 120.449 19.4658C121.711 19.4658 122.588 18.7153 122.588 17.0485V10.6415H126.027Z" fill="#181817"/>
<path d="M145.77 15.1699V22.3758H142.326V15.4761C142.326 14.3031 141.774 13.5515 140.673 13.5515C139.524 13.5515 138.883 14.3734 138.883 15.7581V22.3758H135.438V15.4761C135.438 14.3031 134.887 13.5515 133.785 13.5515C132.637 13.5515 131.994 14.3734 131.994 15.7581V22.3758H128.551V10.6415H132V11.7166C132.357 11.2379 132.825 10.8582 133.363 10.6122C133.9 10.3664 134.49 10.262 135.076 10.3088C135.665 10.2794 136.253 10.4065 136.78 10.6779C137.307 10.9492 137.756 11.3554 138.084 11.857C138.466 11.3323 138.971 10.9149 139.554 10.6441C140.136 10.3733 140.777 10.258 141.414 10.3088C144.049 10.3134 145.77 12.2369 145.77 15.1699Z" fill="#181817"/>
<path d="M148.682 10.569C150.094 10.569 151.238 9.39914 151.238 7.95602C151.238 6.51291 150.094 5.34302 148.682 5.34302C147.27 5.34302 146.126 6.51291 146.126 7.95602C146.126 9.39914 147.27 10.569 148.682 10.569Z" fill="#F6D88C"/>
<path d="M37.1326 5.2439H40.5772V22.3758H37.1326V5.2439ZM42.5276 16.5086C42.5239 15.2783 42.8773 14.0746 43.5431 13.0499C44.209 12.0251 45.1573 11.2253 46.2681 10.7519C47.379 10.2784 48.6021 10.1525 49.783 10.3901C50.9638 10.6278 52.0492 11.2182 52.9015 12.0868C53.7538 12.9553 54.3349 14.0628 54.571 15.2691C54.8071 16.4755 54.6879 17.7263 54.2282 18.8632C53.7686 20.0001 52.9892 20.9721 51.9888 21.656C50.9884 22.3399 49.812 22.705 48.6084 22.705C47.8091 22.7136 47.0161 22.5595 46.2758 22.2515C45.5355 21.9434 44.8625 21.4876 44.2964 20.9108C43.7303 20.3339 43.2823 19.6475 42.9786 18.8916C42.6749 18.1358 42.5216 17.3257 42.5276 16.5086ZM51.2524 16.5086C51.2389 15.9779 51.0727 15.4631 50.7744 15.0285C50.4762 14.594 50.0593 14.2589 49.5757 14.0653C49.0921 13.8718 48.5635 13.8282 48.0559 13.9402C47.5482 14.0521 47.0842 14.3146 46.7217 14.6947C46.3592 15.0749 46.1145 15.5559 46.018 16.0774C45.9216 16.5991 45.9777 17.1382 46.1795 17.6274C46.3812 18.1165 46.7195 18.534 47.1522 18.8276C47.5848 19.1213 48.0926 19.2779 48.6118 19.2782C48.9674 19.2885 49.3213 19.2234 49.6511 19.087C49.9809 18.9507 50.2794 18.7459 50.5279 18.4856C50.7765 18.2255 50.9696 17.9155 51.095 17.5752C51.2205 17.2349 51.2756 16.8717 51.257 16.5086H51.2524ZM68.424 10.638V21.7864C68.424 25.7289 65.4163 27.3946 62.3635 27.3946C61.289 27.4775 60.2128 27.2563 59.2529 26.7554C58.2931 26.2545 57.4868 25.4931 56.9223 24.5548L59.8602 22.8178C60.0973 23.3075 60.4751 23.7115 60.943 23.9759C61.4109 24.2402 61.9465 24.3522 62.4783 24.297C62.8178 24.3443 63.1633 24.3132 63.4894 24.2058C63.8155 24.0984 64.1138 23.9177 64.3625 23.6767C64.611 23.4357 64.8034 23.1408 64.9256 22.8136C65.0478 22.4864 65.0966 22.1353 65.0683 21.7864V20.7067C64.6649 21.2109 64.1516 21.6115 63.5695 21.8763C62.9873 22.1412 62.3525 22.263 61.716 22.2319C60.2008 22.1837 58.7634 21.5346 57.7083 20.4219C56.6531 19.3093 56.0631 17.8205 56.0631 16.2709C56.0631 14.7212 56.6531 13.2325 57.7083 12.1198C58.7634 11.0072 60.2008 10.358 61.716 10.3099C62.3525 10.2788 62.9873 10.4005 63.5695 10.6654C64.1516 10.9303 64.6649 11.3309 65.0683 11.8352V10.638H68.424ZM65.0728 16.2704C65.0955 15.7035 64.9519 15.1428 64.6603 14.6602C64.3688 14.1775 63.9427 13.795 63.4367 13.5619C62.9309 13.3288 62.3683 13.2557 61.8215 13.3521C61.2747 13.4484 60.7685 13.7097 60.368 14.1025C59.9676 14.4952 59.6913 15.0014 59.5746 15.5559C59.4578 16.1105 59.506 16.688 59.713 17.2144C59.9199 17.7407 60.2762 18.1917 60.7358 18.5094C61.1955 18.8271 61.7377 18.997 62.2925 18.9973C62.6543 19.0232 63.0175 18.9715 63.3586 18.8455C63.6997 18.7194 64.0111 18.5218 64.2731 18.2652C64.5349 18.0087 64.7414 17.699 64.8791 17.3561C65.0168 17.013 65.0828 16.6443 65.0728 16.2738V16.2704ZM70.3744 16.5006C70.3707 15.2703 70.724 14.0666 71.3899 13.0419C72.0557 12.017 73.0041 11.2172 74.1149 10.7438C75.2257 10.2703 76.4489 10.1444 77.6298 10.3821C78.8106 10.6197 79.8958 11.2101 80.7482 12.0787C81.6006 12.9472 82.1816 14.0547 82.4178 15.2611C82.6539 16.4674 82.5347 17.7182 82.075 18.8552C81.6153 19.9921 80.836 20.9641 79.8356 21.648C78.8352 22.3318 77.6587 22.6969 76.4552 22.6969C75.6566 22.7056 74.8643 22.5517 74.1244 22.2441C73.3846 21.9366 72.712 21.4815 72.146 20.9055C71.58 20.3295 71.1319 19.6441 70.8277 18.8891C70.5235 18.1342 70.3694 17.325 70.3744 16.5086V16.5006ZM79.0992 16.5006C79.0859 15.9696 78.9197 15.4543 78.6215 15.0193C78.3232 14.5844 77.906 14.2491 77.4223 14.0553C76.9384 13.8614 76.4095 13.8178 75.9015 13.9298C75.3935 14.0417 74.9291 14.3044 74.5665 14.6847C74.2038 15.0651 73.9589 15.5464 73.8625 16.0683C73.766 16.5902 73.8223 17.1298 74.0242 17.6191C74.2262 18.1085 74.5648 18.5262 74.9978 18.8199C75.4309 19.1136 75.939 19.2701 76.4586 19.2701C76.8132 19.2797 77.1657 19.2144 77.4944 19.0782C77.8231 18.9421 78.1208 18.7379 78.3687 18.4786C78.6166 18.2194 78.8095 17.9106 78.9352 17.5716C79.0609 17.2326 79.1168 16.8707 79.0992 16.5086V16.5006Z" fill="#181817"/>
</svg>
