<svg width="16" height="16" viewBox="0 0 16 16" fill="none" xmlns="http://www.w3.org/2000/svg">
<path d="M15.4913 4.7237C15.4554 3.91017 15.3239 3.35087 15.1354 2.86624C14.941 2.35181 14.6419 1.89124 14.25 1.50836C13.8671 1.11953 13.4035 0.817394 12.8951 0.626016C12.4076 0.437559 11.8512 0.306001 11.0377 0.270132C10.2181 0.231225 9.95791 0.222229 7.87916 0.222229C5.80041 0.222229 5.54021 0.231225 4.72364 0.267094C3.91011 0.302963 3.35081 0.434638 2.86629 0.622978C2.35175 0.817394 1.89118 1.1165 1.5083 1.50836C1.11947 1.89124 0.81745 2.35484 0.625955 2.86332C0.437497 3.35087 0.30594 3.90713 0.270071 4.72066C0.231164 5.54027 0.222168 5.80047 0.222168 7.87922C0.222168 9.95797 0.231164 10.2182 0.267033 11.0347C0.302902 11.8483 0.434577 12.4076 0.623034 12.8922C0.81745 13.4066 1.11947 13.8672 1.5083 14.2501C1.89118 14.6389 2.35478 14.941 2.86326 15.1324C3.35081 15.3209 3.90707 15.4524 4.72072 15.4883C5.53717 15.5243 5.79748 15.5332 7.87624 15.5332C9.95499 15.5332 10.2152 15.5243 11.0318 15.4883C11.8453 15.4524 12.4046 15.3209 12.8891 15.1324C13.9181 14.7346 14.7316 13.9211 15.1294 12.8922C15.3178 12.4046 15.4495 11.8483 15.4853 11.0347C15.5212 10.2182 15.5302 9.95797 15.5302 7.87922C15.5302 5.80047 15.5272 5.54027 15.4913 4.7237ZM14.1125 10.9749C14.0796 11.7227 13.954 12.1265 13.8493 12.3956C13.592 13.0627 13.0626 13.5921 12.3956 13.8493C12.1264 13.954 11.7197 14.0796 10.9749 14.1124C10.1673 14.1484 9.92508 14.1573 7.8822 14.1573C5.83931 14.1573 5.59407 14.1484 4.78942 14.1124C4.04167 14.0796 3.63788 13.954 3.36869 13.8493C3.03676 13.7267 2.73462 13.5322 2.48938 13.278C2.23514 13.0297 2.04073 12.7306 1.91805 12.3987C1.81336 12.1295 1.68776 11.7227 1.65493 10.978C1.61895 10.1704 1.61007 9.92806 1.61007 7.88518C1.61007 5.84229 1.61895 5.59705 1.65493 4.79252C1.68776 4.04477 1.81336 3.64098 1.91805 3.37179C2.04073 3.03974 2.23514 2.73772 2.49242 2.49236C2.74058 2.23812 3.03968 2.04371 3.37173 1.92115C3.64092 1.81646 4.04774 1.69086 4.79246 1.65791C5.60003 1.62205 5.84235 1.61305 7.88512 1.61305C9.93104 1.61305 10.1732 1.62205 10.9779 1.65791C11.7256 1.69086 12.1294 1.81646 12.3986 1.92115C12.7306 2.04371 13.0327 2.23812 13.2779 2.49236C13.5322 2.74064 13.7266 3.03974 13.8493 3.37179C13.954 3.64098 14.0796 4.04769 14.1125 4.79252C14.1484 5.60009 14.1574 5.84229 14.1574 7.88518C14.1574 9.92806 14.1484 10.1673 14.1125 10.9749Z" fill="#181817"/>
<path d="M7.87849 3.94623C5.70709 3.94623 3.94531 5.70789 3.94531 7.87941C3.94531 10.0509 5.70709 11.8126 7.87849 11.8126C10.05 11.8126 11.8117 10.0509 11.8117 7.87941C11.8117 5.70789 10.05 3.94623 7.87849 3.94623ZM7.87849 10.4308C6.4698 10.4308 5.32714 9.28822 5.32714 7.87941C5.32714 6.4706 6.4698 5.32805 7.87849 5.32805C9.28731 5.32805 10.4299 6.4706 10.4299 7.87941C10.4299 9.28822 9.28731 10.4308 7.87849 10.4308Z" fill="#181817"/>
<path d="M12.8855 3.79033C12.8855 4.2973 12.4744 4.70837 11.9674 4.70837C11.4604 4.70837 11.0493 4.2973 11.0493 3.79033C11.0493 3.28324 11.4604 2.87228 11.9674 2.87228C12.4744 2.87228 12.8855 3.28324 12.8855 3.79033Z" fill="#181817"/>
</svg>
