<svg width="33" height="13" viewBox="0 0 33 13" fill="none" xmlns="http://www.w3.org/2000/svg">
<path d="M0.56 9.7V8.26C1.21333 7.96667 1.81333 7.54 2.36 6.98C2.92 6.42 3.4 5.78667 3.8 5.08C4.2 4.37333 4.50667 3.64667 4.72 2.9C4.94667 2.14 5.06 1.42 5.06 0.74H6.84C6.84 1.64667 6.64667 2.56667 6.26 3.5C5.87333 4.43333 5.33333 5.31333 4.64 6.14C3.96 6.96667 3.17333 7.67333 2.28 8.26H6.38V6.38H8.04V8.26H9.52V9.7H8.04V12H6.38V9.7H0.56ZM11.1548 12C10.7415 12 10.4615 11.9 10.3148 11.7C10.1815 11.4867 10.1148 11.2267 10.1148 10.92C10.1148 10.64 10.1815 10.4 10.3148 10.2C10.4615 9.98667 10.7415 9.88 11.1548 9.88C11.5415 9.88 11.8015 9.98667 11.9348 10.2C12.0815 10.4 12.1548 10.64 12.1548 10.92C12.1548 11.2267 12.0815 11.4867 11.9348 11.7C11.8015 11.9 11.5415 12 11.1548 12ZM17.7625 12.28C16.1358 12.28 14.9358 11.7533 14.1625 10.7C13.4025 9.63333 13.0225 8.2 13.0225 6.4C13.0225 5.21333 13.1825 4.18667 13.5025 3.32C13.8358 2.44 14.3492 1.76 15.0425 1.28C15.7492 0.786666 16.6558 0.54 17.7625 0.54C18.8425 0.54 19.7292 0.78 20.4225 1.26C21.1292 1.74 21.6492 2.42 21.9825 3.3C22.3292 4.18 22.5025 5.21333 22.5025 6.4C22.5025 7.56 22.3292 8.58667 21.9825 9.48C21.6492 10.36 21.1292 11.0467 20.4225 11.54C19.7292 12.0333 18.8425 12.28 17.7625 12.28ZM17.7425 10.88C18.8492 10.88 19.6558 10.4933 20.1625 9.72C20.6825 8.94667 20.9425 7.84 20.9425 6.4C20.9425 4.97333 20.6892 3.87333 20.1825 3.1C19.6758 2.31333 18.8625 1.92 17.7425 1.92C16.6625 1.92 15.8625 2.3 15.3425 3.06C14.8358 3.80667 14.5825 4.92 14.5825 6.4C14.5825 7.82667 14.8292 8.93333 15.3225 9.72C15.8158 10.4933 16.6225 10.88 17.7425 10.88ZM27.5484 12.28C25.9218 12.28 24.7218 11.7533 23.9484 10.7C23.1884 9.63333 22.8084 8.2 22.8084 6.4C22.8084 5.21333 22.9684 4.18667 23.2884 3.32C23.6218 2.44 24.1351 1.76 24.8284 1.28C25.5351 0.786666 26.4418 0.54 27.5484 0.54C28.6284 0.54 29.5151 0.78 30.2084 1.26C30.9151 1.74 31.4351 2.42 31.7684 3.3C32.1151 4.18 32.2884 5.21333 32.2884 6.4C32.2884 7.56 32.1151 8.58667 31.7684 9.48C31.4351 10.36 30.9151 11.0467 30.2084 11.54C29.5151 12.0333 28.6284 12.28 27.5484 12.28ZM27.5284 10.88C28.6351 10.88 29.4418 10.4933 29.9484 9.72C30.4684 8.94667 30.7284 7.84 30.7284 6.4C30.7284 4.97333 30.4751 3.87333 29.9684 3.1C29.4618 2.31333 28.6484 1.92 27.5284 1.92C26.4484 1.92 25.6484 2.3 25.1284 3.06C24.6218 3.80667 24.3684 4.92 24.3684 6.4C24.3684 7.82667 24.6151 8.93333 25.1084 9.72C25.6018 10.4933 26.4084 10.88 27.5284 10.88Z" fill="#181817"/>
</svg>
