<svg width="87" height="15" viewBox="0 0 87 15" fill="none" xmlns="http://www.w3.org/2000/svg">
<path opacity="0.3" d="M79.5 0L81.1839 5.18237H86.6329L82.2245 8.38525L83.9084 13.5676L79.5 10.3647L75.0916 13.5676L76.7755 8.38525L72.3671 5.18237H77.8161L79.5 0Z" fill="#F6D88C"/>
<path d="M43.5 0L45.1839 5.18237H50.6329L46.2245 8.38525L47.9084 13.5676L43.5 10.3647L39.0916 13.5676L40.7755 8.38525L36.3671 5.18237H41.8161L43.5 0Z" fill="#F6D88C"/>
<path d="M61.5 0L63.1839 5.18237H68.6329L64.2245 8.38525L65.9084 13.5676L61.5 10.3647L57.0916 13.5676L58.7755 8.38525L54.3671 5.18237H59.8161L61.5 0Z" fill="#F6D88C"/>
<path d="M25.5 0L27.1839 5.18237H32.6329L28.2245 8.38525L29.9084 13.5676L25.5 10.3647L21.0916 13.5676L22.7755 8.38525L18.3671 5.18237H23.8161L25.5 0Z" fill="#F6D88C"/>
<path d="M7.5 0L9.18386 5.18237H14.6329L10.2245 8.38525L11.9084 13.5676L7.5 10.3647L3.09161 13.5676L4.77547 8.38525L0.367076 5.18237H5.81614L7.5 0Z" fill="#F6D88C"/>
</svg>
