<svg width="153" height="153" viewBox="0 0 153 153" fill="none" xmlns="http://www.w3.org/2000/svg">
<g filter="url(#filter0_b_2_287)">
<circle cx="76.5" cy="76.5" r="76.5" fill="white" fill-opacity="0.7"/>
</g>
<path d="M88.2616 78.262C88.1486 78.378 87.7219 78.874 87.3244 79.282C84.9942 81.848 78.9152 86.048 75.7336 87.33C75.2504 87.536 74.0287 87.972 73.376 88C72.7506 88 72.1544 87.856 71.5855 87.564C70.8763 87.156 70.3074 86.514 69.9956 85.756C69.7949 85.23 69.4832 83.656 69.4832 83.628C69.1715 81.906 69 79.108 69 76.016C69 73.07 69.1715 70.386 69.4267 68.638C69.4559 68.61 69.7677 66.654 70.1086 65.984C70.734 64.76 71.9557 64 73.263 64H73.376C74.2275 64.03 76.018 64.79 76.018 64.818C79.0283 66.102 84.9669 70.096 87.3536 72.75C87.3536 72.75 88.0258 73.432 88.3181 73.858C88.774 74.47 89 75.228 89 75.986C89 76.832 88.7448 77.62 88.2616 78.262Z" fill="#181817"/>
<defs>
<filter id="filter0_b_2_287" x="-24" y="-24" width="201" height="201" filterUnits="userSpaceOnUse" color-interpolation-filters="sRGB">
<feFlood flood-opacity="0" result="BackgroundImageFix"/>
<feGaussianBlur in="BackgroundImage" stdDeviation="12"/>
<feComposite in2="SourceAlpha" operator="in" result="effect1_backgroundBlur_2_287"/>
<feBlend mode="normal" in="SourceGraphic" in2="effect1_backgroundBlur_2_287" result="shape"/>
</filter>
</defs>
</svg>
