<svg width="150" height="15" viewBox="0 0 150 15" fill="none" xmlns="http://www.w3.org/2000/svg">
<path d="M74.7785 14.205H69.6647V0.286177H74.7785V14.205ZM70.1641 13.6966H74.2791V0.794608H70.1641V13.6966ZM81.8939 14.205H76.8829V0.286177H87.3522C88.852 0.162526 90.3456 0.591205 91.5611 1.49421C92.0844 1.9816 92.49 2.5855 92.7462 3.25876C93.0025 3.93204 93.1024 4.65648 93.0383 5.37558C93.113 6.61815 92.7246 7.84371 91.9506 8.80749C91.0348 9.87723 89.5106 10.4284 87.4211 10.4477C86.8948 10.4619 82.9506 10.4477 81.8969 10.4477L81.8939 14.205ZM77.3793 13.6966H81.3945V9.93418H81.6452C81.6961 9.93418 86.8169 9.95045 87.4092 9.93418C89.3558 9.91689 90.7551 9.42574 91.5731 8.46684C92.2621 7.59483 92.6042 6.49123 92.5319 5.37456C92.5934 4.73025 92.5082 4.08019 92.283 3.4748C92.0578 2.86941 91.6987 2.32496 91.2335 1.88367C90.1065 1.06011 88.7276 0.67353 87.3452 0.793591H77.3823L77.3793 13.6966ZM86.2915 7.32084H81.3605V3.532H86.3245C86.6763 3.4825 87.0348 3.52432 87.3665 3.65355C87.6983 3.78279 87.9927 3.99527 88.2222 4.27126C88.4304 4.62405 88.5286 5.03287 88.5038 5.44371C88.5225 5.82513 88.4416 6.2048 88.2691 6.54395C88.0323 6.83465 87.726 7.05843 87.3796 7.19378C87.0333 7.32912 86.6586 7.37148 86.2915 7.31677V7.32084ZM81.8599 6.81241H86.2915C87.1105 6.81241 87.6179 6.63852 87.8426 6.28059C87.9664 6.02042 88.0224 5.73225 88.0054 5.44371C88.0273 5.14074 87.9628 4.8378 87.8197 4.57124L87.8137 4.56209C87.576 4.20618 87.1035 4.04044 86.3245 4.04044H81.8599V6.81241ZM102.152 14.4104C97.6677 14.4104 94.9909 13.2766 93.9712 10.9449C93.8043 10.4946 93.691 10.0255 93.6336 9.54777L93.5897 9.25491H98.9252L98.9601 9.46845C99.0012 9.68525 99.092 9.88933 99.2238 10.0643C99.4345 10.3236 100.138 10.7589 102.471 10.7589C105.275 10.7589 105.275 10.2575 105.275 9.98807C105.275 9.53353 104.951 9.37795 102.664 9.12984L102.229 9.08815C101.368 9.00578 100.28 8.90104 99.7821 8.85732C95.5872 8.47091 93.7145 7.1439 93.7145 4.55599C93.7145 1.83791 96.9016 0.0817871 101.835 0.0817871C105.859 0.0817871 108.452 1.1617 109.539 3.29406C109.797 3.79006 109.971 4.32718 110.052 4.8824L110.087 5.16814H104.745L104.723 4.93833C104.702 4.75873 104.627 4.59024 104.507 4.45633C104.308 4.18381 103.676 3.73334 101.717 3.73334C99.3107 3.73334 98.9791 4.04654 98.9791 4.38414C98.9791 4.83461 99.7392 4.99425 102.175 5.25965C103.191 5.34405 104.824 5.51489 105.383 5.58403C108.9 5.97248 110.469 7.26694 110.469 9.78266C110.47 11.8927 109.027 14.4104 102.152 14.4104ZM94.1729 9.76334C94.223 10.0987 94.3091 10.4274 94.4296 10.7436C95.3585 12.8678 97.8854 13.902 102.152 13.902C105.72 13.902 109.974 13.1902 109.974 9.78266C109.974 7.55268 108.585 6.44837 105.33 6.08942C104.771 6.02027 103.148 5.85045 102.134 5.76504C99.5374 5.47828 98.4817 5.32575 98.4817 4.38414C98.4817 3.40998 99.6193 3.22491 101.719 3.22491C103.378 3.22491 104.449 3.52997 104.904 4.14517C105.028 4.29674 105.122 4.47153 105.18 4.65971H109.508C109.421 4.26643 109.284 3.88657 109.099 3.52997C108.1 1.57861 105.66 0.590219 101.837 0.590219C97.2073 0.590219 94.2159 2.14704 94.2159 4.55599C94.2159 6.8541 95.8949 7.98892 99.8281 8.35092C100.327 8.39464 101.415 8.49938 102.278 8.58276L102.716 8.62446C104.84 8.85223 105.777 8.99459 105.777 9.98807C105.777 11.0578 104.565 11.2673 102.473 11.2673C100.537 11.2673 99.3147 10.9714 98.8423 10.3887C98.6966 10.2029 98.5868 9.99071 98.5187 9.76334H94.1729ZM119.958 14.3931C114.744 14.3931 111.867 12.2465 111.867 8.34787V0.286177H116.913V8.34787C116.913 9.68504 118.089 10.4518 120.137 10.4518C122.095 10.4518 123.311 9.65149 123.311 8.36516V0.286177H128.304V8.77495C128.309 12.3452 125.264 14.3931 119.955 14.3931H119.958ZM112.367 0.794608V8.34787C112.367 13.1658 117.119 13.8847 119.958 13.8847C122.892 13.8847 127.813 13.2207 127.813 8.77495V0.794608H123.818V8.36516C123.818 9.94129 122.376 10.9602 120.145 10.9602C117.814 10.9602 116.422 9.984 116.422 8.34787V0.794608H112.367ZM149.467 14.205H144.705V7.92079L142.004 14.205H137.85L135.177 7.93299V14.205H130.398V0.286177H136.684L139.95 7.96044L143.374 0.286177H149.473L149.467 14.205ZM145.204 13.6966H148.967V0.794608H143.692L139.934 9.21322L136.353 0.794608H130.893V13.6966H134.674V5.48642L138.169 13.6996H141.665L145.198 5.49862L145.204 13.6966ZM5.22401 0.540393H0.675537V13.9508H13.2443V10.3806H5.22401V0.540393ZM22.4251 0.235333C16.6192 0.235333 13.5659 3.03679 13.5659 7.15C13.5659 11.7971 16.771 14.1542 22.4251 14.1542C28.6495 14.1542 31.2674 11.4208 31.2674 7.15C31.2674 2.81308 28.314 0.2333 22.4251 0.2333V0.235333ZM22.4081 3.72012C22.8034 3.71823 23.1984 3.74166 23.5907 3.79029L18.5059 8.96714C18.2653 8.41305 18.1479 7.81157 18.1623 7.20593C18.1623 5.10204 19.203 3.71809 22.4081 3.71809V3.72012ZM22.4251 10.7243C22.0443 10.726 21.6637 10.7042 21.2855 10.6592L26.3793 5.4732C26.6109 6.01813 26.7218 6.60835 26.7039 7.20186C26.7039 9.24881 25.7451 10.7222 22.4251 10.7222V10.7243ZM40.2794 8.89392H44.9607C44.8918 9.22471 44.7482 9.53455 44.5412 9.79893C43.5707 10.6039 42.3321 10.9956 41.0844 10.8921C40.4564 10.9605 39.8214 10.8906 39.2222 10.6873C38.623 10.484 38.0737 10.1519 37.6117 9.71352C37.1383 9.00669 36.9135 8.15782 36.9734 7.30457C36.8968 6.41048 37.1413 5.51847 37.6616 4.79393C38.3158 4.04145 39.4235 3.71707 41.0515 3.71707C42.0873 3.62976 43.1219 3.9006 43.9879 4.48582C44.2609 4.70656 44.4649 5.00331 44.5752 5.33999H48.9169C48.8854 4.78526 48.7543 4.24109 48.5304 3.73436C47.4907 1.58166 45.0736 0.300413 40.9636 0.300413C37.3889 0.300413 34.9898 1.41083 33.6645 3.0856C32.7891 4.29502 32.3398 5.76955 32.389 7.27101C32.3324 8.80647 32.7701 10.3187 33.6355 11.5774C34.9449 13.3061 37.2771 14.1562 40.0797 14.1562C41.9429 14.2885 43.7934 13.7572 45.3143 12.6533L45.4322 13.9508H49.0388V6.00705H40.2794V8.89392ZM59.2753 0.232283C53.4704 0.232283 50.4161 3.03374 50.4161 7.14695C50.4161 11.794 53.6202 14.1511 59.2753 14.1511C65.5008 14.1511 68.1186 11.4178 68.1186 7.14695C68.1186 2.81308 65.1652 0.2333 59.2753 0.2333V0.232283ZM59.2594 3.71707C59.6442 3.71591 60.0287 3.73833 60.411 3.78419L55.3461 8.94375C55.113 8.39576 54.9995 7.80293 55.0135 7.20593C55.0095 5.10204 56.0543 3.71809 59.2594 3.71809V3.71707ZM59.2753 10.7212C58.8844 10.723 58.4938 10.6998 58.1058 10.6521L63.2165 5.44777C63.457 5.99996 63.572 6.60021 63.5531 7.2039C63.5551 9.24881 62.6003 10.7222 59.2753 10.7222V10.7212Z" fill="#181817"/>
</svg>
