<svg width="16" height="16" viewBox="0 0 16 16" fill="none" xmlns="http://www.w3.org/2000/svg">
<path d="M14.7355 4.0959C14.0402 2.90356 13.0967 1.95934 11.9036 1.26479C10.7113 0.570231 9.41006 0.222565 7.99995 0.222565C6.58984 0.222565 5.28861 0.570231 4.0955 1.26479C2.90317 1.95934 1.95895 2.90356 1.26439 4.0959C0.569835 5.28823 0.222168 6.59023 0.222168 8.00034C0.222168 9.41045 0.569057 10.7125 1.26439 11.9048C1.95972 13.0979 2.90317 14.0413 4.09628 14.7359C5.28861 15.4305 6.58984 15.7781 7.99995 15.7781C9.41006 15.7781 10.7113 15.4305 11.9044 14.7359C13.0967 14.0413 14.0409 13.0979 14.7363 11.9048C15.4308 10.7125 15.7777 9.41045 15.7777 8.00034C15.7777 6.59023 15.4308 5.28823 14.7355 4.0959ZM7.99995 1.51368C9.5555 1.51368 10.9337 2.01145 12.1377 3.00623C11.4222 3.91934 10.3597 4.67068 8.94884 5.26179C8.1695 3.85168 7.32483 2.67412 6.4125 1.73068C6.94295 1.58601 7.47028 1.51368 7.99995 1.51368ZM2.95217 3.9559C3.53861 3.21934 4.24017 2.64456 5.06072 2.22923C6.00339 3.16334 6.86906 4.32923 7.6585 5.72923C6.10295 6.1959 4.45872 6.42923 2.72661 6.42923C2.28095 6.42923 1.94417 6.41912 1.7155 6.39812C1.95428 5.50601 2.3665 4.69245 2.95217 3.9559ZM1.51328 8.00034C1.51328 7.95834 1.51561 7.90701 1.52106 7.84479C1.5265 7.78257 1.52883 7.73123 1.52883 7.68923C1.72639 7.70012 2.02739 7.70479 2.43183 7.70479C4.50539 7.70479 6.43428 7.41934 8.21772 6.84923C8.36317 7.13934 8.51406 7.46601 8.66883 7.82923C7.64217 8.05712 6.58906 8.61168 5.51028 9.49368C4.4315 10.3757 3.64439 11.3036 3.14661 12.2781C2.05772 11.0438 1.51328 9.61812 1.51328 8.00034ZM7.99995 14.487C6.52683 14.487 5.20461 14.0305 4.0325 13.1189C4.49995 12.1957 5.21783 11.3129 6.18772 10.4737C7.15684 9.63368 8.11895 9.11023 9.07328 8.90257C9.67372 10.5616 10.0789 12.2773 10.2866 14.0515C9.52906 14.3416 8.76684 14.487 7.99995 14.487ZM13.5066 11.407C12.9886 12.2361 12.3197 12.9159 11.4999 13.4456C11.3133 11.8278 10.9555 10.2512 10.4274 8.7159C11.1523 8.66457 11.8002 8.63812 12.3718 8.63812C12.9933 8.63812 13.6832 8.66457 14.4399 8.7159C14.3357 9.68034 14.0246 10.5771 13.5066 11.407ZM12.5422 7.51812C11.6399 7.51812 10.8054 7.55468 10.0377 7.62701C9.84017 7.11912 9.66439 6.69912 9.50883 6.36701C11.1157 5.66234 12.2559 4.80679 12.9303 3.80034C13.8636 4.90012 14.3723 6.15468 14.4547 7.56479C13.8232 7.53368 13.1854 7.51812 12.5422 7.51812Z" fill="#181817"/>
</svg>
